<svg width="1920" height="1080" viewBox="0 0 1920 1080" fill="none" xmlns="http://www.w3.org/2000/svg">
<g clip-path="url(#clip0)">
<rect width="1920" height="1080" fill="white"/>
<path d="M106.272 290.4V278.376H116.856C117.864 278.376 118.824 278.472 119.736 278.664C120.696 278.808 121.536 279.096 122.256 279.528C122.976 279.96 123.552 280.56 123.984 281.328C124.416 282.096 124.632 283.08 124.632 284.28C124.632 286.44 123.984 288 122.688 288.96C121.392 289.92 119.736 290.4 117.72 290.4H106.272ZM94.968 269.592V321H119.88C122.184 321 124.416 320.712 126.576 320.136C128.784 319.56 130.728 318.672 132.408 317.472C134.136 316.272 135.504 314.736 136.512 312.864C137.52 310.944 138.024 308.688 138.024 306.096C138.024 302.88 137.232 300.144 135.648 297.888C134.112 295.584 131.76 293.976 128.592 293.064C130.896 291.96 132.624 290.544 133.776 288.816C134.976 287.088 135.576 284.928 135.576 282.336C135.576 279.936 135.168 277.92 134.352 276.288C133.584 274.656 132.48 273.36 131.04 272.4C129.6 271.392 127.872 270.672 125.856 270.24C123.84 269.808 121.608 269.592 119.16 269.592H94.968ZM106.272 312.216V298.104H118.584C121.032 298.104 123 298.68 124.488 299.832C125.976 300.936 126.72 302.808 126.72 305.448C126.72 306.792 126.48 307.896 126 308.76C125.568 309.624 124.968 310.32 124.2 310.848C123.432 311.328 122.544 311.688 121.536 311.928C120.528 312.12 119.472 312.216 118.368 312.216H106.272ZM179.503 321V283.776H169.279V303.288C169.279 307.08 168.655 309.816 167.407 311.496C166.159 313.128 164.143 313.944 161.359 313.944C158.911 313.944 157.207 313.2 156.247 311.712C155.287 310.176 154.807 307.872 154.807 304.8V283.776H144.583V306.672C144.583 308.976 144.775 311.088 145.159 313.008C145.591 314.88 146.311 316.488 147.319 317.832C148.327 319.128 149.695 320.136 151.423 320.856C153.199 321.576 155.455 321.936 158.191 321.936C160.351 321.936 162.463 321.456 164.527 320.496C166.591 319.536 168.271 317.976 169.567 315.816H169.783V321H179.503ZM200.223 283.776V272.616H189.999V283.776H183.807V290.616H189.999V312.576C189.999 314.448 190.311 315.96 190.935 317.112C191.559 318.264 192.399 319.152 193.455 319.776C194.559 320.4 195.807 320.808 197.199 321C198.639 321.24 200.151 321.36 201.735 321.36C202.743 321.36 203.775 321.336 204.831 321.288C205.887 321.24 206.847 321.144 207.711 321V313.08C207.231 313.176 206.727 313.248 206.199 313.296C205.671 313.344 205.119 313.368 204.543 313.368C202.815 313.368 201.663 313.08 201.087 312.504C200.511 311.928 200.223 310.776 200.223 309.048V290.616H207.711V283.776H200.223ZM245.575 283.776V272.616H235.351V283.776H229.159V290.616H235.351V312.576C235.351 314.448 235.663 315.96 236.287 317.112C236.911 318.264 237.751 319.152 238.807 319.776C239.911 320.4 241.159 320.808 242.551 321C243.991 321.24 245.503 321.36 247.087 321.36C248.095 321.36 249.127 321.336 250.183 321.288C251.239 321.24 252.199 321.144 253.063 321V313.08C252.583 313.176 252.079 313.248 251.551 313.296C251.023 313.344 250.471 313.368 249.895 313.368C248.167 313.368 247.015 313.08 246.439 312.504C245.863 311.928 245.575 310.776 245.575 309.048V290.616H253.063V283.776H245.575ZM257.927 269.592V321H268.151V301.488C268.151 297.696 268.775 294.984 270.023 293.352C271.271 291.672 273.287 290.832 276.071 290.832C278.519 290.832 280.223 291.6 281.183 293.136C282.143 294.624 282.623 296.904 282.623 299.976V321H292.847V298.104C292.847 295.8 292.631 293.712 292.199 291.84C291.815 289.92 291.119 288.312 290.111 287.016C289.103 285.672 287.711 284.64 285.935 283.92C284.207 283.152 281.975 282.768 279.239 282.768C277.319 282.768 275.351 283.272 273.335 284.28C271.319 285.24 269.663 286.8 268.367 288.96H268.151V269.592H257.927ZM300.175 295.224C300.319 292.824 300.919 290.832 301.975 289.248C303.031 287.664 304.375 286.392 306.007 285.432C307.639 284.472 309.463 283.8 311.479 283.416C313.543 282.984 315.607 282.768 317.671 282.768C319.543 282.768 321.439 282.912 323.359 283.2C325.279 283.44 327.031 283.944 328.615 284.712C330.199 285.48 331.495 286.56 332.503 287.952C333.511 289.296 334.015 291.096 334.015 293.352V312.72C334.015 314.4 334.111 316.008 334.303 317.544C334.495 319.08 334.831 320.232 335.311 321H324.943C324.751 320.424 324.583 319.848 324.439 319.272C324.343 318.648 324.271 318.024 324.223 317.4C322.591 319.08 320.671 320.256 318.463 320.928C316.255 321.6 313.999 321.936 311.695 321.936C309.919 321.936 308.263 321.72 306.727 321.288C305.191 320.856 303.847 320.184 302.695 319.272C301.543 318.36 300.631 317.208 299.959 315.816C299.335 314.424 299.023 312.768 299.023 310.848C299.023 308.736 299.383 307.008 300.103 305.664C300.871 304.272 301.831 303.168 302.983 302.352C304.183 301.536 305.527 300.936 307.015 300.552C308.551 300.12 310.087 299.784 311.623 299.544C313.159 299.304 314.671 299.112 316.159 298.968C317.647 298.824 318.967 298.608 320.119 298.32C321.271 298.032 322.183 297.624 322.855 297.096C323.527 296.52 323.839 295.704 323.791 294.648C323.791 293.544 323.599 292.68 323.215 292.056C322.879 291.384 322.399 290.88 321.775 290.544C321.199 290.16 320.503 289.92 319.687 289.824C318.919 289.68 318.079 289.608 317.167 289.608C315.151 289.608 313.567 290.04 312.415 290.904C311.263 291.768 310.591 293.208 310.399 295.224H300.175ZM323.791 302.784C323.359 303.168 322.807 303.48 322.135 303.72C321.511 303.912 320.815 304.08 320.047 304.224C319.327 304.368 318.559 304.488 317.743 304.584C316.927 304.68 316.111 304.8 315.295 304.944C314.527 305.088 313.759 305.28 312.991 305.52C312.271 305.76 311.623 306.096 311.047 306.528C310.519 306.912 310.087 307.416 309.751 308.04C309.415 308.664 309.247 309.456 309.247 310.416C309.247 311.328 309.415 312.096 309.751 312.72C310.087 313.344 310.543 313.848 311.119 314.232C311.695 314.568 312.367 314.808 313.135 314.952C313.903 315.096 314.695 315.168 315.511 315.168C317.527 315.168 319.087 314.832 320.191 314.16C321.295 313.488 322.111 312.696 322.639 311.784C323.167 310.824 323.479 309.864 323.575 308.904C323.719 307.944 323.791 307.176 323.791 306.6V302.784ZM354.911 283.776V272.616H344.687V283.776H338.495V290.616H344.687V312.576C344.687 314.448 344.999 315.96 345.623 317.112C346.247 318.264 347.087 319.152 348.143 319.776C349.247 320.4 350.495 320.808 351.887 321C353.327 321.24 354.839 321.36 356.423 321.36C357.431 321.36 358.463 321.336 359.519 321.288C360.575 321.24 361.535 321.144 362.399 321V313.08C361.919 313.176 361.415 313.248 360.887 313.296C360.359 313.344 359.807 313.368 359.23 313.368C357.503 313.368 356.351 313.08 355.775 312.504C355.199 311.928 354.911 310.776 354.911 309.048V290.616H362.399V283.776H354.911ZM412.646 296.88H422.654C422.51 294.48 421.934 292.416 420.926 290.688C419.918 288.912 418.598 287.448 416.966 286.296C415.382 285.096 413.558 284.208 411.494 283.632C409.478 283.056 407.366 282.768 405.158 282.768C402.134 282.768 399.446 283.272 397.094 284.28C394.742 285.288 392.75 286.704 391.118 288.528C389.486 290.304 388.238 292.44 387.374 294.936C386.558 297.384 386.15 300.048 386.15 302.928C386.15 305.712 386.606 308.28 387.518 310.632C388.43 312.936 389.702 314.928 391.334 316.608C392.966 318.288 394.934 319.608 397.238 320.568C399.59 321.48 402.158 321.936 404.942 321.936C409.886 321.936 413.942 320.64 417.11 318.048C420.278 315.456 422.198 311.688 422.87 306.744H413.006C412.67 309.048 411.83 310.896 410.486 312.288C409.19 313.632 407.318 314.304 404.87 314.304C403.286 314.304 401.942 313.944 400.838 313.224C399.734 312.504 398.846 311.592 398.174 310.488C397.55 309.336 397.094 308.064 396.806 306.672C396.518 305.28 396.374 303.912 396.374 302.568C396.374 301.176 396.518 299.784 396.806 298.392C397.094 296.952 397.574 295.656 398.246 294.504C398.966 293.304 399.878 292.344 400.982 291.624C402.086 290.856 403.454 290.472 405.086 290.472C409.454 290.472 411.974 292.608 412.646 296.88ZM437.718 302.424C437.718 300.936 437.862 299.472 438.15 298.032C438.438 296.592 438.918 295.32 439.59 294.216C440.31 293.112 441.246 292.224 442.398 291.552C443.55 290.832 444.99 290.472 446.718 290.472C448.446 290.472 449.886 290.832 451.038 291.552C452.238 292.224 453.174 293.112 453.846 294.216C454.566 295.32 455.07 296.592 455.358 298.032C455.646 299.472 455.79 300.936 455.79 302.424C455.79 303.912 455.646 305.376 455.358 306.816C455.07 308.208 454.566 309.48 453.846 310.632C453.174 311.736 452.238 312.624 451.038 313.296C449.886 313.968 448.446 314.304 446.718 314.304C444.99 314.304 443.55 313.968 442.398 313.296C441.246 312.624 440.31 311.736 439.59 310.632C438.918 309.48 438.438 308.208 438.15 306.816C437.862 305.376 437.718 303.912 437.718 302.424ZM427.494 302.424C427.494 305.4 427.95 308.088 428.862 310.488C429.774 312.888 431.07 314.952 432.75 316.68C434.43 318.36 436.446 319.656 438.798 320.568C441.15 321.48 443.79 321.936 446.718 321.936C449.646 321.936 452.286 321.48 454.638 320.568C457.038 319.656 459.078 318.36 460.758 316.68C462.438 314.952 463.734 312.888 464.646 310.488C465.558 308.088 466.014 305.4 466.014 302.424C466.014 299.448 465.558 296.76 464.646 294.36C463.734 291.912 462.438 289.848 460.758 288.168C459.078 286.44 457.038 285.12 454.638 284.208C452.286 283.248 449.646 282.768 446.718 282.768C443.79 282.768 441.15 283.248 438.798 284.208C436.446 285.12 434.43 286.44 432.75 288.168C431.07 289.848 429.774 291.912 428.862 294.36C427.95 296.76 427.494 299.448 427.494 302.424ZM507.581 321V283.776H497.357V303.288C497.357 307.08 496.733 309.816 495.485 311.496C494.237 313.128 492.221 313.944 489.437 313.944C486.989 313.944 485.285 313.2 484.325 311.712C483.365 310.176 482.885 307.872 482.885 304.8V283.776H472.661V306.672C472.661 308.976 472.853 311.088 473.237 313.008C473.669 314.88 474.389 316.488 475.397 317.832C476.405 319.128 477.773 320.136 479.501 320.856C481.277 321.576 483.533 321.936 486.269 321.936C488.429 321.936 490.541 321.456 492.605 320.496C494.669 319.536 496.349 317.976 497.645 315.816H497.861V321H507.581ZM515.629 269.592V321H525.853V269.592H515.629ZM560.328 302.28C560.328 303.816 560.184 305.304 559.896 306.744C559.608 308.184 559.128 309.48 558.456 310.632C557.784 311.736 556.872 312.624 555.72 313.296C554.616 313.968 553.224 314.304 551.544 314.304C549.96 314.304 548.592 313.968 547.44 313.296C546.336 312.576 545.4 311.664 544.632 310.56C543.912 309.408 543.384 308.112 543.048 306.672C542.712 305.232 542.544 303.792 542.544 302.352C542.544 300.816 542.688 299.352 542.976 297.96C543.312 296.52 543.816 295.248 544.488 294.144C545.208 293.04 546.144 292.152 547.296 291.48C548.448 290.808 549.864 290.472 551.544 290.472C553.224 290.472 554.616 290.808 555.72 291.48C556.824 292.152 557.712 293.04 558.384 294.144C559.104 295.2 559.608 296.448 559.896 297.888C560.184 299.28 560.328 300.744 560.328 302.28ZM560.472 316.248V321H570.192V269.592H559.968V288.312H559.824C558.672 286.488 557.088 285.12 555.072 284.208C553.104 283.248 551.016 282.768 548.808 282.768C546.072 282.768 543.672 283.32 541.608 284.424C539.544 285.48 537.816 286.896 536.424 288.672C535.08 290.448 534.048 292.512 533.328 294.864C532.656 297.168 532.32 299.568 532.32 302.064C532.32 304.656 532.656 307.152 533.328 309.552C534.048 311.952 535.08 314.088 536.424 315.96C537.816 317.784 539.568 319.248 541.68 320.352C543.792 321.408 546.24 321.936 549.024 321.936C551.472 321.936 553.656 321.504 555.576 320.64C557.544 319.728 559.128 318.264 560.328 316.248H560.472ZM623.302 296.88H633.31C633.166 294.48 632.59 292.416 631.582 290.688C630.574 288.912 629.254 287.448 627.622 286.296C626.038 285.096 624.214 284.208 622.15 283.632C620.134 283.056 618.022 282.768 615.814 282.768C612.79 282.768 610.102 283.272 607.75 284.28C605.398 285.288 603.406 286.704 601.774 288.528C600.142 290.304 598.894 292.44 598.03 294.936C597.214 297.384 596.806 300.048 596.806 302.928C596.806 305.712 597.262 308.28 598.174 310.632C599.086 312.936 600.358 314.928 601.99 316.608C603.622 318.288 605.59 319.608 607.894 320.568C610.246 321.48 612.814 321.936 615.598 321.936C620.542 321.936 624.598 320.64 627.766 318.048C630.934 315.456 632.854 311.688 633.526 306.744H623.662C623.326 309.048 622.486 310.896 621.142 312.288C619.846 313.632 617.974 314.304 615.526 314.304C613.942 314.304 612.598 313.944 611.494 313.224C610.39 312.504 609.502 311.592 608.83 310.488C608.206 309.336 607.75 308.064 607.462 306.672C607.174 305.28 607.03 303.912 607.03 302.568C607.03 301.176 607.174 299.784 607.462 298.392C607.75 296.952 608.23 295.656 608.902 294.504C609.622 293.304 610.534 292.344 611.638 291.624C612.742 290.856 614.11 290.472 615.742 290.472C620.11 290.472 622.63 292.608 623.302 296.88ZM639.302 269.592V321H649.526V301.488C649.526 297.696 650.15 294.984 651.398 293.352C652.646 291.672 654.662 290.832 657.446 290.832C659.894 290.832 661.598 291.6 662.558 293.136C663.518 294.624 663.998 296.904 663.998 299.976V321H674.222V298.104C674.222 295.8 674.006 293.712 673.574 291.84C673.19 289.92 672.494 288.312 671.486 287.016C670.478 285.672 669.086 284.64 667.31 283.92C665.582 283.152 663.35 282.768 660.614 282.768C658.694 282.768 656.726 283.272 654.71 284.28C652.694 285.24 651.038 286.8 649.742 288.96H649.526V269.592H639.302ZM681.55 295.224C681.694 292.824 682.294 290.832 683.35 289.248C684.406 287.664 685.75 286.392 687.382 285.432C689.014 284.472 690.838 283.8 692.854 283.416C694.918 282.984 696.982 282.768 699.046 282.768C700.918 282.768 702.814 282.912 704.734 283.2C706.654 283.44 708.406 283.944 709.99 284.712C711.574 285.48 712.87 286.56 713.878 287.952C714.886 289.296 715.39 291.096 715.39 293.352V312.72C715.39 314.4 715.486 316.008 715.678 317.544C715.87 319.08 716.206 320.232 716.686 321H706.318C706.126 320.424 705.958 319.848 705.814 319.272C705.718 318.648 705.646 318.024 705.598 317.4C703.966 319.08 702.046 320.256 699.838 320.928C697.63 321.6 695.374 321.936 693.07 321.936C691.294 321.936 689.638 321.72 688.102 321.288C686.566 320.856 685.222 320.184 684.07 319.272C682.918 318.36 682.006 317.208 681.334 315.816C680.71 314.424 680.398 312.768 680.398 310.848C680.398 308.736 680.758 307.008 681.478 305.664C682.246 304.272 683.206 303.168 684.358 302.352C685.558 301.536 686.902 300.936 688.39 300.552C689.926 300.12 691.462 299.784 692.998 299.544C694.534 299.304 696.046 299.112 697.534 298.968C699.022 298.824 700.342 298.608 701.494 298.32C702.646 298.032 703.558 297.624 704.23 297.096C704.902 296.52 705.214 295.704 705.166 294.648C705.166 293.544 704.974 292.68 704.59 292.056C704.254 291.384 703.774 290.88 703.15 290.544C702.574 290.16 701.878 289.92 701.062 289.824C700.294 289.68 699.454 289.608 698.542 289.608C696.526 289.608 694.942 290.04 693.79 290.904C692.638 291.768 691.966 293.208 691.774 295.224H681.55ZM705.166 302.784C704.734 303.168 704.182 303.48 703.51 303.72C702.886 303.912 702.19 304.08 701.422 304.224C700.702 304.368 699.934 304.488 699.118 304.584C698.302 304.68 697.486 304.8 696.67 304.944C695.902 305.088 695.134 305.28 694.366 305.52C693.646 305.76 692.998 306.096 692.422 306.528C691.894 306.912 691.462 307.416 691.126 308.04C690.79 308.664 690.622 309.456 690.622 310.416C690.622 311.328 690.79 312.096 691.126 312.72C691.462 313.344 691.918 313.848 692.494 314.232C693.07 314.568 693.742 314.808 694.51 314.952C695.278 315.096 696.07 315.168 696.886 315.168C698.902 315.168 700.462 314.832 701.566 314.16C702.67 313.488 703.486 312.696 704.014 311.784C704.542 310.824 704.854 309.864 704.95 308.904C705.094 307.944 705.166 307.176 705.166 306.6V302.784ZM723.326 283.776V321H733.55V301.488C733.55 297.696 734.174 294.984 735.422 293.352C736.67 291.672 738.686 290.832 741.47 290.832C743.918 290.832 745.622 291.6 746.582 293.136C747.542 294.624 748.022 296.904 748.022 299.976V321H758.246V298.104C758.246 295.8 758.03 293.712 757.598 291.84C757.214 289.92 756.518 288.312 755.51 287.016C754.502 285.672 753.11 284.64 751.334 283.92C749.606 283.152 747.374 282.768 744.638 282.768C742.478 282.768 740.366 283.272 738.302 284.28C736.238 285.24 734.558 286.8 733.262 288.96H733.046V283.776H723.326ZM783.357 312.216C781.773 312.216 780.453 311.88 779.397 311.208C778.341 310.536 777.477 309.672 776.805 308.616C776.181 307.56 775.725 306.384 775.437 305.088C775.197 303.744 775.077 302.4 775.077 301.056C775.077 299.664 775.221 298.344 775.509 297.096C775.845 295.8 776.349 294.672 777.021 293.712C777.741 292.704 778.605 291.912 779.613 291.336C780.669 290.76 781.917 290.472 783.357 290.472C785.037 290.472 786.429 290.784 787.533 291.408C788.637 292.032 789.525 292.872 790.197 293.928C790.869 294.984 791.349 296.208 791.637 297.6C791.925 298.944 792.069 300.384 792.069 301.92C792.069 303.264 791.877 304.56 791.493 305.808C791.157 307.008 790.629 308.088 789.909 309.048C789.189 310.008 788.277 310.776 787.173 311.352C786.069 311.928 784.797 312.216 783.357 312.216ZM801.789 318.624V283.776H792.069V288.744H791.925C790.677 286.584 789.117 285.048 787.245 284.136C785.421 283.224 783.285 282.768 780.837 282.768C778.245 282.768 775.941 283.272 773.925 284.28C771.957 285.288 770.301 286.656 768.957 288.384C767.613 290.064 766.581 292.032 765.861 294.288C765.189 296.496 764.853 298.8 764.853 301.2C764.853 303.744 765.141 306.168 765.717 308.472C766.341 310.728 767.301 312.72 768.597 314.448C769.893 316.128 771.549 317.472 773.565 318.48C775.581 319.44 777.981 319.92 780.765 319.92C783.021 319.92 785.157 319.464 787.173 318.552C789.237 317.592 790.821 316.128 791.925 314.16H792.069V319.056C792.117 321.696 791.469 323.88 790.125 325.608C788.829 327.336 786.741 328.2 783.861 328.2C782.037 328.2 780.429 327.816 779.037 327.048C777.645 326.328 776.709 325.008 776.229 323.088H766.077C766.221 325.2 766.797 327 767.805 328.488C768.861 330.024 770.157 331.272 771.693 332.232C773.277 333.192 775.005 333.888 776.877 334.32C778.797 334.8 780.669 335.04 782.493 335.04C786.765 335.04 790.173 334.464 792.717 333.312C795.261 332.16 797.205 330.744 798.549 329.064C799.893 327.432 800.757 325.656 801.141 323.736C801.573 321.816 801.789 320.112 801.789 318.624ZM835.077 298.392H818.445C818.493 297.672 818.637 296.856 818.877 295.944C819.165 295.032 819.621 294.168 820.245 293.352C820.917 292.536 821.781 291.864 822.837 291.336C823.941 290.76 825.309 290.472 826.941 290.472C829.437 290.472 831.285 291.144 832.485 292.488C833.733 293.832 834.597 295.8 835.077 298.392ZM818.445 304.872H845.301C845.493 301.992 845.253 299.232 844.581 296.592C843.909 293.952 842.805 291.6 841.269 289.536C839.781 287.472 837.861 285.84 835.509 284.64C833.157 283.392 830.397 282.768 827.229 282.768C824.397 282.768 821.805 283.272 819.453 284.28C817.149 285.288 815.157 286.68 813.477 288.456C811.797 290.184 810.501 292.248 809.589 294.648C808.677 297.048 808.221 299.64 808.221 302.424C808.221 305.304 808.653 307.944 809.517 310.344C810.429 312.744 811.701 314.808 813.333 316.536C814.965 318.264 816.957 319.608 819.309 320.568C821.661 321.48 824.301 321.936 827.229 321.936C831.453 321.936 835.053 320.976 838.029 319.056C841.005 317.136 843.213 313.944 844.653 309.48H835.653C835.317 310.632 834.405 311.736 832.917 312.792C831.429 313.8 829.653 314.304 827.589 314.304C824.709 314.304 822.501 313.56 820.965 312.072C819.429 310.584 818.589 308.184 818.445 304.872ZM851.797 309.912V321H863.101V309.912H851.797Z" fill="black"/>
</g>
<defs>
<clipPath id="clip0">
<rect width="1920" height="1080" fill="white"/>
</clipPath>
</defs>
</svg>
