<svg width="1920" height="1080" viewBox="0 0 1920 1080" fill="none" xmlns="http://www.w3.org/2000/svg">
<g clip-path="url(#clip0)">
<rect width="1920" height="1080" fill="white"/>
<line x1="-1.20049" y1="931.146" x2="1993.93" y2="437.686" stroke="black" stroke-width="10"/>
<line x1="507.251" y1="1166.82" x2="2045.3" y2="154.427" stroke="black" stroke-width="10"/>
<line x1="1399" y1="7.98148" x2="1403" y2="1087.98" stroke="black" stroke-width="10"/>
<path d="M1397.5 160C1304.85 160 1214.82 190.822 1141.61 247.61C1068.4 304.399 1016.16 383.928 993.117 473.672C970.074 563.416 977.54 658.275 1014.34 743.309C1051.14 828.344 1115.17 898.721 1196.37 943.358C1277.56 987.995 1371.3 1004.35 1462.81 989.86C1554.33 975.366 1638.42 930.841 1701.84 863.298C1765.27 795.756 1804.43 709.034 1813.15 616.79C1821.87 524.547 1799.65 432.023 1750.01 353.792L1397.5 577.5V160Z" fill="black"/>
<path d="M1397.5 160C1304.85 160 1214.82 190.822 1141.61 247.61C1068.4 304.399 1016.16 383.928 993.117 473.672C970.074 563.416 977.54 658.275 1014.34 743.309C1051.14 828.344 1115.17 898.721 1196.37 943.358C1277.56 987.995 1371.3 1004.35 1462.81 989.86C1554.33 975.366 1638.42 930.841 1701.84 863.298C1765.27 795.756 1804.43 709.034 1813.15 616.79C1821.87 524.547 1799.65 432.023 1750.01 353.792L1397.5 577.5V160Z" fill="black"/>
<path d="M108.08 295V281.64H119.84C120.96 281.64 122.027 281.747 123.04 281.96C124.107 282.12 125.04 282.44 125.84 282.92C126.64 283.4 127.28 284.067 127.76 284.92C128.24 285.773 128.48 286.867 128.48 288.2C128.48 290.6 127.76 292.333 126.32 293.4C124.88 294.467 123.04 295 120.8 295H108.08ZM95.52 271.88V329H123.2C125.76 329 128.24 328.68 130.64 328.04C133.093 327.4 135.253 326.413 137.12 325.08C139.04 323.747 140.56 322.04 141.68 319.96C142.8 317.827 143.36 315.32 143.36 312.44C143.36 308.867 142.48 305.827 140.72 303.32C139.013 300.76 136.4 298.973 132.88 297.96C135.44 296.733 137.36 295.16 138.64 293.24C139.973 291.32 140.64 288.92 140.64 286.04C140.64 283.373 140.187 281.133 139.28 279.32C138.427 277.507 137.2 276.067 135.6 275C134 273.88 132.08 273.08 129.84 272.6C127.6 272.12 125.12 271.88 122.4 271.88H95.52ZM108.08 319.24V303.56H121.76C124.48 303.56 126.667 304.2 128.32 305.48C129.973 306.707 130.8 308.787 130.8 311.72C130.8 313.213 130.533 314.44 130 315.4C129.52 316.36 128.853 317.133 128 317.72C127.147 318.253 126.16 318.653 125.04 318.92C123.92 319.133 122.747 319.24 121.52 319.24H108.08ZM150.168 300.36C150.328 297.693 150.995 295.48 152.168 293.72C153.341 291.96 154.835 290.547 156.648 289.48C158.461 288.413 160.488 287.667 162.728 287.24C165.021 286.76 167.315 286.52 169.608 286.52C171.688 286.52 173.795 286.68 175.928 287C178.061 287.267 180.008 287.827 181.768 288.68C183.528 289.533 184.968 290.733 186.088 292.28C187.208 293.773 187.768 295.773 187.768 298.28V319.8C187.768 321.667 187.875 323.453 188.088 325.16C188.301 326.867 188.675 328.147 189.208 329H177.688C177.475 328.36 177.288 327.72 177.128 327.08C177.021 326.387 176.941 325.693 176.888 325C175.075 326.867 172.941 328.173 170.488 328.92C168.035 329.667 165.528 330.04 162.968 330.04C160.995 330.04 159.155 329.8 157.448 329.32C155.741 328.84 154.248 328.093 152.968 327.08C151.688 326.067 150.675 324.787 149.928 323.24C149.235 321.693 148.888 319.853 148.888 317.72C148.888 315.373 149.288 313.453 150.088 311.96C150.941 310.413 152.008 309.187 153.288 308.28C154.621 307.373 156.115 306.707 157.768 306.28C159.475 305.8 161.181 305.427 162.888 305.16C164.595 304.893 166.275 304.68 167.928 304.52C169.581 304.36 171.048 304.12 172.328 303.8C173.608 303.48 174.621 303.027 175.368 302.44C176.115 301.8 176.461 300.893 176.408 299.72C176.408 298.493 176.195 297.533 175.768 296.84C175.395 296.093 174.861 295.533 174.168 295.16C173.528 294.733 172.755 294.467 171.848 294.36C170.995 294.2 170.061 294.12 169.048 294.12C166.808 294.12 165.048 294.6 163.768 295.56C162.488 296.52 161.741 298.12 161.528 300.36H150.168ZM176.408 308.76C175.928 309.187 175.315 309.533 174.568 309.8C173.875 310.013 173.101 310.2 172.248 310.36C171.448 310.52 170.595 310.653 169.688 310.76C168.781 310.867 167.875 311 166.968 311.16C166.115 311.32 165.261 311.533 164.408 311.8C163.608 312.067 162.888 312.44 162.248 312.92C161.661 313.347 161.181 313.907 160.808 314.6C160.435 315.293 160.248 316.173 160.248 317.24C160.248 318.253 160.435 319.107 160.808 319.8C161.181 320.493 161.688 321.053 162.328 321.48C162.968 321.853 163.715 322.12 164.568 322.28C165.421 322.44 166.301 322.52 167.208 322.52C169.448 322.52 171.181 322.147 172.408 321.4C173.635 320.653 174.541 319.773 175.128 318.76C175.715 317.693 176.061 316.627 176.168 315.56C176.328 314.493 176.408 313.64 176.408 313V308.76ZM205.386 315.56H194.586C194.692 318.333 195.306 320.653 196.426 322.52C197.599 324.333 199.066 325.8 200.826 326.92C202.639 328.04 204.692 328.84 206.986 329.32C209.279 329.8 211.626 330.04 214.026 330.04C216.372 330.04 218.666 329.8 220.906 329.32C223.199 328.893 225.226 328.12 226.986 327C228.746 325.88 230.159 324.413 231.226 322.6C232.346 320.733 232.906 318.44 232.906 315.72C232.906 313.8 232.532 312.2 231.786 310.92C231.039 309.587 230.052 308.493 228.826 307.64C227.599 306.733 226.186 306.013 224.586 305.48C223.039 304.947 221.439 304.493 219.786 304.12C218.186 303.747 216.612 303.4 215.066 303.08C213.519 302.76 212.132 302.413 210.906 302.04C209.732 301.613 208.772 301.08 208.026 300.44C207.279 299.8 206.906 298.973 206.906 297.96C206.906 297.107 207.119 296.44 207.546 295.96C207.972 295.427 208.479 295.027 209.066 294.76C209.706 294.493 210.399 294.333 211.146 294.28C211.892 294.173 212.586 294.12 213.226 294.12C215.252 294.12 217.012 294.52 218.506 295.32C219.999 296.067 220.826 297.533 220.986 299.72H231.786C231.572 297.16 230.906 295.053 229.786 293.4C228.719 291.693 227.359 290.333 225.706 289.32C224.052 288.307 222.159 287.587 220.026 287.16C217.946 286.733 215.786 286.52 213.546 286.52C211.306 286.52 209.119 286.733 206.986 287.16C204.852 287.533 202.932 288.227 201.226 289.24C199.519 290.2 198.132 291.533 197.066 293.24C196.052 294.947 195.546 297.133 195.546 299.8C195.546 301.613 195.919 303.16 196.666 304.44C197.412 305.667 198.399 306.707 199.626 307.56C200.852 308.36 202.239 309.027 203.786 309.56C205.386 310.04 207.012 310.467 208.666 310.84C212.719 311.693 215.866 312.547 218.106 313.4C220.399 314.253 221.546 315.533 221.546 317.24C221.546 318.253 221.306 319.107 220.826 319.8C220.346 320.44 219.732 320.973 218.986 321.4C218.292 321.773 217.492 322.067 216.586 322.28C215.732 322.44 214.906 322.52 214.106 322.52C212.986 322.52 211.892 322.387 210.826 322.12C209.812 321.853 208.906 321.453 208.106 320.92C207.306 320.333 206.639 319.613 206.106 318.76C205.626 317.853 205.386 316.787 205.386 315.56ZM267.394 303.88H248.914C248.968 303.08 249.128 302.173 249.394 301.16C249.714 300.147 250.221 299.187 250.914 298.28C251.661 297.373 252.621 296.627 253.794 296.04C255.021 295.4 256.541 295.08 258.354 295.08C261.128 295.08 263.181 295.827 264.514 297.32C265.901 298.813 266.861 301 267.394 303.88ZM248.914 311.08H278.754C278.968 307.88 278.701 304.813 277.954 301.88C277.208 298.947 275.981 296.333 274.274 294.04C272.621 291.747 270.488 289.933 267.874 288.6C265.261 287.213 262.194 286.52 258.674 286.52C255.528 286.52 252.648 287.08 250.034 288.2C247.474 289.32 245.261 290.867 243.394 292.84C241.528 294.76 240.088 297.053 239.074 299.72C238.061 302.387 237.554 305.267 237.554 308.36C237.554 311.56 238.034 314.493 238.994 317.16C240.008 319.827 241.421 322.12 243.234 324.04C245.048 325.96 247.261 327.453 249.874 328.52C252.488 329.533 255.421 330.04 258.674 330.04C263.368 330.04 267.368 328.973 270.674 326.84C273.981 324.707 276.434 321.16 278.034 316.2H268.034C267.661 317.48 266.648 318.707 264.994 319.88C263.341 321 261.368 321.56 259.074 321.56C255.874 321.56 253.421 320.733 251.714 319.08C250.008 317.427 249.074 314.76 248.914 311.08ZM314.852 308.2C314.852 309.907 314.692 311.56 314.372 313.16C314.052 314.76 313.519 316.2 312.772 317.48C312.025 318.707 311.012 319.693 309.732 320.44C308.505 321.187 306.959 321.56 305.092 321.56C303.332 321.56 301.812 321.187 300.532 320.44C299.305 319.64 298.265 318.627 297.412 317.4C296.612 316.12 296.025 314.68 295.652 313.08C295.279 311.48 295.092 309.88 295.092 308.28C295.092 306.573 295.252 304.947 295.572 303.4C295.945 301.8 296.505 300.387 297.252 299.16C298.052 297.933 299.092 296.947 300.372 296.2C301.652 295.453 303.225 295.08 305.092 295.08C306.959 295.08 308.505 295.453 309.732 296.2C310.959 296.947 311.945 297.933 312.692 299.16C313.492 300.333 314.052 301.72 314.372 303.32C314.692 304.867 314.852 306.493 314.852 308.2ZM315.012 323.72V329H325.812V271.88H314.452V292.68H314.292C313.012 290.653 311.252 289.133 309.012 288.12C306.825 287.053 304.505 286.52 302.052 286.52C299.012 286.52 296.345 287.133 294.052 288.36C291.759 289.533 289.839 291.107 288.292 293.08C286.799 295.053 285.652 297.347 284.852 299.96C284.105 302.52 283.732 305.187 283.732 307.96C283.732 310.84 284.105 313.613 284.852 316.28C285.652 318.947 286.799 321.32 288.292 323.4C289.839 325.427 291.785 327.053 294.132 328.28C296.479 329.453 299.199 330.04 302.292 330.04C305.012 330.04 307.439 329.56 309.572 328.6C311.759 327.587 313.519 325.96 314.852 323.72H315.012ZM366.744 308.36C366.744 306.707 366.904 305.08 367.224 303.48C367.544 301.88 368.077 300.467 368.824 299.24C369.624 298.013 370.664 297.027 371.944 296.28C373.224 295.48 374.824 295.08 376.744 295.08C378.664 295.08 380.264 295.48 381.544 296.28C382.877 297.027 383.917 298.013 384.664 299.24C385.464 300.467 386.024 301.88 386.344 303.48C386.664 305.08 386.824 306.707 386.824 308.36C386.824 310.013 386.664 311.64 386.344 313.24C386.024 314.787 385.464 316.2 384.664 317.48C383.917 318.707 382.877 319.693 381.544 320.44C380.264 321.187 378.664 321.56 376.744 321.56C374.824 321.56 373.224 321.187 371.944 320.44C370.664 319.693 369.624 318.707 368.824 317.48C368.077 316.2 367.544 314.787 367.224 313.24C366.904 311.64 366.744 310.013 366.744 308.36ZM355.384 308.36C355.384 311.667 355.89 314.653 356.904 317.32C357.917 319.987 359.357 322.28 361.224 324.2C363.09 326.067 365.33 327.507 367.944 328.52C370.557 329.533 373.49 330.04 376.744 330.04C379.997 330.04 382.93 329.533 385.544 328.52C388.21 327.507 390.477 326.067 392.344 324.2C394.21 322.28 395.65 319.987 396.664 317.32C397.677 314.653 398.184 311.667 398.184 308.36C398.184 305.053 397.677 302.067 396.664 299.4C395.65 296.68 394.21 294.387 392.344 292.52C390.477 290.6 388.21 289.133 385.544 288.12C382.93 287.053 379.997 286.52 376.744 286.52C373.49 286.52 370.557 287.053 367.944 288.12C365.33 289.133 363.09 290.6 361.224 292.52C359.357 294.387 357.917 296.68 356.904 299.4C355.89 302.067 355.384 305.053 355.384 308.36ZM405.57 287.64V329H416.93V307.32C416.93 303.107 417.623 300.093 419.01 298.28C420.397 296.413 422.637 295.48 425.73 295.48C428.45 295.48 430.343 296.333 431.41 298.04C432.477 299.693 433.01 302.227 433.01 305.64V329H444.37V303.56C444.37 301 444.13 298.68 443.65 296.6C443.223 294.467 442.45 292.68 441.33 291.24C440.21 289.747 438.663 288.6 436.69 287.8C434.77 286.947 432.29 286.52 429.25 286.52C426.85 286.52 424.503 287.08 422.21 288.2C419.917 289.267 418.05 291 416.61 293.4H416.37V287.64H405.57ZM485.338 308.36C485.338 306.707 485.498 305.08 485.818 303.48C486.138 301.88 486.671 300.467 487.418 299.24C488.218 298.013 489.258 297.027 490.538 296.28C491.818 295.48 493.418 295.08 495.338 295.08C497.258 295.08 498.858 295.48 500.138 296.28C501.471 297.027 502.511 298.013 503.258 299.24C504.058 300.467 504.618 301.88 504.938 303.48C505.258 305.08 505.418 306.707 505.418 308.36C505.418 310.013 505.258 311.64 504.938 313.24C504.618 314.787 504.058 316.2 503.258 317.48C502.511 318.707 501.471 319.693 500.138 320.44C498.858 321.187 497.258 321.56 495.338 321.56C493.418 321.56 491.818 321.187 490.538 320.44C489.258 319.693 488.218 318.707 487.418 317.48C486.671 316.2 486.138 314.787 485.818 313.24C485.498 311.64 485.338 310.013 485.338 308.36ZM473.978 308.36C473.978 311.667 474.484 314.653 475.498 317.32C476.511 319.987 477.951 322.28 479.818 324.2C481.684 326.067 483.924 327.507 486.538 328.52C489.151 329.533 492.084 330.04 495.338 330.04C498.591 330.04 501.524 329.533 504.138 328.52C506.804 327.507 509.071 326.067 510.938 324.2C512.804 322.28 514.244 319.987 515.258 317.32C516.271 314.653 516.778 311.667 516.778 308.36C516.778 305.053 516.271 302.067 515.258 299.4C514.244 296.68 512.804 294.387 510.938 292.52C509.071 290.6 506.804 289.133 504.138 288.12C501.524 287.053 498.591 286.52 495.338 286.52C492.084 286.52 489.151 287.053 486.538 288.12C483.924 289.133 481.684 290.6 479.818 292.52C477.951 294.387 476.511 296.68 475.498 299.4C474.484 302.067 473.978 305.053 473.978 308.36ZM562.964 329V287.64H551.604V309.32C551.604 313.533 550.91 316.573 549.524 318.44C548.137 320.253 545.897 321.16 542.804 321.16C540.084 321.16 538.19 320.333 537.124 318.68C536.057 316.973 535.524 314.413 535.524 311V287.64H524.164V313.08C524.164 315.64 524.377 317.987 524.804 320.12C525.284 322.2 526.084 323.987 527.204 325.48C528.324 326.92 529.844 328.04 531.764 328.84C533.737 329.64 536.244 330.04 539.284 330.04C541.684 330.04 544.03 329.507 546.324 328.44C548.617 327.373 550.484 325.64 551.924 323.24H552.164V329H562.964ZM571.586 287.64V329H582.946V310.36C582.946 308.493 583.132 306.76 583.506 305.16C583.879 303.56 584.492 302.173 585.346 301C586.252 299.773 587.426 298.813 588.866 298.12C590.306 297.427 592.066 297.08 594.146 297.08C594.839 297.08 595.559 297.133 596.306 297.24C597.052 297.293 597.692 297.373 598.226 297.48V286.92C597.319 286.653 596.492 286.52 595.746 286.52C594.306 286.52 592.919 286.733 591.586 287.16C590.252 287.587 588.999 288.2 587.826 289C586.652 289.747 585.612 290.68 584.706 291.8C583.799 292.867 583.079 294.04 582.546 295.32H582.386V287.64H571.586ZM624.945 287.64V329H636.305V310.36C636.305 308.493 636.492 306.76 636.865 305.16C637.238 303.56 637.852 302.173 638.705 301C639.612 299.773 640.785 298.813 642.225 298.12C643.665 297.427 645.425 297.08 647.505 297.08C648.198 297.08 648.918 297.133 649.665 297.24C650.412 297.293 651.052 297.373 651.585 297.48V286.92C650.678 286.653 649.852 286.52 649.105 286.52C647.665 286.52 646.278 286.733 644.945 287.16C643.612 287.587 642.358 288.2 641.185 289C640.012 289.747 638.972 290.68 638.065 291.8C637.158 292.867 636.438 294.04 635.905 295.32H635.745V287.64H624.945ZM682.473 303.88H663.993C664.046 303.08 664.206 302.173 664.473 301.16C664.793 300.147 665.299 299.187 665.993 298.28C666.739 297.373 667.699 296.627 668.873 296.04C670.099 295.4 671.619 295.08 673.433 295.08C676.206 295.08 678.259 295.827 679.593 297.32C680.979 298.813 681.939 301 682.473 303.88ZM663.993 311.08H693.833C694.046 307.88 693.779 304.813 693.033 301.88C692.286 298.947 691.059 296.333 689.353 294.04C687.699 291.747 685.566 289.933 682.953 288.6C680.339 287.213 677.273 286.52 673.753 286.52C670.606 286.52 667.726 287.08 665.113 288.2C662.553 289.32 660.339 290.867 658.473 292.84C656.606 294.76 655.166 297.053 654.153 299.72C653.139 302.387 652.633 305.267 652.633 308.36C652.633 311.56 653.113 314.493 654.073 317.16C655.086 319.827 656.499 322.12 658.313 324.04C660.126 325.96 662.339 327.453 664.953 328.52C667.566 329.533 670.499 330.04 673.753 330.04C678.446 330.04 682.446 328.973 685.753 326.84C689.059 324.707 691.513 321.16 693.113 316.2H683.113C682.739 317.48 681.726 318.707 680.073 319.88C678.419 321 676.446 321.56 674.153 321.56C670.953 321.56 668.499 320.733 666.793 319.08C665.086 317.427 664.153 314.76 663.993 311.08ZM709.37 315.56H698.57C698.677 318.333 699.29 320.653 700.41 322.52C701.583 324.333 703.05 325.8 704.81 326.92C706.623 328.04 708.677 328.84 710.97 329.32C713.263 329.8 715.61 330.04 718.01 330.04C720.357 330.04 722.65 329.8 724.89 329.32C727.183 328.893 729.21 328.12 730.97 327C732.73 325.88 734.143 324.413 735.21 322.6C736.33 320.733 736.89 318.44 736.89 315.72C736.89 313.8 736.517 312.2 735.77 310.92C735.023 309.587 734.037 308.493 732.81 307.64C731.583 306.733 730.17 306.013 728.57 305.48C727.023 304.947 725.423 304.493 723.77 304.12C722.17 303.747 720.597 303.4 719.05 303.08C717.503 302.76 716.117 302.413 714.89 302.04C713.717 301.613 712.757 301.08 712.01 300.44C711.263 299.8 710.89 298.973 710.89 297.96C710.89 297.107 711.103 296.44 711.53 295.96C711.957 295.427 712.463 295.027 713.05 294.76C713.69 294.493 714.383 294.333 715.13 294.28C715.877 294.173 716.57 294.12 717.21 294.12C719.237 294.12 720.997 294.52 722.49 295.32C723.983 296.067 724.81 297.533 724.97 299.72H735.77C735.557 297.16 734.89 295.053 733.77 293.4C732.703 291.693 731.343 290.333 729.69 289.32C728.037 288.307 726.143 287.587 724.01 287.16C721.93 286.733 719.77 286.52 717.53 286.52C715.29 286.52 713.103 286.733 710.97 287.16C708.837 287.533 706.917 288.227 705.21 289.24C703.503 290.2 702.117 291.533 701.05 293.24C700.037 294.947 699.53 297.133 699.53 299.8C699.53 301.613 699.903 303.16 700.65 304.44C701.397 305.667 702.383 306.707 703.61 307.56C704.837 308.36 706.223 309.027 707.77 309.56C709.37 310.04 710.997 310.467 712.65 310.84C716.703 311.693 719.85 312.547 722.09 313.4C724.383 314.253 725.53 315.533 725.53 317.24C725.53 318.253 725.29 319.107 724.81 319.8C724.33 320.44 723.717 320.973 722.97 321.4C722.277 321.773 721.477 322.067 720.57 322.28C719.717 322.44 718.89 322.52 718.09 322.52C716.97 322.52 715.877 322.387 714.81 322.12C713.797 321.853 712.89 321.453 712.09 320.92C711.29 320.333 710.623 319.613 710.09 318.76C709.61 317.853 709.37 316.787 709.37 315.56ZM771.379 303.88H752.899C752.952 303.08 753.112 302.173 753.379 301.16C753.699 300.147 754.205 299.187 754.899 298.28C755.645 297.373 756.605 296.627 757.779 296.04C759.005 295.4 760.525 295.08 762.339 295.08C765.112 295.08 767.165 295.827 768.499 297.32C769.885 298.813 770.845 301 771.379 303.88ZM752.899 311.08H782.739C782.952 307.88 782.685 304.813 781.939 301.88C781.192 298.947 779.965 296.333 778.259 294.04C776.605 291.747 774.472 289.933 771.859 288.6C769.245 287.213 766.179 286.52 762.659 286.52C759.512 286.52 756.632 287.08 754.019 288.2C751.459 289.32 749.245 290.867 747.379 292.84C745.512 294.76 744.072 297.053 743.059 299.72C742.045 302.387 741.539 305.267 741.539 308.36C741.539 311.56 742.019 314.493 742.979 317.16C743.992 319.827 745.405 322.12 747.219 324.04C749.032 325.96 751.245 327.453 753.859 328.52C756.472 329.533 759.405 330.04 762.659 330.04C767.352 330.04 771.352 328.973 774.659 326.84C777.965 324.707 780.419 321.16 782.019 316.2H772.019C771.645 317.48 770.632 318.707 768.979 319.88C767.325 321 765.352 321.56 763.059 321.56C759.859 321.56 757.405 320.733 755.699 319.08C753.992 317.427 753.059 314.76 752.899 311.08ZM788.996 300.36C789.156 297.693 789.823 295.48 790.996 293.72C792.17 291.96 793.663 290.547 795.476 289.48C797.29 288.413 799.316 287.667 801.556 287.24C803.85 286.76 806.143 286.52 808.436 286.52C810.516 286.52 812.623 286.68 814.756 287C816.89 287.267 818.836 287.827 820.596 288.68C822.356 289.533 823.796 290.733 824.916 292.28C826.036 293.773 826.596 295.773 826.596 298.28V319.8C826.596 321.667 826.703 323.453 826.916 325.16C827.13 326.867 827.503 328.147 828.036 329H816.516C816.303 328.36 816.116 327.72 815.956 327.08C815.85 326.387 815.77 325.693 815.716 325C813.903 326.867 811.77 328.173 809.316 328.92C806.863 329.667 804.356 330.04 801.796 330.04C799.823 330.04 797.983 329.8 796.276 329.32C794.57 328.84 793.076 328.093 791.796 327.08C790.516 326.067 789.503 324.787 788.756 323.24C788.063 321.693 787.716 319.853 787.716 317.72C787.716 315.373 788.116 313.453 788.916 311.96C789.77 310.413 790.836 309.187 792.116 308.28C793.45 307.373 794.943 306.707 796.596 306.28C798.303 305.8 800.01 305.427 801.716 305.16C803.423 304.893 805.103 304.68 806.756 304.52C808.41 304.36 809.876 304.12 811.156 303.8C812.436 303.48 813.45 303.027 814.196 302.44C814.943 301.8 815.29 300.893 815.236 299.72C815.236 298.493 815.023 297.533 814.596 296.84C814.223 296.093 813.69 295.533 812.996 295.16C812.356 294.733 811.583 294.467 810.676 294.36C809.823 294.2 808.89 294.12 807.876 294.12C805.636 294.12 803.876 294.6 802.596 295.56C801.316 296.52 800.57 298.12 800.356 300.36H788.996ZM815.236 308.76C814.756 309.187 814.143 309.533 813.396 309.8C812.703 310.013 811.93 310.2 811.076 310.36C810.276 310.52 809.423 310.653 808.516 310.76C807.61 310.867 806.703 311 805.796 311.16C804.943 311.32 804.09 311.533 803.236 311.8C802.436 312.067 801.716 312.44 801.076 312.92C800.49 313.347 800.01 313.907 799.636 314.6C799.263 315.293 799.076 316.173 799.076 317.24C799.076 318.253 799.263 319.107 799.636 319.8C800.01 320.493 800.516 321.053 801.156 321.48C801.796 321.853 802.543 322.12 803.396 322.28C804.25 322.44 805.13 322.52 806.036 322.52C808.276 322.52 810.01 322.147 811.236 321.4C812.463 320.653 813.37 319.773 813.956 318.76C814.543 317.693 814.89 316.627 814.996 315.56C815.156 314.493 815.236 313.64 815.236 313V308.76ZM835.414 287.64V329H846.774V310.36C846.774 308.493 846.96 306.76 847.334 305.16C847.707 303.56 848.32 302.173 849.174 301C850.08 299.773 851.254 298.813 852.694 298.12C854.134 297.427 855.894 297.08 857.974 297.08C858.667 297.08 859.387 297.133 860.134 297.24C860.88 297.293 861.52 297.373 862.054 297.48V286.92C861.147 286.653 860.32 286.52 859.574 286.52C858.134 286.52 856.747 286.733 855.414 287.16C854.08 287.587 852.827 288.2 851.654 289C850.48 289.747 849.44 290.68 848.534 291.8C847.627 292.867 846.907 294.04 846.374 295.32H846.214V287.64H835.414ZM893.261 302.2H904.381C904.221 299.533 903.581 297.24 902.461 295.32C901.341 293.347 899.875 291.72 898.061 290.44C896.301 289.107 894.275 288.12 891.981 287.48C889.741 286.84 887.395 286.52 884.941 286.52C881.581 286.52 878.595 287.08 875.981 288.2C873.368 289.32 871.155 290.893 869.341 292.92C867.528 294.893 866.141 297.267 865.181 300.04C864.275 302.76 863.821 305.72 863.821 308.92C863.821 312.013 864.328 314.867 865.341 317.48C866.355 320.04 867.768 322.253 869.581 324.12C871.395 325.987 873.581 327.453 876.141 328.52C878.755 329.533 881.608 330.04 884.701 330.04C890.195 330.04 894.701 328.6 898.221 325.72C901.741 322.84 903.875 318.653 904.621 313.16H893.661C893.288 315.72 892.355 317.773 890.861 319.32C889.421 320.813 887.341 321.56 884.621 321.56C882.861 321.56 881.368 321.16 880.141 320.36C878.915 319.56 877.928 318.547 877.181 317.32C876.488 316.04 875.981 314.627 875.661 313.08C875.341 311.533 875.181 310.013 875.181 308.52C875.181 306.973 875.341 305.427 875.661 303.88C875.981 302.28 876.515 300.84 877.261 299.56C878.061 298.227 879.075 297.16 880.301 296.36C881.528 295.507 883.048 295.08 884.861 295.08C889.715 295.08 892.515 297.453 893.261 302.2ZM911.039 271.88V329H922.399V307.32C922.399 303.107 923.092 300.093 924.479 298.28C925.865 296.413 928.105 295.48 931.199 295.48C933.919 295.48 935.812 296.333 936.879 298.04C937.945 299.693 938.479 302.227 938.479 305.64V329H949.839V303.56C949.839 301 949.599 298.68 949.119 296.6C948.692 294.467 947.919 292.68 946.799 291.24C945.679 289.747 944.132 288.6 942.159 287.8C940.239 286.947 937.759 286.52 934.719 286.52C932.585 286.52 930.399 287.08 928.159 288.2C925.919 289.267 924.079 291 922.639 293.4H922.399V271.88H911.039ZM959.021 316.68V329H964.781C964.834 329.853 964.727 330.68 964.461 331.48C964.194 332.333 963.794 333.08 963.261 333.72C962.727 334.413 962.087 335 961.341 335.48C960.647 335.96 959.901 336.28 959.101 336.44V342.2C960.807 341.933 962.407 341.427 963.901 340.68C965.447 339.987 966.781 339.08 967.901 337.96C969.021 336.84 969.901 335.507 970.541 333.96C971.234 332.467 971.581 330.813 971.581 329V316.68H959.021ZM103.76 386.2C103.76 384.92 103.973 383.8 104.4 382.84C104.88 381.88 105.52 381.08 106.32 380.44C107.12 379.8 108.027 379.32 109.04 379C110.107 378.627 111.2 378.44 112.32 378.44C114.08 378.44 115.493 378.707 116.56 379.24C117.68 379.773 118.533 380.44 119.12 381.24C119.76 382.04 120.187 382.893 120.4 383.8C120.613 384.653 120.72 385.453 120.72 386.2C120.72 388.6 119.92 390.44 118.32 391.72C116.72 392.947 114.72 393.56 112.32 393.56C110.027 393.56 108.027 392.947 106.32 391.72C104.613 390.44 103.76 388.6 103.76 386.2ZM93.44 385.16C93.44 387.933 94.1333 390.36 95.52 392.44C96.9067 394.52 98.96 395.933 101.68 396.68V396.84C98.32 397.64 95.7067 399.24 93.84 401.64C92.0267 404.04 91.12 407.027 91.12 410.6C91.12 413.64 91.7067 416.253 92.88 418.44C94.1067 420.627 95.7067 422.44 97.68 423.88C99.7067 425.32 101.973 426.36 104.48 427C107.04 427.693 109.68 428.04 112.4 428.04C115.013 428.04 117.573 427.693 120.08 427C122.587 426.253 124.827 425.16 126.8 423.72C128.773 422.28 130.347 420.467 131.52 418.28C132.747 416.093 133.36 413.507 133.36 410.52C133.36 407 132.453 404.04 130.64 401.64C128.827 399.187 126.24 397.587 122.88 396.84V396.68C125.6 395.773 127.627 394.28 128.96 392.2C130.347 390.12 131.04 387.693 131.04 384.92C131.04 383.533 130.72 381.987 130.08 380.28C129.44 378.52 128.373 376.893 126.88 375.4C125.44 373.853 123.52 372.547 121.12 371.48C118.72 370.413 115.787 369.88 112.32 369.88C110.027 369.88 107.76 370.2 105.52 370.84C103.28 371.48 101.253 372.44 99.44 373.72C97.68 375 96.24 376.6 95.12 378.52C94 380.44 93.44 382.653 93.44 385.16ZM102.48 410.04C102.48 407.16 103.44 404.973 105.36 403.48C107.28 401.933 109.627 401.16 112.4 401.16C113.733 401.16 114.96 401.373 116.08 401.8C117.253 402.227 118.267 402.84 119.12 403.64C120.027 404.44 120.72 405.4 121.2 406.52C121.733 407.587 122 408.787 122 410.12C122 411.507 121.76 412.787 121.28 413.96C120.8 415.133 120.107 416.147 119.2 417C118.347 417.8 117.333 418.44 116.16 418.92C115.04 419.347 113.787 419.56 112.4 419.56C111.067 419.56 109.787 419.347 108.56 418.92C107.333 418.44 106.267 417.8 105.36 417C104.507 416.147 103.813 415.133 103.28 413.96C102.747 412.787 102.48 411.48 102.48 410.04ZM159.413 385.24V404.68H144.693L159.173 385.24H159.413ZM159.413 414.04V427H170.213V414.04H177.653V404.68H170.213V371H160.053L135.733 403.64V414.04H159.413ZM234.346 412.44C234.346 411.533 234.373 410.52 234.426 409.4C234.533 408.28 234.773 407.24 235.146 406.28C235.52 405.32 236.053 404.52 236.746 403.88C237.493 403.24 238.506 402.92 239.786 402.92C240.96 402.92 241.866 403.293 242.506 404.04C243.2 404.733 243.706 405.587 244.026 406.6C244.346 407.56 244.533 408.6 244.586 409.72C244.693 410.787 244.746 411.72 244.746 412.52C244.746 413.373 244.693 414.36 244.586 415.48C244.533 416.547 244.32 417.587 243.946 418.6C243.626 419.56 243.093 420.387 242.346 421.08C241.653 421.773 240.693 422.12 239.466 422.12C238.186 422.12 237.2 421.773 236.506 421.08C235.813 420.387 235.306 419.56 234.986 418.6C234.666 417.587 234.48 416.52 234.426 415.4C234.373 414.28 234.346 413.293 234.346 412.44ZM226.186 412.36C226.186 414.547 226.4 416.6 226.826 418.52C227.306 420.44 228.053 422.12 229.066 423.56C230.133 424.947 231.493 426.04 233.146 426.84C234.853 427.64 236.933 428.04 239.386 428.04C241.733 428.04 243.76 427.667 245.466 426.92C247.173 426.12 248.56 425.027 249.626 423.64C250.746 422.253 251.573 420.627 252.106 418.76C252.64 416.893 252.906 414.867 252.906 412.68C252.906 410.493 252.693 408.44 252.266 406.52C251.84 404.6 251.093 402.947 250.026 401.56C249.013 400.12 247.68 399 246.026 398.2C244.373 397.347 242.293 396.92 239.786 396.92C237.44 396.92 235.413 397.32 233.706 398.12C232 398.92 230.586 400.013 229.466 401.4C228.346 402.787 227.52 404.413 226.986 406.28C226.453 408.147 226.186 410.173 226.186 412.36ZM232.346 369.24L199.226 428.68H206.186L239.146 369.24H232.346ZM193.066 385.88C193.066 384.973 193.093 383.933 193.146 382.76C193.253 381.587 193.493 380.493 193.866 379.48C194.24 378.467 194.773 377.613 195.466 376.92C196.213 376.227 197.226 375.88 198.506 375.88C199.68 375.88 200.586 376.253 201.226 377C201.92 377.747 202.426 378.653 202.746 379.72C203.066 380.787 203.253 381.907 203.306 383.08C203.413 384.2 203.466 385.16 203.466 385.96C203.466 386.813 203.413 387.773 203.306 388.84C203.253 389.853 203.04 390.84 202.666 391.8C202.346 392.707 201.813 393.48 201.066 394.12C200.373 394.76 199.413 395.08 198.186 395.08C196.906 395.08 195.92 394.76 195.226 394.12C194.533 393.48 194.026 392.707 193.706 391.8C193.386 390.84 193.2 389.827 193.146 388.76C193.093 387.693 193.066 386.733 193.066 385.88ZM184.906 385.72C184.906 387.907 185.12 389.96 185.546 391.88C186.026 393.747 186.773 395.373 187.786 396.76C188.853 398.093 190.213 399.16 191.866 399.96C193.573 400.707 195.653 401.08 198.106 401.08C200.453 401.08 202.48 400.707 204.186 399.96C205.893 399.213 207.28 398.173 208.346 396.84C209.466 395.507 210.293 393.933 210.826 392.12C211.36 390.253 211.626 388.227 211.626 386.04C211.626 383.853 211.413 381.773 210.986 379.8C210.56 377.827 209.813 376.12 208.746 374.68C207.733 373.187 206.4 372.013 204.746 371.16C203.093 370.307 201.013 369.88 198.506 369.88C196.16 369.88 194.133 370.307 192.426 371.16C190.72 371.96 189.306 373.08 188.186 374.52C187.066 375.96 186.24 377.64 185.706 379.56C185.173 381.48 184.906 383.533 184.906 385.72ZM285.012 398.36C285.172 395.693 285.839 393.48 287.012 391.72C288.185 389.96 289.679 388.547 291.492 387.48C293.305 386.413 295.332 385.667 297.572 385.24C299.865 384.76 302.159 384.52 304.452 384.52C306.532 384.52 308.639 384.68 310.772 385C312.905 385.267 314.852 385.827 316.612 386.68C318.372 387.533 319.812 388.733 320.932 390.28C322.052 391.773 322.612 393.773 322.612 396.28V417.8C322.612 419.667 322.719 421.453 322.932 423.16C323.145 424.867 323.519 426.147 324.052 427H312.532C312.319 426.36 312.132 425.72 311.972 425.08C311.865 424.387 311.785 423.693 311.732 423C309.919 424.867 307.785 426.173 305.332 426.92C302.879 427.667 300.372 428.04 297.812 428.04C295.839 428.04 293.999 427.8 292.292 427.32C290.585 426.84 289.092 426.093 287.812 425.08C286.532 424.067 285.519 422.787 284.772 421.24C284.079 419.693 283.732 417.853 283.732 415.72C283.732 413.373 284.132 411.453 284.932 409.96C285.785 408.413 286.852 407.187 288.132 406.28C289.465 405.373 290.959 404.707 292.612 404.28C294.319 403.8 296.025 403.427 297.732 403.16C299.439 402.893 301.119 402.68 302.772 402.52C304.425 402.36 305.892 402.12 307.172 401.8C308.452 401.48 309.465 401.027 310.212 400.44C310.959 399.8 311.305 398.893 311.252 397.72C311.252 396.493 311.039 395.533 310.612 394.84C310.239 394.093 309.705 393.533 309.012 393.16C308.372 392.733 307.599 392.467 306.692 392.36C305.839 392.2 304.905 392.12 303.892 392.12C301.652 392.12 299.892 392.6 298.612 393.56C297.332 394.52 296.585 396.12 296.372 398.36H285.012ZM311.252 406.76C310.772 407.187 310.159 407.533 309.412 407.8C308.719 408.013 307.945 408.2 307.092 408.36C306.292 408.52 305.439 408.653 304.532 408.76C303.625 408.867 302.719 409 301.812 409.16C300.959 409.32 300.105 409.533 299.252 409.8C298.452 410.067 297.732 410.44 297.092 410.92C296.505 411.347 296.025 411.907 295.652 412.6C295.279 413.293 295.092 414.173 295.092 415.24C295.092 416.253 295.279 417.107 295.652 417.8C296.025 418.493 296.532 419.053 297.172 419.48C297.812 419.853 298.559 420.12 299.412 420.28C300.265 420.44 301.145 420.52 302.052 420.52C304.292 420.52 306.025 420.147 307.252 419.4C308.479 418.653 309.385 417.773 309.972 416.76C310.559 415.693 310.905 414.627 311.012 413.56C311.172 412.493 311.252 411.64 311.252 411V406.76ZM331.429 385.64V427H342.789V408.36C342.789 406.493 342.976 404.76 343.349 403.16C343.723 401.56 344.336 400.173 345.189 399C346.096 397.773 347.269 396.813 348.709 396.12C350.149 395.427 351.909 395.08 353.989 395.08C354.683 395.08 355.403 395.133 356.149 395.24C356.896 395.293 357.536 395.373 358.069 395.48V384.92C357.163 384.653 356.336 384.52 355.589 384.52C354.149 384.52 352.763 384.733 351.429 385.16C350.096 385.587 348.843 386.2 347.669 387C346.496 387.747 345.456 388.68 344.549 389.8C343.643 390.867 342.923 392.04 342.389 393.32H342.229V385.64H331.429ZM388.957 401.88H370.477C370.53 401.08 370.69 400.173 370.957 399.16C371.277 398.147 371.784 397.187 372.477 396.28C373.224 395.373 374.184 394.627 375.357 394.04C376.584 393.4 378.104 393.08 379.917 393.08C382.69 393.08 384.744 393.827 386.077 395.32C387.464 396.813 388.424 399 388.957 401.88ZM370.477 409.08H400.317C400.53 405.88 400.264 402.813 399.517 399.88C398.77 396.947 397.544 394.333 395.837 392.04C394.184 389.747 392.05 387.933 389.437 386.6C386.824 385.213 383.757 384.52 380.237 384.52C377.09 384.52 374.21 385.08 371.597 386.2C369.037 387.32 366.824 388.867 364.957 390.84C363.09 392.76 361.65 395.053 360.637 397.72C359.624 400.387 359.117 403.267 359.117 406.36C359.117 409.56 359.597 412.493 360.557 415.16C361.57 417.827 362.984 420.12 364.797 422.04C366.61 423.96 368.824 425.453 371.437 426.52C374.05 427.533 376.984 428.04 380.237 428.04C384.93 428.04 388.93 426.973 392.237 424.84C395.544 422.707 397.997 419.16 399.597 414.2H389.597C389.224 415.48 388.21 416.707 386.557 417.88C384.904 419 382.93 419.56 380.637 419.56C377.437 419.56 374.984 418.733 373.277 417.08C371.57 415.427 370.637 412.76 370.477 409.08ZM429.64 385.64V427H441V403C441 400.973 441.293 399.347 441.88 398.12C442.467 396.84 443.16 395.88 443.96 395.24C444.813 394.547 445.667 394.093 446.52 393.88C447.427 393.613 448.147 393.48 448.68 393.48C450.493 393.48 451.853 393.8 452.76 394.44C453.72 395.027 454.387 395.827 454.76 396.84C455.187 397.853 455.427 398.973 455.48 400.2C455.533 401.373 455.56 402.573 455.56 403.8V427H466.92V403.96C466.92 402.68 467 401.427 467.16 400.2C467.373 398.92 467.747 397.8 468.28 396.84C468.867 395.827 469.64 395.027 470.6 394.44C471.613 393.8 472.92 393.48 474.52 393.48C476.12 393.48 477.373 393.747 478.28 394.28C479.24 394.813 479.96 395.533 480.44 396.44C480.92 397.347 481.213 398.413 481.32 399.64C481.427 400.867 481.48 402.173 481.48 403.56V427H492.84V399.32C492.84 396.653 492.467 394.387 491.72 392.52C490.973 390.6 489.933 389.053 488.6 387.88C487.267 386.707 485.667 385.853 483.8 385.32C481.933 384.787 479.907 384.52 477.72 384.52C474.84 384.52 472.333 385.213 470.2 386.6C468.12 387.987 466.467 389.587 465.24 391.4C464.12 388.84 462.467 387.053 460.28 386.04C458.147 385.027 455.773 384.52 453.16 384.52C450.44 384.52 448.013 385.107 445.88 386.28C443.8 387.453 442.013 389.107 440.52 391.24H440.36V385.64H429.64ZM501.34 398.36C501.5 395.693 502.167 393.48 503.34 391.72C504.513 389.96 506.007 388.547 507.82 387.48C509.633 386.413 511.66 385.667 513.9 385.24C516.193 384.76 518.487 384.52 520.78 384.52C522.86 384.52 524.967 384.68 527.1 385C529.233 385.267 531.18 385.827 532.94 386.68C534.7 387.533 536.14 388.733 537.26 390.28C538.38 391.773 538.94 393.773 538.94 396.28V417.8C538.94 419.667 539.047 421.453 539.26 423.16C539.473 424.867 539.847 426.147 540.38 427H528.86C528.647 426.36 528.46 425.72 528.3 425.08C528.193 424.387 528.113 423.693 528.06 423C526.247 424.867 524.113 426.173 521.66 426.92C519.207 427.667 516.7 428.04 514.14 428.04C512.167 428.04 510.327 427.8 508.62 427.32C506.913 426.84 505.42 426.093 504.14 425.08C502.86 424.067 501.847 422.787 501.1 421.24C500.407 419.693 500.06 417.853 500.06 415.72C500.06 413.373 500.46 411.453 501.26 409.96C502.113 408.413 503.18 407.187 504.46 406.28C505.793 405.373 507.287 404.707 508.94 404.28C510.647 403.8 512.353 403.427 514.06 403.16C515.767 402.893 517.447 402.68 519.1 402.52C520.753 402.36 522.22 402.12 523.5 401.8C524.78 401.48 525.793 401.027 526.54 400.44C527.287 399.8 527.633 398.893 527.58 397.72C527.58 396.493 527.367 395.533 526.94 394.84C526.567 394.093 526.033 393.533 525.34 393.16C524.7 392.733 523.927 392.467 523.02 392.36C522.167 392.2 521.233 392.12 520.22 392.12C517.98 392.12 516.22 392.6 514.94 393.56C513.66 394.52 512.913 396.12 512.7 398.36H501.34ZM527.58 406.76C527.1 407.187 526.487 407.533 525.74 407.8C525.047 408.013 524.273 408.2 523.42 408.36C522.62 408.52 521.767 408.653 520.86 408.76C519.953 408.867 519.047 409 518.14 409.16C517.287 409.32 516.433 409.533 515.58 409.8C514.78 410.067 514.06 410.44 513.42 410.92C512.833 411.347 512.353 411.907 511.98 412.6C511.607 413.293 511.42 414.173 511.42 415.24C511.42 416.253 511.607 417.107 511.98 417.8C512.353 418.493 512.86 419.053 513.5 419.48C514.14 419.853 514.887 420.12 515.74 420.28C516.593 420.44 517.473 420.52 518.38 420.52C520.62 420.52 522.353 420.147 523.58 419.4C524.807 418.653 525.713 417.773 526.3 416.76C526.887 415.693 527.233 414.627 527.34 413.56C527.5 412.493 527.58 411.64 527.58 411V406.76ZM548.078 369.88V427H559.438V369.88H548.078ZM596.223 401.88H577.743C577.796 401.08 577.956 400.173 578.223 399.16C578.543 398.147 579.049 397.187 579.743 396.28C580.489 395.373 581.449 394.627 582.623 394.04C583.849 393.4 585.369 393.08 587.183 393.08C589.956 393.08 592.009 393.827 593.343 395.32C594.729 396.813 595.689 399 596.223 401.88ZM577.743 409.08H607.583C607.796 405.88 607.529 402.813 606.783 399.88C606.036 396.947 604.809 394.333 603.103 392.04C601.449 389.747 599.316 387.933 596.703 386.6C594.089 385.213 591.023 384.52 587.503 384.52C584.356 384.52 581.476 385.08 578.863 386.2C576.303 387.32 574.089 388.867 572.223 390.84C570.356 392.76 568.916 395.053 567.903 397.72C566.889 400.387 566.383 403.267 566.383 406.36C566.383 409.56 566.863 412.493 567.823 415.16C568.836 417.827 570.249 420.12 572.063 422.04C573.876 423.96 576.089 425.453 578.703 426.52C581.316 427.533 584.249 428.04 587.503 428.04C592.196 428.04 596.196 426.973 599.503 424.84C602.809 422.707 605.263 419.16 606.863 414.2H596.863C596.489 415.48 595.476 416.707 593.823 417.88C592.169 419 590.196 419.56 587.903 419.56C584.703 419.56 582.249 418.733 580.543 417.08C578.836 415.427 577.903 412.76 577.743 409.08ZM636.106 398.36C636.266 395.693 636.932 393.48 638.106 391.72C639.279 389.96 640.772 388.547 642.586 387.48C644.399 386.413 646.426 385.667 648.666 385.24C650.959 384.76 653.252 384.52 655.546 384.52C657.626 384.52 659.732 384.68 661.866 385C663.999 385.267 665.946 385.827 667.706 386.68C669.466 387.533 670.906 388.733 672.026 390.28C673.146 391.773 673.706 393.773 673.706 396.28V417.8C673.706 419.667 673.812 421.453 674.026 423.16C674.239 424.867 674.612 426.147 675.146 427H663.626C663.412 426.36 663.226 425.72 663.066 425.08C662.959 424.387 662.879 423.693 662.826 423C661.012 424.867 658.879 426.173 656.426 426.92C653.972 427.667 651.466 428.04 648.906 428.04C646.932 428.04 645.092 427.8 643.386 427.32C641.679 426.84 640.186 426.093 638.906 425.08C637.626 424.067 636.612 422.787 635.866 421.24C635.172 419.693 634.826 417.853 634.826 415.72C634.826 413.373 635.226 411.453 636.026 409.96C636.879 408.413 637.946 407.187 639.226 406.28C640.559 405.373 642.052 404.707 643.706 404.28C645.412 403.8 647.119 403.427 648.826 403.16C650.532 402.893 652.212 402.68 653.866 402.52C655.519 402.36 656.986 402.12 658.266 401.8C659.546 401.48 660.559 401.027 661.306 400.44C662.052 399.8 662.399 398.893 662.346 397.72C662.346 396.493 662.132 395.533 661.706 394.84C661.332 394.093 660.799 393.533 660.106 393.16C659.466 392.733 658.692 392.467 657.786 392.36C656.932 392.2 655.999 392.12 654.986 392.12C652.746 392.12 650.986 392.6 649.706 393.56C648.426 394.52 647.679 396.12 647.466 398.36H636.106ZM662.346 406.76C661.866 407.187 661.252 407.533 660.506 407.8C659.812 408.013 659.039 408.2 658.186 408.36C657.386 408.52 656.532 408.653 655.626 408.76C654.719 408.867 653.812 409 652.906 409.16C652.052 409.32 651.199 409.533 650.346 409.8C649.546 410.067 648.826 410.44 648.186 410.92C647.599 411.347 647.119 411.907 646.746 412.6C646.372 413.293 646.186 414.173 646.186 415.24C646.186 416.253 646.372 417.107 646.746 417.8C647.119 418.493 647.626 419.053 648.266 419.48C648.906 419.853 649.652 420.12 650.506 420.28C651.359 420.44 652.239 420.52 653.146 420.52C655.386 420.52 657.119 420.147 658.346 419.4C659.572 418.653 660.479 417.773 661.066 416.76C661.652 415.693 661.999 414.627 662.106 413.56C662.266 412.493 662.346 411.64 662.346 411V406.76ZM682.523 385.64V427H693.883V405.32C693.883 401.107 694.576 398.093 695.963 396.28C697.35 394.413 699.59 393.48 702.683 393.48C705.403 393.48 707.296 394.333 708.363 396.04C709.43 397.693 709.963 400.227 709.963 403.64V427H721.323V401.56C721.323 399 721.083 396.68 720.603 394.6C720.176 392.467 719.403 390.68 718.283 389.24C717.163 387.747 715.616 386.6 713.643 385.8C711.723 384.947 709.243 384.52 706.203 384.52C703.803 384.52 701.456 385.08 699.163 386.2C696.87 387.267 695.003 389 693.563 391.4H693.323V385.64H682.523ZM759.305 406.2C759.305 407.907 759.145 409.56 758.825 411.16C758.505 412.76 757.972 414.2 757.225 415.48C756.478 416.707 755.465 417.693 754.185 418.44C752.958 419.187 751.412 419.56 749.545 419.56C747.785 419.56 746.265 419.187 744.985 418.44C743.758 417.64 742.718 416.627 741.865 415.4C741.065 414.12 740.478 412.68 740.105 411.08C739.732 409.48 739.545 407.88 739.545 406.28C739.545 404.573 739.705 402.947 740.025 401.4C740.398 399.8 740.958 398.387 741.705 397.16C742.505 395.933 743.545 394.947 744.825 394.2C746.105 393.453 747.678 393.08 749.545 393.08C751.412 393.08 752.958 393.453 754.185 394.2C755.412 394.947 756.398 395.933 757.145 397.16C757.945 398.333 758.505 399.72 758.825 401.32C759.145 402.867 759.305 404.493 759.305 406.2ZM759.465 421.72V427H770.265V369.88H758.905V390.68H758.745C757.465 388.653 755.705 387.133 753.465 386.12C751.278 385.053 748.958 384.52 746.505 384.52C743.465 384.52 740.798 385.133 738.505 386.36C736.212 387.533 734.292 389.107 732.745 391.08C731.252 393.053 730.105 395.347 729.305 397.96C728.558 400.52 728.185 403.187 728.185 405.96C728.185 408.84 728.558 411.613 729.305 414.28C730.105 416.947 731.252 419.32 732.745 421.4C734.292 423.427 736.238 425.053 738.585 426.28C740.932 427.453 743.652 428.04 746.745 428.04C749.465 428.04 751.892 427.56 754.025 426.6C756.212 425.587 757.972 423.96 759.305 421.72H759.465ZM121.36 525V469H112.32C112 471.133 111.333 472.92 110.32 474.36C109.307 475.8 108.053 476.973 106.56 477.88C105.12 478.733 103.467 479.347 101.6 479.72C99.7867 480.04 97.8933 480.173 95.92 480.12V488.68H110V525H121.36ZM157.333 495.96C158.773 495.96 160.026 496.28 161.093 496.92C162.213 497.507 163.12 498.307 163.813 499.32C164.506 500.28 165.013 501.4 165.333 502.68C165.706 503.907 165.893 505.187 165.893 506.52C165.893 507.8 165.706 509.053 165.333 510.28C164.96 511.507 164.4 512.6 163.653 513.56C162.906 514.52 162 515.293 160.933 515.88C159.92 516.467 158.72 516.76 157.333 516.76C155.893 516.76 154.613 516.467 153.493 515.88C152.373 515.293 151.413 514.52 150.613 513.56C149.866 512.547 149.28 511.427 148.853 510.2C148.48 508.92 148.293 507.64 148.293 506.36C148.293 504.973 148.48 503.667 148.853 502.44C149.226 501.16 149.786 500.04 150.533 499.08C151.28 498.12 152.213 497.373 153.333 496.84C154.506 496.253 155.84 495.96 157.333 495.96ZM165.493 483.4H176.293C175.973 480.893 175.306 478.68 174.293 476.76C173.28 474.84 171.973 473.24 170.373 471.96C168.773 470.627 166.933 469.613 164.853 468.92C162.773 468.227 160.533 467.88 158.133 467.88C154.133 467.88 150.746 468.76 147.973 470.52C145.2 472.28 142.933 474.573 141.173 477.4C139.413 480.173 138.133 483.293 137.333 486.76C136.533 490.227 136.133 493.693 136.133 497.16C136.133 500.733 136.453 504.253 137.093 507.72C137.733 511.133 138.88 514.2 140.533 516.92C142.186 519.64 144.4 521.853 147.173 523.56C149.946 525.213 153.44 526.04 157.653 526.04C160.586 526.04 163.253 525.533 165.653 524.52C168.053 523.453 170.106 522.013 171.813 520.2C173.573 518.333 174.906 516.173 175.813 513.72C176.773 511.213 177.253 508.52 177.253 505.64C177.253 503.4 176.906 501.187 176.213 499C175.52 496.813 174.426 494.867 172.933 493.16C171.333 491.4 169.386 490.013 167.093 489C164.8 487.933 162.453 487.4 160.053 487.4C157.333 487.4 154.933 487.88 152.853 488.84C150.773 489.8 148.96 491.4 147.413 493.64L147.253 493.48C147.306 491.933 147.52 490.173 147.893 488.2C148.266 486.227 148.853 484.387 149.653 482.68C150.453 480.92 151.52 479.453 152.853 478.28C154.24 477.053 155.946 476.44 157.973 476.44C159.946 476.44 161.6 477.133 162.933 478.52C164.266 479.907 165.12 481.533 165.493 483.4ZM234.346 510.44C234.346 509.533 234.373 508.52 234.426 507.4C234.533 506.28 234.773 505.24 235.146 504.28C235.52 503.32 236.053 502.52 236.746 501.88C237.493 501.24 238.506 500.92 239.786 500.92C240.96 500.92 241.866 501.293 242.506 502.04C243.2 502.733 243.706 503.587 244.026 504.6C244.346 505.56 244.533 506.6 244.586 507.72C244.693 508.787 244.746 509.72 244.746 510.52C244.746 511.373 244.693 512.36 244.586 513.48C244.533 514.547 244.32 515.587 243.946 516.6C243.626 517.56 243.093 518.387 242.346 519.08C241.653 519.773 240.693 520.12 239.466 520.12C238.186 520.12 237.2 519.773 236.506 519.08C235.813 518.387 235.306 517.56 234.986 516.6C234.666 515.587 234.48 514.52 234.426 513.4C234.373 512.28 234.346 511.293 234.346 510.44ZM226.186 510.36C226.186 512.547 226.4 514.6 226.826 516.52C227.306 518.44 228.053 520.12 229.066 521.56C230.133 522.947 231.493 524.04 233.146 524.84C234.853 525.64 236.933 526.04 239.386 526.04C241.733 526.04 243.76 525.667 245.466 524.92C247.173 524.12 248.56 523.027 249.626 521.64C250.746 520.253 251.573 518.627 252.106 516.76C252.64 514.893 252.906 512.867 252.906 510.68C252.906 508.493 252.693 506.44 252.266 504.52C251.84 502.6 251.093 500.947 250.026 499.56C249.013 498.12 247.68 497 246.026 496.2C244.373 495.347 242.293 494.92 239.786 494.92C237.44 494.92 235.413 495.32 233.706 496.12C232 496.92 230.586 498.013 229.466 499.4C228.346 500.787 227.52 502.413 226.986 504.28C226.453 506.147 226.186 508.173 226.186 510.36ZM232.346 467.24L199.226 526.68H206.186L239.146 467.24H232.346ZM193.066 483.88C193.066 482.973 193.093 481.933 193.146 480.76C193.253 479.587 193.493 478.493 193.866 477.48C194.24 476.467 194.773 475.613 195.466 474.92C196.213 474.227 197.226 473.88 198.506 473.88C199.68 473.88 200.586 474.253 201.226 475C201.92 475.747 202.426 476.653 202.746 477.72C203.066 478.787 203.253 479.907 203.306 481.08C203.413 482.2 203.466 483.16 203.466 483.96C203.466 484.813 203.413 485.773 203.306 486.84C203.253 487.853 203.04 488.84 202.666 489.8C202.346 490.707 201.813 491.48 201.066 492.12C200.373 492.76 199.413 493.08 198.186 493.08C196.906 493.08 195.92 492.76 195.226 492.12C194.533 491.48 194.026 490.707 193.706 489.8C193.386 488.84 193.2 487.827 193.146 486.76C193.093 485.693 193.066 484.733 193.066 483.88ZM184.906 483.72C184.906 485.907 185.12 487.96 185.546 489.88C186.026 491.747 186.773 493.373 187.786 494.76C188.853 496.093 190.213 497.16 191.866 497.96C193.573 498.707 195.653 499.08 198.106 499.08C200.453 499.08 202.48 498.707 204.186 497.96C205.893 497.213 207.28 496.173 208.346 494.84C209.466 493.507 210.293 491.933 210.826 490.12C211.36 488.253 211.626 486.227 211.626 484.04C211.626 481.853 211.413 479.773 210.986 477.8C210.56 475.827 209.813 474.12 208.746 472.68C207.733 471.187 206.4 470.013 204.746 469.16C203.093 468.307 201.013 467.88 198.506 467.88C196.16 467.88 194.133 468.307 192.426 469.16C190.72 469.96 189.306 471.08 188.186 472.52C187.066 473.96 186.24 475.64 185.706 477.56C185.173 479.48 184.906 481.533 184.906 483.72ZM287.972 491.24V525H299.332V491.24H307.172V483.64H299.332V481.16C299.332 479.453 299.652 478.253 300.292 477.56C300.985 476.813 302.105 476.44 303.652 476.44C305.092 476.44 306.479 476.52 307.812 476.68V468.2C306.852 468.147 305.865 468.093 304.852 468.04C303.839 467.933 302.825 467.88 301.812 467.88C297.172 467.88 293.705 469.053 291.412 471.4C289.119 473.747 287.972 476.76 287.972 480.44V483.64H281.172V491.24H287.972ZM339.973 499.88H321.493C321.546 499.08 321.706 498.173 321.973 497.16C322.293 496.147 322.799 495.187 323.493 494.28C324.239 493.373 325.199 492.627 326.373 492.04C327.599 491.4 329.119 491.08 330.933 491.08C333.706 491.08 335.759 491.827 337.093 493.32C338.479 494.813 339.439 497 339.973 499.88ZM321.493 507.08H351.333C351.546 503.88 351.279 500.813 350.533 497.88C349.786 494.947 348.559 492.333 346.853 490.04C345.199 487.747 343.066 485.933 340.453 484.6C337.839 483.213 334.773 482.52 331.253 482.52C328.106 482.52 325.226 483.08 322.613 484.2C320.053 485.32 317.839 486.867 315.973 488.84C314.106 490.76 312.666 493.053 311.653 495.72C310.639 498.387 310.133 501.267 310.133 504.36C310.133 507.56 310.613 510.493 311.573 513.16C312.586 515.827 313.999 518.12 315.813 520.04C317.626 521.96 319.839 523.453 322.453 524.52C325.066 525.533 327.999 526.04 331.253 526.04C335.946 526.04 339.946 524.973 343.253 522.84C346.559 520.707 349.013 517.16 350.613 512.2H340.613C340.239 513.48 339.226 514.707 337.573 515.88C335.919 517 333.946 517.56 331.653 517.56C328.453 517.56 325.999 516.733 324.293 515.08C322.586 513.427 321.653 510.76 321.493 507.08ZM358.39 483.64V525H369.75V501C369.75 498.973 370.043 497.347 370.63 496.12C371.217 494.84 371.91 493.88 372.71 493.24C373.563 492.547 374.417 492.093 375.27 491.88C376.177 491.613 376.897 491.48 377.43 491.48C379.243 491.48 380.603 491.8 381.51 492.44C382.47 493.027 383.137 493.827 383.51 494.84C383.937 495.853 384.177 496.973 384.23 498.2C384.283 499.373 384.31 500.573 384.31 501.8V525H395.67V501.96C395.67 500.68 395.75 499.427 395.91 498.2C396.123 496.92 396.497 495.8 397.03 494.84C397.617 493.827 398.39 493.027 399.35 492.44C400.363 491.8 401.67 491.48 403.27 491.48C404.87 491.48 406.123 491.747 407.03 492.28C407.99 492.813 408.71 493.533 409.19 494.44C409.67 495.347 409.963 496.413 410.07 497.64C410.177 498.867 410.23 500.173 410.23 501.56V525H421.59V497.32C421.59 494.653 421.217 492.387 420.47 490.52C419.723 488.6 418.683 487.053 417.35 485.88C416.017 484.707 414.417 483.853 412.55 483.32C410.683 482.787 408.657 482.52 406.47 482.52C403.59 482.52 401.083 483.213 398.95 484.6C396.87 485.987 395.217 487.587 393.99 489.4C392.87 486.84 391.217 485.053 389.03 484.04C386.897 483.027 384.523 482.52 381.91 482.52C379.19 482.52 376.763 483.107 374.63 484.28C372.55 485.453 370.763 487.107 369.27 489.24H369.11V483.64H358.39ZM430.09 496.36C430.25 493.693 430.917 491.48 432.09 489.72C433.263 487.96 434.757 486.547 436.57 485.48C438.383 484.413 440.41 483.667 442.65 483.24C444.943 482.76 447.237 482.52 449.53 482.52C451.61 482.52 453.717 482.68 455.85 483C457.983 483.267 459.93 483.827 461.69 484.68C463.45 485.533 464.89 486.733 466.01 488.28C467.13 489.773 467.69 491.773 467.69 494.28V515.8C467.69 517.667 467.797 519.453 468.01 521.16C468.223 522.867 468.597 524.147 469.13 525H457.61C457.397 524.36 457.21 523.72 457.05 523.08C456.943 522.387 456.863 521.693 456.81 521C454.997 522.867 452.863 524.173 450.41 524.92C447.957 525.667 445.45 526.04 442.89 526.04C440.917 526.04 439.077 525.8 437.37 525.32C435.663 524.84 434.17 524.093 432.89 523.08C431.61 522.067 430.597 520.787 429.85 519.24C429.157 517.693 428.81 515.853 428.81 513.72C428.81 511.373 429.21 509.453 430.01 507.96C430.863 506.413 431.93 505.187 433.21 504.28C434.543 503.373 436.037 502.707 437.69 502.28C439.397 501.8 441.103 501.427 442.81 501.16C444.517 500.893 446.197 500.68 447.85 500.52C449.503 500.36 450.97 500.12 452.25 499.8C453.53 499.48 454.543 499.027 455.29 498.44C456.037 497.8 456.383 496.893 456.33 495.72C456.33 494.493 456.117 493.533 455.69 492.84C455.317 492.093 454.783 491.533 454.09 491.16C453.45 490.733 452.677 490.467 451.77 490.36C450.917 490.2 449.983 490.12 448.97 490.12C446.73 490.12 444.97 490.6 443.69 491.56C442.41 492.52 441.663 494.12 441.45 496.36H430.09ZM456.33 504.76C455.85 505.187 455.237 505.533 454.49 505.8C453.797 506.013 453.023 506.2 452.17 506.36C451.37 506.52 450.517 506.653 449.61 506.76C448.703 506.867 447.797 507 446.89 507.16C446.037 507.32 445.183 507.533 444.33 507.8C443.53 508.067 442.81 508.44 442.17 508.92C441.583 509.347 441.103 509.907 440.73 510.6C440.357 511.293 440.17 512.173 440.17 513.24C440.17 514.253 440.357 515.107 440.73 515.8C441.103 516.493 441.61 517.053 442.25 517.48C442.89 517.853 443.637 518.12 444.49 518.28C445.343 518.44 446.223 518.52 447.13 518.52C449.37 518.52 451.103 518.147 452.33 517.4C453.557 516.653 454.463 515.773 455.05 514.76C455.637 513.693 455.983 512.627 456.09 511.56C456.25 510.493 456.33 509.64 456.33 509V504.76ZM476.828 467.88V525H488.188V467.88H476.828ZM524.973 499.88H506.493C506.546 499.08 506.706 498.173 506.973 497.16C507.293 496.147 507.799 495.187 508.493 494.28C509.239 493.373 510.199 492.627 511.373 492.04C512.599 491.4 514.119 491.08 515.933 491.08C518.706 491.08 520.759 491.827 522.093 493.32C523.479 494.813 524.439 497 524.973 499.88ZM506.493 507.08H536.333C536.546 503.88 536.279 500.813 535.533 497.88C534.786 494.947 533.559 492.333 531.853 490.04C530.199 487.747 528.066 485.933 525.453 484.6C522.839 483.213 519.773 482.52 516.253 482.52C513.106 482.52 510.226 483.08 507.613 484.2C505.053 485.32 502.839 486.867 500.973 488.84C499.106 490.76 497.666 493.053 496.653 495.72C495.639 498.387 495.133 501.267 495.133 504.36C495.133 507.56 495.613 510.493 496.573 513.16C497.586 515.827 498.999 518.12 500.813 520.04C502.626 521.96 504.839 523.453 507.453 524.52C510.066 525.533 512.999 526.04 516.253 526.04C520.946 526.04 524.946 524.973 528.253 522.84C531.559 520.707 534.013 517.16 535.613 512.2H525.613C525.239 513.48 524.226 514.707 522.573 515.88C520.919 517 518.946 517.56 516.653 517.56C513.453 517.56 510.999 516.733 509.293 515.08C507.586 513.427 506.653 510.76 506.493 507.08ZM543.55 512.68V525H556.11V512.68H543.55Z" fill="black"/>
<path d="M1269.77 734.56C1269.77 732.256 1270.15 730.24 1270.92 728.512C1271.78 726.784 1272.94 725.344 1274.38 724.192C1275.82 723.04 1277.45 722.176 1279.27 721.6C1281.19 720.928 1283.16 720.592 1285.18 720.592C1288.34 720.592 1290.89 721.072 1292.81 722.032C1294.82 722.992 1296.36 724.192 1297.42 725.632C1298.57 727.072 1299.34 728.608 1299.72 730.24C1300.1 731.776 1300.3 733.216 1300.3 734.56C1300.3 738.88 1298.86 742.192 1295.98 744.496C1293.1 746.704 1289.5 747.808 1285.18 747.808C1281.05 747.808 1277.45 746.704 1274.38 744.496C1271.3 742.192 1269.77 738.88 1269.77 734.56ZM1251.19 732.688C1251.19 737.68 1252.44 742.048 1254.94 745.792C1257.43 749.536 1261.13 752.08 1266.02 753.424V753.712C1259.98 755.152 1255.27 758.032 1251.91 762.352C1248.65 766.672 1247.02 772.048 1247.02 778.48C1247.02 783.952 1248.07 788.656 1250.18 792.592C1252.39 796.528 1255.27 799.792 1258.82 802.384C1262.47 804.976 1266.55 806.848 1271.06 808C1275.67 809.248 1280.42 809.872 1285.32 809.872C1290.02 809.872 1294.63 809.248 1299.14 808C1303.66 806.656 1307.69 804.688 1311.24 802.096C1314.79 799.504 1317.62 796.24 1319.74 792.304C1321.94 788.368 1323.05 783.712 1323.05 778.336C1323.05 772 1321.42 766.672 1318.15 762.352C1314.89 757.936 1310.23 755.056 1304.18 753.712V753.424C1309.08 751.792 1312.73 749.104 1315.13 745.36C1317.62 741.616 1318.87 737.248 1318.87 732.256C1318.87 729.76 1318.3 726.976 1317.14 723.904C1315.99 720.736 1314.07 717.808 1311.38 715.12C1308.79 712.336 1305.34 709.984 1301.02 708.064C1296.7 706.144 1291.42 705.184 1285.18 705.184C1281.05 705.184 1276.97 705.76 1272.94 706.912C1268.9 708.064 1265.26 709.792 1261.99 712.096C1258.82 714.4 1256.23 717.28 1254.22 720.736C1252.2 724.192 1251.19 728.176 1251.19 732.688ZM1267.46 777.472C1267.46 772.288 1269.19 768.352 1272.65 765.664C1276.1 762.88 1280.33 761.488 1285.32 761.488C1287.72 761.488 1289.93 761.872 1291.94 762.64C1294.06 763.408 1295.88 764.512 1297.42 765.952C1299.05 767.392 1300.3 769.12 1301.16 771.136C1302.12 773.056 1302.6 775.216 1302.6 777.616C1302.6 780.112 1302.17 782.416 1301.3 784.528C1300.44 786.64 1299.19 788.464 1297.56 790C1296.02 791.44 1294.2 792.592 1292.09 793.456C1290.07 794.224 1287.82 794.608 1285.32 794.608C1282.92 794.608 1280.62 794.224 1278.41 793.456C1276.2 792.592 1274.28 791.44 1272.65 790C1271.11 788.464 1269.86 786.64 1268.9 784.528C1267.94 782.416 1267.46 780.064 1267.46 777.472ZM1369.94 732.832V767.824H1343.45L1369.51 732.832H1369.94ZM1369.94 784.672V808H1389.38V784.672H1402.78V767.824H1389.38V707.2H1371.1L1327.32 765.952V784.672H1369.94ZM1504.82 781.792C1504.82 780.16 1504.87 778.336 1504.97 776.32C1505.16 774.304 1505.59 772.432 1506.26 770.704C1506.94 768.976 1507.9 767.536 1509.14 766.384C1510.49 765.232 1512.31 764.656 1514.62 764.656C1516.73 764.656 1518.36 765.328 1519.51 766.672C1520.76 767.92 1521.67 769.456 1522.25 771.28C1522.82 773.008 1523.16 774.88 1523.26 776.896C1523.45 778.816 1523.54 780.496 1523.54 781.936C1523.54 783.472 1523.45 785.248 1523.26 787.264C1523.16 789.184 1522.78 791.056 1522.1 792.88C1521.53 794.608 1520.57 796.096 1519.22 797.344C1517.98 798.592 1516.25 799.216 1514.04 799.216C1511.74 799.216 1509.96 798.592 1508.71 797.344C1507.46 796.096 1506.55 794.608 1505.98 792.88C1505.4 791.056 1505.06 789.136 1504.97 787.12C1504.87 785.104 1504.82 783.328 1504.82 781.792ZM1490.14 781.648C1490.14 785.584 1490.52 789.28 1491.29 792.736C1492.15 796.192 1493.5 799.216 1495.32 801.808C1497.24 804.304 1499.69 806.272 1502.66 807.712C1505.74 809.152 1509.48 809.872 1513.9 809.872C1518.12 809.872 1521.77 809.2 1524.84 807.856C1527.91 806.416 1530.41 804.448 1532.33 801.952C1534.34 799.456 1535.83 796.528 1536.79 793.168C1537.75 789.808 1538.23 786.16 1538.23 782.224C1538.23 778.288 1537.85 774.592 1537.08 771.136C1536.31 767.68 1534.97 764.704 1533.05 762.208C1531.22 759.616 1528.82 757.6 1525.85 756.16C1522.87 754.624 1519.13 753.856 1514.62 753.856C1510.39 753.856 1506.74 754.576 1503.67 756.016C1500.6 757.456 1498.06 759.424 1496.04 761.92C1494.02 764.416 1492.54 767.344 1491.58 770.704C1490.62 774.064 1490.14 777.712 1490.14 781.648ZM1501.22 704.032L1441.61 811.024H1454.14L1513.46 704.032H1501.22ZM1430.52 733.984C1430.52 732.352 1430.57 730.48 1430.66 728.368C1430.86 726.256 1431.29 724.288 1431.96 722.464C1432.63 720.64 1433.59 719.104 1434.84 717.856C1436.18 716.608 1438.01 715.984 1440.31 715.984C1442.42 715.984 1444.06 716.656 1445.21 718C1446.46 719.344 1447.37 720.976 1447.94 722.896C1448.52 724.816 1448.86 726.832 1448.95 728.944C1449.14 730.96 1449.24 732.688 1449.24 734.128C1449.24 735.664 1449.14 737.392 1448.95 739.312C1448.86 741.136 1448.47 742.912 1447.8 744.64C1447.22 746.272 1446.26 747.664 1444.92 748.816C1443.67 749.968 1441.94 750.544 1439.74 750.544C1437.43 750.544 1435.66 749.968 1434.41 748.816C1433.16 747.664 1432.25 746.272 1431.67 744.64C1431.1 742.912 1430.76 741.088 1430.66 739.168C1430.57 737.248 1430.52 735.52 1430.52 733.984ZM1415.83 733.696C1415.83 737.632 1416.22 741.328 1416.98 744.784C1417.85 748.144 1419.19 751.072 1421.02 753.568C1422.94 755.968 1425.38 757.888 1428.36 759.328C1431.43 760.672 1435.18 761.344 1439.59 761.344C1443.82 761.344 1447.46 760.672 1450.54 759.328C1453.61 757.984 1456.1 756.112 1458.02 753.712C1460.04 751.312 1461.53 748.48 1462.49 745.216C1463.45 741.856 1463.93 738.208 1463.93 734.272C1463.93 730.336 1463.54 726.592 1462.78 723.04C1462.01 719.488 1460.66 716.416 1458.74 713.824C1456.92 711.136 1454.52 709.024 1451.54 707.488C1448.57 705.952 1444.82 705.184 1440.31 705.184C1436.09 705.184 1432.44 705.952 1429.37 707.488C1426.3 708.928 1423.75 710.944 1421.74 713.536C1419.72 716.128 1418.23 719.152 1417.27 722.608C1416.31 726.064 1415.83 729.76 1415.83 733.696Z" fill="white"/>
</g>
<defs>
<clipPath id="clip0">
<rect width="1920" height="1080" fill="white"/>
</clipPath>
</defs>
</svg>
