<svg width="1920" height="1080" viewBox="0 0 1920 1080" fill="none" xmlns="http://www.w3.org/2000/svg">
<rect width="1920" height="1080" fill="black"/>
<path d="M94.968 269.592V321H131.328V311.496H106.272V269.592H94.968ZM145.64 302.424C145.64 300.936 145.784 299.472 146.072 298.032C146.36 296.592 146.84 295.32 147.512 294.216C148.232 293.112 149.168 292.224 150.32 291.552C151.472 290.832 152.912 290.472 154.64 290.472C156.368 290.472 157.808 290.832 158.96 291.552C160.16 292.224 161.096 293.112 161.768 294.216C162.488 295.32 162.992 296.592 163.28 298.032C163.568 299.472 163.712 300.936 163.712 302.424C163.712 303.912 163.568 305.376 163.28 306.816C162.992 308.208 162.488 309.48 161.768 310.632C161.096 311.736 160.16 312.624 158.96 313.296C157.808 313.968 156.368 314.304 154.64 314.304C152.912 314.304 151.472 313.968 150.32 313.296C149.168 312.624 148.232 311.736 147.512 310.632C146.84 309.48 146.36 308.208 146.072 306.816C145.784 305.376 145.64 303.912 145.64 302.424ZM135.416 302.424C135.416 305.4 135.872 308.088 136.784 310.488C137.696 312.888 138.992 314.952 140.672 316.68C142.352 318.36 144.368 319.656 146.72 320.568C149.072 321.48 151.712 321.936 154.64 321.936C157.568 321.936 160.208 321.48 162.56 320.568C164.96 319.656 167 318.36 168.68 316.68C170.36 314.952 171.656 312.888 172.568 310.488C173.48 308.088 173.936 305.4 173.936 302.424C173.936 299.448 173.48 296.76 172.568 294.36C171.656 291.912 170.36 289.848 168.68 288.168C167 286.44 164.96 285.12 162.56 284.208C160.208 283.248 157.568 282.768 154.64 282.768C151.712 282.768 149.072 283.248 146.72 284.208C144.368 285.12 142.352 286.44 140.672 288.168C138.992 289.848 137.696 291.912 136.784 294.36C135.872 296.76 135.416 299.448 135.416 302.424ZM189.655 302.424C189.655 300.936 189.799 299.472 190.087 298.032C190.375 296.592 190.855 295.32 191.527 294.216C192.247 293.112 193.183 292.224 194.335 291.552C195.487 290.832 196.927 290.472 198.655 290.472C200.383 290.472 201.823 290.832 202.975 291.552C204.175 292.224 205.111 293.112 205.783 294.216C206.503 295.32 207.007 296.592 207.295 298.032C207.583 299.472 207.727 300.936 207.727 302.424C207.727 303.912 207.583 305.376 207.295 306.816C207.007 308.208 206.503 309.48 205.783 310.632C205.111 311.736 204.175 312.624 202.975 313.296C201.823 313.968 200.383 314.304 198.655 314.304C196.927 314.304 195.487 313.968 194.335 313.296C193.183 312.624 192.247 311.736 191.527 310.632C190.855 309.48 190.375 308.208 190.087 306.816C189.799 305.376 189.655 303.912 189.655 302.424ZM179.431 302.424C179.431 305.4 179.887 308.088 180.799 310.488C181.711 312.888 183.007 314.952 184.687 316.68C186.367 318.36 188.383 319.656 190.735 320.568C193.087 321.48 195.727 321.936 198.655 321.936C201.583 321.936 204.223 321.48 206.575 320.568C208.975 319.656 211.015 318.36 212.695 316.68C214.375 314.952 215.671 312.888 216.583 310.488C217.495 308.088 217.951 305.4 217.951 302.424C217.951 299.448 217.495 296.76 216.583 294.36C215.671 291.912 214.375 289.848 212.695 288.168C211.015 286.44 208.975 285.12 206.575 284.208C204.223 283.248 201.583 282.768 198.655 282.768C195.727 282.768 193.087 283.248 190.735 284.208C188.383 285.12 186.367 286.44 184.687 288.168C183.007 289.848 181.711 291.912 180.799 294.36C179.887 296.76 179.431 299.448 179.431 302.424ZM225.535 269.592V321H235.759V308.184L239.719 304.368L249.943 321H262.327L246.703 297.456L260.743 283.776H248.647L235.759 297.168V269.592H225.535ZM276.455 278.016V269.592H266.231V278.016H276.455ZM266.231 283.776V321H276.455V283.776H266.231ZM284.505 283.776V321H294.729V301.488C294.729 297.696 295.353 294.984 296.601 293.352C297.849 291.672 299.865 290.832 302.649 290.832C305.097 290.832 306.801 291.6 307.761 293.136C308.721 294.624 309.201 296.904 309.201 299.976V321H319.425V298.104C319.425 295.8 319.209 293.712 318.777 291.84C318.393 289.92 317.697 288.312 316.689 287.016C315.681 285.672 314.289 284.64 312.513 283.92C310.785 283.152 308.553 282.768 305.817 282.768C303.657 282.768 301.545 283.272 299.481 284.28C297.417 285.24 295.737 286.8 294.441 288.96H294.225V283.776H284.505ZM344.537 312.216C342.953 312.216 341.633 311.88 340.577 311.208C339.521 310.536 338.657 309.672 337.985 308.616C337.361 307.56 336.905 306.384 336.617 305.088C336.377 303.744 336.257 302.4 336.257 301.056C336.257 299.664 336.401 298.344 336.689 297.096C337.025 295.8 337.529 294.672 338.201 293.712C338.921 292.704 339.785 291.912 340.793 291.336C341.849 290.76 343.097 290.472 344.537 290.472C346.217 290.472 347.609 290.784 348.713 291.408C349.817 292.032 350.705 292.872 351.377 293.928C352.049 294.984 352.529 296.208 352.817 297.6C353.105 298.944 353.249 300.384 353.249 301.92C353.249 303.264 353.057 304.56 352.673 305.808C352.337 307.008 351.809 308.088 351.089 309.048C350.369 310.008 349.457 310.776 348.353 311.352C347.249 311.928 345.977 312.216 344.537 312.216ZM362.969 318.624V283.776H353.249V288.744H353.105C351.857 286.584 350.297 285.048 348.425 284.136C346.601 283.224 344.465 282.768 342.017 282.768C339.425 282.768 337.121 283.272 335.105 284.28C333.137 285.288 331.481 286.656 330.137 288.384C328.793 290.064 327.761 292.032 327.041 294.288C326.369 296.496 326.033 298.8 326.033 301.2C326.033 303.744 326.321 306.168 326.897 308.472C327.521 310.728 328.481 312.72 329.777 314.448C331.073 316.128 332.729 317.472 334.745 318.48C336.761 319.44 339.161 319.92 341.945 319.92C344.201 319.92 346.337 319.464 348.353 318.552C350.417 317.592 352.001 316.128 353.105 314.16H353.249V319.056C353.297 321.696 352.649 323.88 351.305 325.608C350.009 327.336 347.921 328.2 345.041 328.2C343.217 328.2 341.609 327.816 340.217 327.048C338.825 326.328 337.889 325.008 337.409 323.088H327.257C327.401 325.2 327.977 327 328.985 328.488C330.041 330.024 331.337 331.272 332.873 332.232C334.457 333.192 336.185 333.888 338.057 334.32C339.977 334.8 341.849 335.04 343.673 335.04C347.945 335.04 351.353 334.464 353.897 333.312C356.441 332.16 358.385 330.744 359.729 329.064C361.073 327.432 361.937 325.656 362.321 323.736C362.753 321.816 362.969 320.112 362.969 318.624ZM390.808 295.224C390.952 292.824 391.552 290.832 392.608 289.248C393.664 287.664 395.008 286.392 396.64 285.432C398.272 284.472 400.096 283.8 402.112 283.416C404.176 282.984 406.24 282.768 408.304 282.768C410.176 282.768 412.072 282.912 413.992 283.2C415.912 283.44 417.664 283.944 419.248 284.712C420.832 285.48 422.128 286.56 423.136 287.952C424.144 289.296 424.648 291.096 424.648 293.352V312.72C424.648 314.4 424.744 316.008 424.936 317.544C425.128 319.08 425.464 320.232 425.944 321H415.576C415.384 320.424 415.216 319.848 415.072 319.272C414.976 318.648 414.904 318.024 414.856 317.4C413.224 319.08 411.304 320.256 409.096 320.928C406.888 321.6 404.632 321.936 402.328 321.936C400.552 321.936 398.896 321.72 397.36 321.288C395.824 320.856 394.48 320.184 393.328 319.272C392.176 318.36 391.264 317.208 390.592 315.816C389.968 314.424 389.656 312.768 389.656 310.848C389.656 308.736 390.016 307.008 390.736 305.664C391.504 304.272 392.464 303.168 393.616 302.352C394.816 301.536 396.16 300.936 397.648 300.552C399.184 300.12 400.72 299.784 402.256 299.544C403.792 299.304 405.304 299.112 406.792 298.968C408.28 298.824 409.6 298.608 410.752 298.32C411.904 298.032 412.816 297.624 413.488 297.096C414.16 296.52 414.472 295.704 414.424 294.648C414.424 293.544 414.232 292.68 413.848 292.056C413.512 291.384 413.032 290.88 412.408 290.544C411.832 290.16 411.136 289.92 410.32 289.824C409.552 289.68 408.712 289.608 407.8 289.608C405.784 289.608 404.2 290.04 403.048 290.904C401.896 291.768 401.224 293.208 401.032 295.224H390.808ZM414.424 302.784C413.992 303.168 413.44 303.48 412.768 303.72C412.144 303.912 411.448 304.08 410.68 304.224C409.96 304.368 409.192 304.488 408.376 304.584C407.56 304.68 406.744 304.8 405.928 304.944C405.16 305.088 404.392 305.28 403.624 305.52C402.904 305.76 402.256 306.096 401.68 306.528C401.152 306.912 400.72 307.416 400.384 308.04C400.048 308.664 399.88 309.456 399.88 310.416C399.88 311.328 400.048 312.096 400.384 312.72C400.72 313.344 401.176 313.848 401.752 314.232C402.328 314.568 403 314.808 403.768 314.952C404.536 315.096 405.328 315.168 406.144 315.168C408.16 315.168 409.72 314.832 410.824 314.16C411.928 313.488 412.744 312.696 413.272 311.784C413.8 310.824 414.112 309.864 414.208 308.904C414.352 307.944 414.424 307.176 414.424 306.6V302.784ZM445.543 283.776V272.616H435.319V283.776H429.127V290.616H435.319V312.576C435.319 314.448 435.631 315.96 436.255 317.112C436.879 318.264 437.719 319.152 438.775 319.776C439.879 320.4 441.127 320.808 442.519 321C443.959 321.24 445.471 321.36 447.055 321.36C448.063 321.36 449.095 321.336 450.151 321.288C451.207 321.24 452.167 321.144 453.031 321V313.08C452.551 313.176 452.047 313.248 451.519 313.296C450.991 313.344 450.439 313.368 449.863 313.368C448.135 313.368 446.983 313.08 446.407 312.504C445.831 311.928 445.543 310.776 445.543 309.048V290.616H453.031V283.776H445.543ZM490.895 283.776V272.616H480.671V283.776H474.479V290.616H480.671V312.576C480.671 314.448 480.983 315.96 481.607 317.112C482.231 318.264 483.071 319.152 484.127 319.776C485.231 320.4 486.479 320.808 487.871 321C489.311 321.24 490.823 321.36 492.407 321.36C493.415 321.36 494.447 321.336 495.503 321.288C496.559 321.24 497.519 321.144 498.383 321V313.08C497.903 313.176 497.399 313.248 496.871 313.296C496.343 313.344 495.791 313.368 495.215 313.368C493.487 313.368 492.335 313.08 491.759 312.504C491.183 311.928 490.895 310.776 490.895 309.048V290.616H498.383V283.776H490.895ZM503.247 269.592V321H513.471V301.488C513.471 297.696 514.095 294.984 515.343 293.352C516.591 291.672 518.607 290.832 521.391 290.832C523.839 290.832 525.543 291.6 526.503 293.136C527.463 294.624 527.943 296.904 527.943 299.976V321H538.167V298.104C538.167 295.8 537.951 293.712 537.519 291.84C537.135 289.92 536.439 288.312 535.431 287.016C534.423 285.672 533.031 284.64 531.255 283.92C529.527 283.152 527.295 282.768 524.559 282.768C522.639 282.768 520.671 283.272 518.655 284.28C516.639 285.24 514.983 286.8 513.687 288.96H513.471V269.592H503.247ZM570.983 298.392H554.351C554.399 297.672 554.543 296.856 554.783 295.944C555.071 295.032 555.527 294.168 556.151 293.352C556.823 292.536 557.687 291.864 558.743 291.336C559.847 290.76 561.215 290.472 562.847 290.472C565.343 290.472 567.191 291.144 568.391 292.488C569.639 293.832 570.503 295.8 570.983 298.392ZM554.351 304.872H581.207C581.399 301.992 581.159 299.232 580.487 296.592C579.815 293.952 578.711 291.6 577.175 289.536C575.687 287.472 573.767 285.84 571.415 284.64C569.063 283.392 566.303 282.768 563.135 282.768C560.303 282.768 557.711 283.272 555.359 284.28C553.055 285.288 551.063 286.68 549.383 288.456C547.703 290.184 546.407 292.248 545.495 294.648C544.583 297.048 544.127 299.64 544.127 302.424C544.127 305.304 544.559 307.944 545.423 310.344C546.335 312.744 547.607 314.808 549.239 316.536C550.871 318.264 552.863 319.608 555.215 320.568C557.567 321.48 560.207 321.936 563.135 321.936C567.359 321.936 570.959 320.976 573.935 319.056C576.911 317.136 579.119 313.944 580.559 309.48H571.559C571.223 310.632 570.311 311.736 568.823 312.792C567.335 313.8 565.559 314.304 563.495 314.304C560.615 314.304 558.407 313.56 556.871 312.072C555.335 310.584 554.495 308.184 554.351 304.872ZM624.662 312.216C623.078 312.216 621.758 311.88 620.702 311.208C619.646 310.536 618.782 309.672 618.11 308.616C617.486 307.56 617.03 306.384 616.742 305.088C616.502 303.744 616.382 302.4 616.382 301.056C616.382 299.664 616.526 298.344 616.814 297.096C617.15 295.8 617.654 294.672 618.326 293.712C619.046 292.704 619.91 291.912 620.918 291.336C621.974 290.76 623.222 290.472 624.662 290.472C626.342 290.472 627.734 290.784 628.838 291.408C629.942 292.032 630.83 292.872 631.502 293.928C632.174 294.984 632.654 296.208 632.942 297.6C633.23 298.944 633.374 300.384 633.374 301.92C633.374 303.264 633.182 304.56 632.798 305.808C632.462 307.008 631.934 308.088 631.214 309.048C630.494 310.008 629.582 310.776 628.478 311.352C627.374 311.928 626.102 312.216 624.662 312.216ZM643.094 318.624V283.776H633.374V288.744H633.23C631.982 286.584 630.422 285.048 628.55 284.136C626.726 283.224 624.59 282.768 622.142 282.768C619.55 282.768 617.246 283.272 615.23 284.28C613.262 285.288 611.606 286.656 610.262 288.384C608.918 290.064 607.886 292.032 607.166 294.288C606.494 296.496 606.158 298.8 606.158 301.2C606.158 303.744 606.446 306.168 607.022 308.472C607.646 310.728 608.606 312.72 609.902 314.448C611.198 316.128 612.854 317.472 614.87 318.48C616.886 319.44 619.286 319.92 622.07 319.92C624.326 319.92 626.462 319.464 628.478 318.552C630.542 317.592 632.126 316.128 633.23 314.16H633.374V319.056C633.422 321.696 632.774 323.88 631.43 325.608C630.134 327.336 628.046 328.2 625.166 328.2C623.342 328.2 621.734 327.816 620.342 327.048C618.95 326.328 618.014 325.008 617.534 323.088H607.382C607.526 325.2 608.102 327 609.11 328.488C610.166 330.024 611.462 331.272 612.998 332.232C614.582 333.192 616.31 333.888 618.182 334.32C620.102 334.8 621.974 335.04 623.798 335.04C628.07 335.04 631.478 334.464 634.022 333.312C636.566 332.16 638.51 330.744 639.854 329.064C641.198 327.432 642.062 325.656 642.446 323.736C642.878 321.816 643.094 320.112 643.094 318.624ZM676.382 298.392H659.75C659.798 297.672 659.942 296.856 660.182 295.944C660.47 295.032 660.926 294.168 661.55 293.352C662.222 292.536 663.086 291.864 664.142 291.336C665.246 290.76 666.614 290.472 668.246 290.472C670.742 290.472 672.59 291.144 673.79 292.488C675.038 293.832 675.902 295.8 676.382 298.392ZM659.75 304.872H686.606C686.798 301.992 686.558 299.232 685.886 296.592C685.214 293.952 684.11 291.6 682.574 289.536C681.086 287.472 679.166 285.84 676.814 284.64C674.462 283.392 671.702 282.768 668.534 282.768C665.702 282.768 663.11 283.272 660.758 284.28C658.454 285.288 656.462 286.68 654.782 288.456C653.102 290.184 651.806 292.248 650.894 294.648C649.982 297.048 649.526 299.64 649.526 302.424C649.526 305.304 649.958 307.944 650.822 310.344C651.734 312.744 653.006 314.808 654.638 316.536C656.27 318.264 658.262 319.608 660.614 320.568C662.966 321.48 665.606 321.936 668.534 321.936C672.758 321.936 676.358 320.976 679.334 319.056C682.31 317.136 684.518 313.944 685.958 309.48H676.958C676.622 310.632 675.71 311.736 674.222 312.792C672.734 313.8 670.958 314.304 668.894 314.304C666.014 314.304 663.806 313.56 662.27 312.072C660.734 310.584 659.894 308.184 659.75 304.872ZM692.669 283.776V321H702.893V301.488C702.893 297.696 703.517 294.984 704.765 293.352C706.013 291.672 708.029 290.832 710.813 290.832C713.261 290.832 714.965 291.6 715.925 293.136C716.885 294.624 717.365 296.904 717.365 299.976V321H727.589V298.104C727.589 295.8 727.373 293.712 726.941 291.84C726.557 289.92 725.861 288.312 724.853 287.016C723.845 285.672 722.453 284.64 720.677 283.92C718.949 283.152 716.717 282.768 713.981 282.768C711.821 282.768 709.709 283.272 707.645 284.28C705.581 285.24 703.901 286.8 702.605 288.96H702.389V283.776H692.669ZM761.773 302.28C761.773 303.816 761.629 305.304 761.341 306.744C761.053 308.184 760.573 309.48 759.901 310.632C759.229 311.736 758.317 312.624 757.165 313.296C756.061 313.968 754.669 314.304 752.989 314.304C751.405 314.304 750.037 313.968 748.885 313.296C747.781 312.576 746.845 311.664 746.077 310.56C745.357 309.408 744.829 308.112 744.493 306.672C744.157 305.232 743.989 303.792 743.989 302.352C743.989 300.816 744.133 299.352 744.421 297.96C744.757 296.52 745.261 295.248 745.933 294.144C746.653 293.04 747.589 292.152 748.741 291.48C749.893 290.808 751.309 290.472 752.989 290.472C754.669 290.472 756.061 290.808 757.165 291.48C758.269 292.152 759.157 293.04 759.829 294.144C760.549 295.2 761.053 296.448 761.341 297.888C761.629 299.28 761.773 300.744 761.773 302.28ZM761.917 316.248V321H771.637V269.592H761.413V288.312H761.269C760.117 286.488 758.533 285.12 756.517 284.208C754.549 283.248 752.461 282.768 750.253 282.768C747.517 282.768 745.117 283.32 743.053 284.424C740.989 285.48 739.261 286.896 737.869 288.672C736.525 290.448 735.493 292.512 734.773 294.864C734.101 297.168 733.765 299.568 733.765 302.064C733.765 304.656 734.101 307.152 734.773 309.552C735.493 311.952 736.525 314.088 737.869 315.96C739.261 317.784 741.013 319.248 743.125 320.352C745.237 321.408 747.685 321.936 750.469 321.936C752.917 321.936 755.101 321.504 757.021 320.64C758.989 319.728 760.573 318.264 761.773 316.248H761.917ZM804.421 298.392H787.789C787.837 297.672 787.981 296.856 788.221 295.944C788.509 295.032 788.965 294.168 789.589 293.352C790.261 292.536 791.125 291.864 792.181 291.336C793.285 290.76 794.653 290.472 796.285 290.472C798.781 290.472 800.629 291.144 801.829 292.488C803.077 293.832 803.941 295.8 804.421 298.392ZM787.789 304.872H814.645C814.837 301.992 814.597 299.232 813.925 296.592C813.253 293.952 812.149 291.6 810.613 289.536C809.125 287.472 807.205 285.84 804.853 284.64C802.501 283.392 799.741 282.768 796.573 282.768C793.741 282.768 791.149 283.272 788.797 284.28C786.493 285.288 784.501 286.68 782.821 288.456C781.141 290.184 779.845 292.248 778.933 294.648C778.021 297.048 777.565 299.64 777.565 302.424C777.565 305.304 777.997 307.944 778.861 310.344C779.773 312.744 781.045 314.808 782.677 316.536C784.309 318.264 786.301 319.608 788.653 320.568C791.005 321.48 793.645 321.936 796.573 321.936C800.797 321.936 804.397 320.976 807.373 319.056C810.349 317.136 812.557 313.944 813.997 309.48H804.997C804.661 310.632 803.749 311.736 802.261 312.792C800.773 313.8 798.997 314.304 796.933 314.304C794.053 314.304 791.845 313.56 790.309 312.072C788.773 310.584 787.933 308.184 787.789 304.872ZM820.708 283.776V321H830.932V304.224C830.932 302.544 831.1 300.984 831.436 299.544C831.772 298.104 832.324 296.856 833.092 295.8C833.908 294.696 834.964 293.832 836.26 293.208C837.556 292.584 839.14 292.272 841.012 292.272C841.636 292.272 842.284 292.32 842.956 292.416C843.628 292.464 844.204 292.536 844.684 292.632V283.128C843.868 282.888 843.124 282.768 842.452 282.768C841.156 282.768 839.908 282.96 838.708 283.344C837.508 283.728 836.38 284.28 835.324 285C834.268 285.672 833.332 286.512 832.516 287.52C831.7 288.48 831.052 289.536 830.572 290.688H830.428V283.776H820.708ZM877.804 302.424C877.804 300.936 877.948 299.472 878.236 298.032C878.524 296.592 879.004 295.32 879.676 294.216C880.396 293.112 881.332 292.224 882.484 291.552C883.636 290.832 885.076 290.472 886.804 290.472C888.532 290.472 889.972 290.832 891.124 291.552C892.324 292.224 893.26 293.112 893.932 294.216C894.652 295.32 895.156 296.592 895.444 298.032C895.732 299.472 895.876 300.936 895.876 302.424C895.876 303.912 895.732 305.376 895.444 306.816C895.156 308.208 894.652 309.48 893.932 310.632C893.26 311.736 892.324 312.624 891.124 313.296C889.972 313.968 888.532 314.304 886.804 314.304C885.076 314.304 883.636 313.968 882.484 313.296C881.332 312.624 880.396 311.736 879.676 310.632C879.004 309.48 878.524 308.208 878.236 306.816C877.948 305.376 877.804 303.912 877.804 302.424ZM867.58 302.424C867.58 305.4 868.036 308.088 868.948 310.488C869.86 312.888 871.156 314.952 872.836 316.68C874.516 318.36 876.532 319.656 878.884 320.568C881.236 321.48 883.876 321.936 886.804 321.936C889.732 321.936 892.372 321.48 894.724 320.568C897.124 319.656 899.164 318.36 900.844 316.68C902.524 314.952 903.82 312.888 904.732 310.488C905.644 308.088 906.1 305.4 906.1 302.424C906.1 299.448 905.644 296.76 904.732 294.36C903.82 291.912 902.524 289.848 900.844 288.168C899.164 286.44 897.124 285.12 894.724 284.208C892.372 283.248 889.732 282.768 886.804 282.768C883.876 282.768 881.236 283.248 878.884 284.208C876.532 285.12 874.516 286.44 872.836 288.168C871.156 289.848 869.86 291.912 868.948 294.36C868.036 296.76 867.58 299.448 867.58 302.424ZM914.979 290.616V321H925.203V290.616H932.259V283.776H925.203V281.544C925.203 280.008 925.491 278.928 926.067 278.304C926.691 277.632 927.699 277.296 929.091 277.296C930.387 277.296 931.635 277.368 932.835 277.512V269.88C931.971 269.832 931.083 269.784 930.171 269.736C929.259 269.64 928.347 269.592 927.435 269.592C923.259 269.592 920.139 270.648 918.075 272.76C916.011 274.872 914.979 277.584 914.979 280.896V283.776H908.859V290.616H914.979ZM93.456 383.224C93.6 380.824 94.2 378.832 95.256 377.248C96.312 375.664 97.656 374.392 99.288 373.432C100.92 372.472 102.744 371.8 104.76 371.416C106.824 370.984 108.888 370.768 110.952 370.768C112.824 370.768 114.72 370.912 116.64 371.2C118.56 371.44 120.312 371.944 121.896 372.712C123.48 373.48 124.776 374.56 125.784 375.952C126.792 377.296 127.296 379.096 127.296 381.352V400.72C127.296 402.4 127.392 404.008 127.584 405.544C127.776 407.08 128.112 408.232 128.592 409H118.224C118.032 408.424 117.864 407.848 117.72 407.272C117.624 406.648 117.552 406.024 117.504 405.4C115.872 407.08 113.952 408.256 111.744 408.928C109.536 409.6 107.28 409.936 104.976 409.936C103.2 409.936 101.544 409.72 100.008 409.288C98.472 408.856 97.128 408.184 95.976 407.272C94.824 406.36 93.912 405.208 93.24 403.816C92.616 402.424 92.304 400.768 92.304 398.848C92.304 396.736 92.664 395.008 93.384 393.664C94.152 392.272 95.112 391.168 96.264 390.352C97.464 389.536 98.808 388.936 100.296 388.552C101.832 388.12 103.368 387.784 104.904 387.544C106.44 387.304 107.952 387.112 109.44 386.968C110.928 386.824 112.248 386.608 113.4 386.32C114.552 386.032 115.464 385.624 116.136 385.096C116.808 384.52 117.12 383.704 117.072 382.648C117.072 381.544 116.88 380.68 116.496 380.056C116.16 379.384 115.68 378.88 115.056 378.544C114.48 378.16 113.784 377.92 112.968 377.824C112.2 377.68 111.36 377.608 110.448 377.608C108.432 377.608 106.848 378.04 105.696 378.904C104.544 379.768 103.872 381.208 103.68 383.224H93.456ZM117.072 390.784C116.64 391.168 116.088 391.48 115.416 391.72C114.792 391.912 114.096 392.08 113.328 392.224C112.608 392.368 111.84 392.488 111.024 392.584C110.208 392.68 109.392 392.8 108.576 392.944C107.808 393.088 107.04 393.28 106.272 393.52C105.552 393.76 104.904 394.096 104.328 394.528C103.8 394.912 103.368 395.416 103.032 396.04C102.696 396.664 102.528 397.456 102.528 398.416C102.528 399.328 102.696 400.096 103.032 400.72C103.368 401.344 103.824 401.848 104.4 402.232C104.976 402.568 105.648 402.808 106.416 402.952C107.184 403.096 107.976 403.168 108.792 403.168C110.808 403.168 112.368 402.832 113.472 402.16C114.576 401.488 115.392 400.696 115.92 399.784C116.448 398.824 116.76 397.864 116.856 396.904C117 395.944 117.072 395.176 117.072 394.6V390.784ZM135.52 357.592V409H145.744V357.592H135.52ZM154.082 357.592V409H164.306V357.592H154.082ZM205.356 371.776V360.616H195.132V371.776H188.94V378.616H195.132V400.576C195.132 402.448 195.444 403.96 196.068 405.112C196.692 406.264 197.532 407.152 198.588 407.776C199.692 408.4 200.94 408.808 202.332 409C203.772 409.24 205.284 409.36 206.868 409.36C207.876 409.36 208.908 409.336 209.964 409.288C211.02 409.24 211.98 409.144 212.844 409V401.08C212.364 401.176 211.86 401.248 211.332 401.296C210.804 401.344 210.252 401.368 209.676 401.368C207.948 401.368 206.796 401.08 206.22 400.504C205.644 399.928 205.356 398.776 205.356 397.048V378.616H212.844V371.776H205.356ZM217.708 357.592V409H227.932V389.488C227.932 385.696 228.556 382.984 229.804 381.352C231.052 379.672 233.068 378.832 235.852 378.832C238.3 378.832 240.004 379.6 240.964 381.136C241.924 382.624 242.404 384.904 242.404 387.976V409H252.628V386.104C252.628 383.8 252.412 381.712 251.98 379.84C251.596 377.92 250.9 376.312 249.892 375.016C248.884 373.672 247.492 372.64 245.716 371.92C243.988 371.152 241.756 370.768 239.02 370.768C237.1 370.768 235.132 371.272 233.116 372.28C231.1 373.24 229.444 374.8 228.148 376.96H227.932V357.592H217.708ZM285.444 386.392H268.812C268.86 385.672 269.004 384.856 269.244 383.944C269.532 383.032 269.988 382.168 270.612 381.352C271.284 380.536 272.148 379.864 273.204 379.336C274.308 378.76 275.676 378.472 277.308 378.472C279.804 378.472 281.652 379.144 282.852 380.488C284.1 381.832 284.964 383.8 285.444 386.392ZM268.812 392.872H295.668C295.86 389.992 295.62 387.232 294.948 384.592C294.276 381.952 293.172 379.6 291.636 377.536C290.148 375.472 288.228 373.84 285.876 372.64C283.524 371.392 280.764 370.768 277.596 370.768C274.764 370.768 272.172 371.272 269.82 372.28C267.516 373.288 265.524 374.68 263.844 376.456C262.164 378.184 260.868 380.248 259.956 382.648C259.044 385.048 258.588 387.64 258.588 390.424C258.588 393.304 259.02 395.944 259.884 398.344C260.796 400.744 262.068 402.808 263.7 404.536C265.332 406.264 267.324 407.608 269.676 408.568C272.028 409.48 274.668 409.936 277.596 409.936C281.82 409.936 285.42 408.976 288.396 407.056C291.372 405.136 293.58 401.944 295.02 397.48H286.02C285.684 398.632 284.772 399.736 283.284 400.792C281.796 401.8 280.02 402.304 277.956 402.304C275.076 402.304 272.868 401.56 271.332 400.072C269.796 398.584 268.956 396.184 268.812 392.872ZM309.652 396.904H299.932C300.028 399.4 300.58 401.488 301.588 403.168C302.644 404.8 303.964 406.12 305.548 407.128C307.18 408.136 309.028 408.856 311.092 409.288C313.156 409.72 315.268 409.936 317.428 409.936C319.54 409.936 321.604 409.72 323.62 409.288C325.684 408.904 327.508 408.208 329.092 407.2C330.676 406.192 331.948 404.872 332.908 403.24C333.916 401.56 334.42 399.496 334.42 397.048C334.42 395.32 334.084 393.88 333.412 392.728C332.74 391.528 331.852 390.544 330.748 389.776C329.644 388.96 328.372 388.312 326.932 387.832C325.54 387.352 324.1 386.944 322.612 386.608C321.172 386.272 319.756 385.96 318.364 385.672C316.972 385.384 315.724 385.072 314.62 384.736C313.564 384.352 312.7 383.872 312.028 383.296C311.356 382.72 311.02 381.976 311.02 381.064C311.02 380.296 311.212 379.696 311.596 379.264C311.98 378.784 312.436 378.424 312.964 378.184C313.54 377.944 314.164 377.8 314.836 377.752C315.508 377.656 316.132 377.608 316.708 377.608C318.532 377.608 320.116 377.968 321.46 378.688C322.804 379.36 323.548 380.68 323.692 382.648H333.412C333.22 380.344 332.62 378.448 331.612 376.96C330.652 375.424 329.428 374.2 327.94 373.288C326.452 372.376 324.748 371.728 322.828 371.344C320.956 370.96 319.012 370.768 316.996 370.768C314.98 370.768 313.012 370.96 311.092 371.344C309.172 371.68 307.444 372.304 305.908 373.216C304.372 374.08 303.124 375.28 302.164 376.816C301.252 378.352 300.796 380.32 300.796 382.72C300.796 384.352 301.132 385.744 301.804 386.896C302.476 388 303.364 388.936 304.468 389.704C305.572 390.424 306.82 391.024 308.212 391.504C309.652 391.936 311.116 392.32 312.604 392.656C316.252 393.424 319.084 394.192 321.1 394.96C323.164 395.728 324.196 396.88 324.196 398.416C324.196 399.328 323.98 400.096 323.548 400.72C323.116 401.296 322.564 401.776 321.892 402.16C321.268 402.496 320.548 402.76 319.732 402.952C318.964 403.096 318.22 403.168 317.5 403.168C316.492 403.168 315.508 403.048 314.548 402.808C313.636 402.568 312.82 402.208 312.1 401.728C311.38 401.2 310.78 400.552 310.3 399.784C309.868 398.968 309.652 398.008 309.652 396.904ZM365.46 386.392H348.828C348.876 385.672 349.02 384.856 349.26 383.944C349.548 383.032 350.004 382.168 350.628 381.352C351.3 380.536 352.164 379.864 353.22 379.336C354.324 378.76 355.692 378.472 357.324 378.472C359.82 378.472 361.668 379.144 362.868 380.488C364.116 381.832 364.98 383.8 365.46 386.392ZM348.828 392.872H375.684C375.876 389.992 375.636 387.232 374.964 384.592C374.292 381.952 373.188 379.6 371.652 377.536C370.164 375.472 368.244 373.84 365.892 372.64C363.54 371.392 360.78 370.768 357.612 370.768C354.78 370.768 352.188 371.272 349.836 372.28C347.532 373.288 345.54 374.68 343.86 376.456C342.18 378.184 340.884 380.248 339.972 382.648C339.06 385.048 338.604 387.64 338.604 390.424C338.604 393.304 339.036 395.944 339.9 398.344C340.812 400.744 342.084 402.808 343.716 404.536C345.348 406.264 347.34 407.608 349.692 408.568C352.044 409.48 354.684 409.936 357.612 409.936C361.836 409.936 365.436 408.976 368.412 407.056C371.388 405.136 373.596 401.944 375.036 397.48H366.036C365.7 398.632 364.788 399.736 363.3 400.792C361.812 401.8 360.036 402.304 357.972 402.304C355.092 402.304 352.884 401.56 351.348 400.072C349.812 398.584 348.972 396.184 348.828 392.872ZM420.578 402.304C418.946 402.304 417.554 401.968 416.402 401.296C415.25 400.624 414.314 399.76 413.594 398.704C412.922 397.6 412.418 396.328 412.082 394.888C411.794 393.448 411.65 391.984 411.65 390.496C411.65 388.96 411.794 387.472 412.082 386.032C412.37 384.592 412.85 383.32 413.522 382.216C414.242 381.112 415.154 380.224 416.258 379.552C417.41 378.832 418.826 378.472 420.506 378.472C422.138 378.472 423.506 378.832 424.61 379.552C425.762 380.224 426.698 381.136 427.418 382.288C428.138 383.392 428.642 384.664 428.93 386.104C429.266 387.544 429.434 389.008 429.434 390.496C429.434 391.984 429.29 393.448 429.002 394.888C428.714 396.328 428.21 397.6 427.49 398.704C426.818 399.76 425.906 400.624 424.754 401.296C423.65 401.968 422.258 402.304 420.578 402.304ZM401.786 371.776V422.032H412.01V404.392H412.154C413.402 406.216 414.986 407.608 416.906 408.568C418.874 409.48 421.01 409.936 423.314 409.936C426.05 409.936 428.426 409.408 430.442 408.352C432.506 407.296 434.21 405.88 435.554 404.104C436.946 402.328 437.978 400.288 438.65 397.984C439.322 395.68 439.658 393.28 439.658 390.784C439.658 388.144 439.322 385.624 438.65 383.224C437.978 380.776 436.946 378.64 435.554 376.816C434.162 374.992 432.41 373.528 430.298 372.424C428.186 371.32 425.666 370.768 422.738 370.768C420.434 370.768 418.322 371.224 416.402 372.136C414.482 373.048 412.898 374.512 411.65 376.528H411.506V371.776H401.786ZM470.858 386.392H454.226C454.274 385.672 454.418 384.856 454.658 383.944C454.946 383.032 455.402 382.168 456.026 381.352C456.698 380.536 457.562 379.864 458.618 379.336C459.722 378.76 461.09 378.472 462.722 378.472C465.218 378.472 467.066 379.144 468.266 380.488C469.514 381.832 470.378 383.8 470.858 386.392ZM454.226 392.872H481.082C481.274 389.992 481.034 387.232 480.362 384.592C479.69 381.952 478.586 379.6 477.05 377.536C475.562 375.472 473.642 373.84 471.29 372.64C468.938 371.392 466.178 370.768 463.01 370.768C460.178 370.768 457.586 371.272 455.234 372.28C452.93 373.288 450.938 374.68 449.258 376.456C447.578 378.184 446.282 380.248 445.37 382.648C444.458 385.048 444.002 387.64 444.002 390.424C444.002 393.304 444.434 395.944 445.298 398.344C446.21 400.744 447.482 402.808 449.114 404.536C450.746 406.264 452.738 407.608 455.09 408.568C457.442 409.48 460.082 409.936 463.01 409.936C467.234 409.936 470.834 408.976 473.81 407.056C476.786 405.136 478.994 401.944 480.434 397.48H471.434C471.098 398.632 470.186 399.736 468.698 400.792C467.21 401.8 465.434 402.304 463.37 402.304C460.49 402.304 458.282 401.56 456.746 400.072C455.21 398.584 454.37 396.184 454.226 392.872ZM496.218 390.424C496.218 388.936 496.362 387.472 496.65 386.032C496.938 384.592 497.418 383.32 498.09 382.216C498.81 381.112 499.746 380.224 500.898 379.552C502.05 378.832 503.49 378.472 505.218 378.472C506.946 378.472 508.386 378.832 509.538 379.552C510.738 380.224 511.674 381.112 512.346 382.216C513.066 383.32 513.57 384.592 513.858 386.032C514.146 387.472 514.29 388.936 514.29 390.424C514.29 391.912 514.146 393.376 513.858 394.816C513.57 396.208 513.066 397.48 512.346 398.632C511.674 399.736 510.738 400.624 509.538 401.296C508.386 401.968 506.946 402.304 505.218 402.304C503.49 402.304 502.05 401.968 500.898 401.296C499.746 400.624 498.81 399.736 498.09 398.632C497.418 397.48 496.938 396.208 496.65 394.816C496.362 393.376 496.218 391.912 496.218 390.424ZM485.994 390.424C485.994 393.4 486.45 396.088 487.362 398.488C488.274 400.888 489.57 402.952 491.25 404.68C492.93 406.36 494.946 407.656 497.298 408.568C499.65 409.48 502.29 409.936 505.218 409.936C508.146 409.936 510.786 409.48 513.138 408.568C515.538 407.656 517.578 406.36 519.258 404.68C520.938 402.952 522.234 400.888 523.146 398.488C524.058 396.088 524.514 393.4 524.514 390.424C524.514 387.448 524.058 384.76 523.146 382.36C522.234 379.912 520.938 377.848 519.258 376.168C517.578 374.44 515.538 373.12 513.138 372.208C510.786 371.248 508.146 370.768 505.218 370.768C502.29 370.768 499.65 371.248 497.298 372.208C494.946 373.12 492.93 374.44 491.25 376.168C489.57 377.848 488.274 379.912 487.362 382.36C486.45 384.76 485.994 387.448 485.994 390.424ZM549.953 402.304C548.321 402.304 546.929 401.968 545.777 401.296C544.625 400.624 543.689 399.76 542.969 398.704C542.297 397.6 541.793 396.328 541.457 394.888C541.169 393.448 541.025 391.984 541.025 390.496C541.025 388.96 541.169 387.472 541.457 386.032C541.745 384.592 542.225 383.32 542.897 382.216C543.617 381.112 544.529 380.224 545.633 379.552C546.785 378.832 548.201 378.472 549.881 378.472C551.513 378.472 552.881 378.832 553.985 379.552C555.137 380.224 556.073 381.136 556.793 382.288C557.513 383.392 558.017 384.664 558.305 386.104C558.641 387.544 558.809 389.008 558.809 390.496C558.809 391.984 558.665 393.448 558.377 394.888C558.089 396.328 557.585 397.6 556.865 398.704C556.193 399.76 555.281 400.624 554.129 401.296C553.025 401.968 551.633 402.304 549.953 402.304ZM531.161 371.776V422.032H541.385V404.392H541.529C542.777 406.216 544.361 407.608 546.281 408.568C548.249 409.48 550.385 409.936 552.689 409.936C555.425 409.936 557.801 409.408 559.817 408.352C561.881 407.296 563.585 405.88 564.929 404.104C566.321 402.328 567.353 400.288 568.025 397.984C568.697 395.68 569.033 393.28 569.033 390.784C569.033 388.144 568.697 385.624 568.025 383.224C567.353 380.776 566.321 378.64 564.929 376.816C563.537 374.992 561.785 373.528 559.673 372.424C557.561 371.32 555.041 370.768 552.113 370.768C549.809 370.768 547.697 371.224 545.777 372.136C543.857 373.048 542.273 374.512 541.025 376.528H540.881V371.776H531.161ZM575.465 357.592V409H585.689V357.592H575.465ZM618.796 386.392H602.164C602.212 385.672 602.356 384.856 602.596 383.944C602.884 383.032 603.34 382.168 603.964 381.352C604.636 380.536 605.5 379.864 606.556 379.336C607.66 378.76 609.028 378.472 610.66 378.472C613.156 378.472 615.004 379.144 616.204 380.488C617.452 381.832 618.316 383.8 618.796 386.392ZM602.164 392.872H629.02C629.212 389.992 628.972 387.232 628.3 384.592C627.628 381.952 626.524 379.6 624.988 377.536C623.5 375.472 621.58 373.84 619.228 372.64C616.876 371.392 614.116 370.768 610.948 370.768C608.116 370.768 605.524 371.272 603.172 372.28C600.868 373.288 598.876 374.68 597.196 376.456C595.516 378.184 594.22 380.248 593.308 382.648C592.396 385.048 591.94 387.64 591.94 390.424C591.94 393.304 592.372 395.944 593.236 398.344C594.148 400.744 595.42 402.808 597.052 404.536C598.684 406.264 600.676 407.608 603.028 408.568C605.38 409.48 608.02 409.936 610.948 409.936C615.172 409.936 618.772 408.976 621.748 407.056C624.724 405.136 626.932 401.944 628.372 397.48H619.372C619.036 398.632 618.124 399.736 616.636 400.792C615.148 401.8 613.372 402.304 611.308 402.304C608.428 402.304 606.22 401.56 604.684 400.072C603.148 398.584 602.308 396.184 602.164 392.872ZM635.587 397.912V409H640.771C640.819 409.768 640.723 410.512 640.483 411.232C640.243 412 639.883 412.672 639.403 413.248C638.923 413.872 638.347 414.4 637.675 414.832C637.051 415.264 636.379 415.552 635.659 415.696V420.88C637.195 420.64 638.635 420.184 639.979 419.512C641.371 418.888 642.571 418.072 643.579 417.064C644.587 416.056 645.379 414.856 645.955 413.464C646.579 412.12 646.891 410.632 646.891 409V397.912H635.587ZM128.808 585V547.776H118.584V567.288C118.584 571.08 117.96 573.816 116.712 575.496C115.464 577.128 113.448 577.944 110.664 577.944C108.216 577.944 106.512 577.2 105.552 575.712C104.592 574.176 104.112 571.872 104.112 568.8V547.776H93.888V570.672C93.888 572.976 94.08 575.088 94.464 577.008C94.896 578.88 95.616 580.488 96.624 581.832C97.632 583.128 99 584.136 100.728 584.856C102.504 585.576 104.76 585.936 107.496 585.936C109.656 585.936 111.768 585.456 113.832 584.496C115.896 583.536 117.576 581.976 118.872 579.816H119.088V585H128.808ZM136.568 547.776V585H146.792V565.488C146.792 561.696 147.416 558.984 148.664 557.352C149.912 555.672 151.928 554.832 154.712 554.832C157.16 554.832 158.864 555.6 159.824 557.136C160.784 558.624 161.264 560.904 161.264 563.976V585H171.488V562.104C171.488 559.8 171.272 557.712 170.84 555.84C170.456 553.92 169.76 552.312 168.752 551.016C167.744 549.672 166.352 548.64 164.576 547.92C162.848 547.152 160.616 546.768 157.88 546.768C155.72 546.768 153.608 547.272 151.544 548.28C149.48 549.24 147.8 550.8 146.504 552.96H146.288V547.776H136.568ZM187.167 572.904H177.447C177.543 575.4 178.095 577.488 179.103 579.168C180.159 580.8 181.479 582.12 183.063 583.128C184.695 584.136 186.543 584.856 188.607 585.288C190.671 585.72 192.783 585.936 194.943 585.936C197.055 585.936 199.119 585.72 201.135 585.288C203.199 584.904 205.023 584.208 206.607 583.2C208.191 582.192 209.463 580.872 210.423 579.24C211.431 577.56 211.935 575.496 211.935 573.048C211.935 571.32 211.599 569.88 210.927 568.728C210.255 567.528 209.367 566.544 208.263 565.776C207.159 564.96 205.887 564.312 204.447 563.832C203.055 563.352 201.615 562.944 200.127 562.608C198.687 562.272 197.271 561.96 195.879 561.672C194.487 561.384 193.239 561.072 192.135 560.736C191.079 560.352 190.215 559.872 189.543 559.296C188.871 558.72 188.535 557.976 188.535 557.064C188.535 556.296 188.727 555.696 189.111 555.264C189.495 554.784 189.951 554.424 190.479 554.184C191.055 553.944 191.679 553.8 192.351 553.752C193.023 553.656 193.647 553.608 194.223 553.608C196.047 553.608 197.631 553.968 198.975 554.688C200.319 555.36 201.063 556.68 201.207 558.648H210.927C210.735 556.344 210.135 554.448 209.127 552.96C208.167 551.424 206.943 550.2 205.455 549.288C203.967 548.376 202.263 547.728 200.343 547.344C198.471 546.96 196.527 546.768 194.511 546.768C192.495 546.768 190.527 546.96 188.607 547.344C186.687 547.68 184.959 548.304 183.423 549.216C181.887 550.08 180.639 551.28 179.679 552.816C178.767 554.352 178.311 556.32 178.311 558.72C178.311 560.352 178.647 561.744 179.319 562.896C179.991 564 180.879 564.936 181.983 565.704C183.087 566.424 184.335 567.024 185.727 567.504C187.167 567.936 188.631 568.32 190.119 568.656C193.767 569.424 196.599 570.192 198.615 570.96C200.679 571.728 201.711 572.88 201.711 574.416C201.711 575.328 201.495 576.096 201.063 576.72C200.631 577.296 200.079 577.776 199.407 578.16C198.783 578.496 198.063 578.76 197.247 578.952C196.479 579.096 195.735 579.168 195.015 579.168C194.007 579.168 193.023 579.048 192.063 578.808C191.151 578.568 190.335 578.208 189.615 577.728C188.895 577.2 188.295 576.552 187.815 575.784C187.383 574.968 187.167 574.008 187.167 572.904ZM252.839 585V547.776H242.615V567.288C242.615 571.08 241.991 573.816 240.743 575.496C239.495 577.128 237.479 577.944 234.695 577.944C232.247 577.944 230.543 577.2 229.583 575.712C228.623 574.176 228.143 571.872 228.143 568.8V547.776H217.919V570.672C217.919 572.976 218.111 575.088 218.495 577.008C218.927 578.88 219.647 580.488 220.655 581.832C221.663 583.128 223.031 584.136 224.759 584.856C226.535 585.576 228.791 585.936 231.527 585.936C233.687 585.936 235.799 585.456 237.863 584.496C239.927 583.536 241.607 581.976 242.903 579.816H243.119V585H252.839ZM260.599 547.776V585H270.823V568.224C270.823 566.544 270.991 564.984 271.327 563.544C271.663 562.104 272.215 560.856 272.983 559.8C273.799 558.696 274.855 557.832 276.151 557.208C277.447 556.584 279.031 556.272 280.903 556.272C281.527 556.272 282.175 556.32 282.847 556.416C283.519 556.464 284.095 556.536 284.575 556.632V547.128C283.759 546.888 283.015 546.768 282.343 546.768C281.047 546.768 279.799 546.96 278.599 547.344C277.399 547.728 276.271 548.28 275.215 549C274.159 549.672 273.223 550.512 272.407 551.52C271.591 552.48 270.943 553.536 270.463 554.688H270.319V547.776H260.599ZM307.375 578.304C305.743 578.304 304.351 577.968 303.199 577.296C302.047 576.624 301.111 575.76 300.391 574.704C299.719 573.6 299.215 572.328 298.879 570.888C298.591 569.448 298.447 567.984 298.447 566.496C298.447 564.96 298.591 563.472 298.879 562.032C299.167 560.592 299.647 559.32 300.319 558.216C301.039 557.112 301.951 556.224 303.055 555.552C304.207 554.832 305.623 554.472 307.303 554.472C308.935 554.472 310.303 554.832 311.407 555.552C312.559 556.224 313.495 557.136 314.215 558.288C314.935 559.392 315.439 560.664 315.727 562.104C316.063 563.544 316.231 565.008 316.231 566.496C316.231 567.984 316.087 569.448 315.799 570.888C315.511 572.328 315.007 573.6 314.287 574.704C313.615 575.76 312.703 576.624 311.551 577.296C310.447 577.968 309.055 578.304 307.375 578.304ZM288.583 547.776V598.032H298.807V580.392H298.951C300.199 582.216 301.783 583.608 303.703 584.568C305.671 585.48 307.807 585.936 310.111 585.936C312.847 585.936 315.223 585.408 317.239 584.352C319.303 583.296 321.007 581.88 322.351 580.104C323.743 578.328 324.775 576.288 325.447 573.984C326.119 571.68 326.455 569.28 326.455 566.784C326.455 564.144 326.119 561.624 325.447 559.224C324.775 556.776 323.743 554.64 322.351 552.816C320.959 550.992 319.207 549.528 317.095 548.424C314.983 547.32 312.463 546.768 309.535 546.768C307.231 546.768 305.119 547.224 303.199 548.136C301.279 549.048 299.695 550.512 298.447 552.528H298.303V547.776H288.583ZM332.599 547.776V585H342.823V568.224C342.823 566.544 342.991 564.984 343.327 563.544C343.663 562.104 344.215 560.856 344.983 559.8C345.799 558.696 346.855 557.832 348.151 557.208C349.447 556.584 351.031 556.272 352.903 556.272C353.527 556.272 354.175 556.32 354.847 556.416C355.519 556.464 356.095 556.536 356.575 556.632V547.128C355.759 546.888 355.015 546.768 354.343 546.768C353.047 546.768 351.799 546.96 350.599 547.344C349.399 547.728 348.271 548.28 347.215 549C346.159 549.672 345.223 550.512 344.407 551.52C343.591 552.48 342.943 553.536 342.463 554.688H342.319V547.776H332.599ZM371.095 542.016V533.592H360.871V542.016H371.095ZM360.871 547.776V585H371.095V547.776H360.871ZM387.066 572.904H377.346C377.442 575.4 377.994 577.488 379.002 579.168C380.058 580.8 381.378 582.12 382.962 583.128C384.594 584.136 386.442 584.856 388.506 585.288C390.57 585.72 392.682 585.936 394.842 585.936C396.954 585.936 399.018 585.72 401.034 585.288C403.098 584.904 404.922 584.208 406.506 583.2C408.09 582.192 409.362 580.872 410.322 579.24C411.33 577.56 411.834 575.496 411.834 573.048C411.834 571.32 411.498 569.88 410.826 568.728C410.154 567.528 409.266 566.544 408.162 565.776C407.058 564.96 405.786 564.312 404.346 563.832C402.954 563.352 401.514 562.944 400.026 562.608C398.586 562.272 397.17 561.96 395.778 561.672C394.386 561.384 393.138 561.072 392.034 560.736C390.978 560.352 390.114 559.872 389.442 559.296C388.77 558.72 388.434 557.976 388.434 557.064C388.434 556.296 388.626 555.696 389.01 555.264C389.394 554.784 389.85 554.424 390.378 554.184C390.954 553.944 391.578 553.8 392.25 553.752C392.922 553.656 393.546 553.608 394.122 553.608C395.946 553.608 397.53 553.968 398.874 554.688C400.218 555.36 400.962 556.68 401.106 558.648H410.826C410.634 556.344 410.034 554.448 409.026 552.96C408.066 551.424 406.842 550.2 405.354 549.288C403.866 548.376 402.162 547.728 400.242 547.344C398.37 546.96 396.426 546.768 394.41 546.768C392.394 546.768 390.426 546.96 388.506 547.344C386.586 547.68 384.858 548.304 383.322 549.216C381.786 550.08 380.538 551.28 379.578 552.816C378.666 554.352 378.21 556.32 378.21 558.72C378.21 560.352 378.546 561.744 379.218 562.896C379.89 564 380.778 564.936 381.882 565.704C382.986 566.424 384.234 567.024 385.626 567.504C387.066 567.936 388.53 568.32 390.018 568.656C393.666 569.424 396.498 570.192 398.514 570.96C400.578 571.728 401.61 572.88 401.61 574.416C401.61 575.328 401.394 576.096 400.962 576.72C400.53 577.296 399.978 577.776 399.306 578.16C398.682 578.496 397.962 578.76 397.146 578.952C396.378 579.096 395.634 579.168 394.914 579.168C393.906 579.168 392.922 579.048 391.962 578.808C391.05 578.568 390.234 578.208 389.514 577.728C388.794 577.2 388.194 576.552 387.714 575.784C387.282 574.968 387.066 574.008 387.066 572.904ZM428.33 542.016V533.592H418.106V542.016H428.33ZM418.106 547.776V585H428.33V547.776H418.106ZM436.38 547.776V585H446.604V565.488C446.604 561.696 447.228 558.984 448.476 557.352C449.724 555.672 451.74 554.832 454.524 554.832C456.972 554.832 458.676 555.6 459.636 557.136C460.596 558.624 461.076 560.904 461.076 563.976V585H471.3V562.104C471.3 559.8 471.084 557.712 470.652 555.84C470.268 553.92 469.572 552.312 468.564 551.016C467.556 549.672 466.164 548.64 464.388 547.92C462.66 547.152 460.428 546.768 457.692 546.768C455.532 546.768 453.42 547.272 451.356 548.28C449.292 549.24 447.612 550.8 446.316 552.96H446.1V547.776H436.38ZM496.412 576.216C494.828 576.216 493.508 575.88 492.452 575.208C491.396 574.536 490.532 573.672 489.86 572.616C489.236 571.56 488.78 570.384 488.492 569.088C488.252 567.744 488.132 566.4 488.132 565.056C488.132 563.664 488.276 562.344 488.564 561.096C488.9 559.8 489.404 558.672 490.076 557.712C490.796 556.704 491.66 555.912 492.668 555.336C493.724 554.76 494.972 554.472 496.412 554.472C498.092 554.472 499.484 554.784 500.588 555.408C501.692 556.032 502.58 556.872 503.252 557.928C503.924 558.984 504.404 560.208 504.692 561.6C504.98 562.944 505.124 564.384 505.124 565.92C505.124 567.264 504.932 568.56 504.548 569.808C504.212 571.008 503.684 572.088 502.964 573.048C502.244 574.008 501.332 574.776 500.228 575.352C499.124 575.928 497.852 576.216 496.412 576.216ZM514.844 582.624V547.776H505.124V552.744H504.98C503.732 550.584 502.172 549.048 500.3 548.136C498.476 547.224 496.34 546.768 493.892 546.768C491.3 546.768 488.996 547.272 486.98 548.28C485.012 549.288 483.356 550.656 482.012 552.384C480.668 554.064 479.636 556.032 478.916 558.288C478.244 560.496 477.908 562.8 477.908 565.2C477.908 567.744 478.196 570.168 478.772 572.472C479.396 574.728 480.356 576.72 481.652 578.448C482.948 580.128 484.604 581.472 486.62 582.48C488.636 583.44 491.036 583.92 493.82 583.92C496.076 583.92 498.212 583.464 500.228 582.552C502.292 581.592 503.876 580.128 504.98 578.16H505.124V583.056C505.172 585.696 504.524 587.88 503.18 589.608C501.884 591.336 499.796 592.2 496.916 592.2C495.092 592.2 493.484 591.816 492.092 591.048C490.7 590.328 489.764 589.008 489.284 587.088H479.132C479.276 589.2 479.852 591 480.86 592.488C481.916 594.024 483.212 595.272 484.748 596.232C486.332 597.192 488.06 597.888 489.932 598.32C491.852 598.8 493.724 599.04 495.548 599.04C499.82 599.04 503.228 598.464 505.772 597.312C508.316 596.16 510.26 594.744 511.604 593.064C512.948 591.432 513.812 589.656 514.196 587.736C514.628 585.816 514.844 584.112 514.844 582.624ZM523.364 533.592V585H533.588V533.592H523.364ZM559.998 589.608L575.55 547.776H564.966L556.83 573.264H556.686L548.262 547.776H537.39L550.422 582.696C550.71 583.416 550.854 584.184 550.854 585C550.854 586.104 550.518 587.112 549.846 588.024C549.222 588.936 548.238 589.464 546.894 589.608C545.886 589.656 544.878 589.632 543.87 589.536C542.862 589.44 541.878 589.344 540.918 589.248V597.672C541.974 597.768 543.006 597.84 544.014 597.888C545.07 597.984 546.126 598.032 547.182 598.032C550.686 598.032 553.422 597.384 555.39 596.088C557.358 594.792 558.894 592.632 559.998 589.608ZM574.134 573.912V585H579.318C579.366 585.768 579.27 586.512 579.03 587.232C578.79 588 578.43 588.672 577.95 589.248C577.47 589.872 576.894 590.4 576.222 590.832C575.598 591.264 574.926 591.552 574.206 591.696V596.88C575.742 596.64 577.182 596.184 578.526 595.512C579.918 594.888 581.118 594.072 582.126 593.064C583.134 592.056 583.926 590.856 584.502 589.464C585.126 588.12 585.438 586.632 585.438 585V573.912H574.134ZM626.668 547.776V536.616H616.444V547.776H610.252V554.616H616.444V576.576C616.444 578.448 616.756 579.96 617.38 581.112C618.004 582.264 618.844 583.152 619.9 583.776C621.004 584.4 622.252 584.808 623.644 585C625.084 585.24 626.596 585.36 628.18 585.36C629.188 585.36 630.22 585.336 631.276 585.288C632.332 585.24 633.292 585.144 634.156 585V577.08C633.676 577.176 633.172 577.248 632.644 577.296C632.116 577.344 631.564 577.368 630.988 577.368C629.26 577.368 628.108 577.08 627.532 576.504C626.956 575.928 626.668 574.776 626.668 573.048V554.616H634.156V547.776H626.668ZM639.021 533.592V585H649.245V565.488C649.245 561.696 649.869 558.984 651.117 557.352C652.365 555.672 654.381 554.832 657.165 554.832C659.613 554.832 661.317 555.6 662.277 557.136C663.237 558.624 663.717 560.904 663.717 563.976V585H673.941V562.104C673.941 559.8 673.725 557.712 673.293 555.84C672.909 553.92 672.213 552.312 671.205 551.016C670.197 549.672 668.805 548.64 667.029 547.92C665.301 547.152 663.069 546.768 660.333 546.768C658.413 546.768 656.445 547.272 654.429 548.28C652.413 549.24 650.757 550.8 649.461 552.96H649.245V533.592H639.021ZM706.757 562.392H690.125C690.173 561.672 690.317 560.856 690.557 559.944C690.845 559.032 691.301 558.168 691.925 557.352C692.597 556.536 693.461 555.864 694.517 555.336C695.621 554.76 696.989 554.472 698.621 554.472C701.117 554.472 702.965 555.144 704.165 556.488C705.413 557.832 706.277 559.8 706.757 562.392ZM690.125 568.872H716.981C717.173 565.992 716.933 563.232 716.261 560.592C715.589 557.952 714.485 555.6 712.949 553.536C711.461 551.472 709.541 549.84 707.189 548.64C704.837 547.392 702.077 546.768 698.909 546.768C696.077 546.768 693.485 547.272 691.133 548.28C688.829 549.288 686.837 550.68 685.157 552.456C683.477 554.184 682.181 556.248 681.269 558.648C680.357 561.048 679.901 563.64 679.901 566.424C679.901 569.304 680.333 571.944 681.197 574.344C682.109 576.744 683.381 578.808 685.013 580.536C686.645 582.264 688.637 583.608 690.989 584.568C693.341 585.48 695.981 585.936 698.909 585.936C703.133 585.936 706.733 584.976 709.709 583.056C712.685 581.136 714.893 577.944 716.333 573.48H707.333C706.997 574.632 706.085 575.736 704.597 576.792C703.109 577.8 701.333 578.304 699.269 578.304C696.389 578.304 694.181 577.56 692.645 576.072C691.109 574.584 690.269 572.184 690.125 568.872ZM94.176 635.776V673H104.4V651.4C104.4 649.576 104.664 648.112 105.192 647.008C105.72 645.856 106.344 644.992 107.064 644.416C107.832 643.792 108.6 643.384 109.368 643.192C110.184 642.952 110.832 642.832 111.312 642.832C112.944 642.832 114.168 643.12 114.984 643.696C115.848 644.224 116.448 644.944 116.784 645.856C117.168 646.768 117.384 647.776 117.432 648.88C117.48 649.936 117.504 651.016 117.504 652.12V673H127.728V652.264C127.728 651.112 127.8 649.984 127.944 648.88C128.136 647.728 128.472 646.72 128.952 645.856C129.48 644.944 130.176 644.224 131.04 643.696C131.952 643.12 133.128 642.832 134.568 642.832C136.008 642.832 137.136 643.072 137.952 643.552C138.816 644.032 139.464 644.68 139.896 645.496C140.328 646.312 140.592 647.272 140.688 648.376C140.784 649.48 140.832 650.656 140.832 651.904V673H151.056V648.088C151.056 645.688 150.72 643.648 150.048 641.968C149.376 640.24 148.44 638.848 147.24 637.792C146.04 636.736 144.6 635.968 142.92 635.488C141.24 635.008 139.416 634.768 137.448 634.768C134.856 634.768 132.6 635.392 130.68 636.64C128.808 637.888 127.32 639.328 126.216 640.96C125.208 638.656 123.72 637.048 121.752 636.136C119.832 635.224 117.696 634.768 115.344 634.768C112.896 634.768 110.712 635.296 108.792 636.352C106.92 637.408 105.312 638.896 103.968 640.816H103.824V635.776H94.176ZM158.706 647.224C158.85 644.824 159.45 642.832 160.506 641.248C161.562 639.664 162.906 638.392 164.538 637.432C166.17 636.472 167.994 635.8 170.01 635.416C172.074 634.984 174.138 634.768 176.202 634.768C178.074 634.768 179.97 634.912 181.89 635.2C183.81 635.44 185.562 635.944 187.146 636.712C188.73 637.48 190.026 638.56 191.034 639.952C192.042 641.296 192.546 643.096 192.546 645.352V664.72C192.546 666.4 192.642 668.008 192.834 669.544C193.026 671.08 193.362 672.232 193.842 673H183.474C183.282 672.424 183.114 671.848 182.97 671.272C182.874 670.648 182.802 670.024 182.754 669.4C181.122 671.08 179.202 672.256 176.994 672.928C174.786 673.6 172.53 673.936 170.226 673.936C168.45 673.936 166.794 673.72 165.258 673.288C163.722 672.856 162.378 672.184 161.226 671.272C160.074 670.36 159.162 669.208 158.49 667.816C157.866 666.424 157.554 664.768 157.554 662.848C157.554 660.736 157.914 659.008 158.634 657.664C159.402 656.272 160.362 655.168 161.514 654.352C162.714 653.536 164.058 652.936 165.546 652.552C167.082 652.12 168.618 651.784 170.154 651.544C171.69 651.304 173.202 651.112 174.69 650.968C176.178 650.824 177.498 650.608 178.65 650.32C179.802 650.032 180.714 649.624 181.386 649.096C182.058 648.52 182.37 647.704 182.322 646.648C182.322 645.544 182.13 644.68 181.746 644.056C181.41 643.384 180.93 642.88 180.306 642.544C179.73 642.16 179.034 641.92 178.218 641.824C177.45 641.68 176.61 641.608 175.698 641.608C173.682 641.608 172.098 642.04 170.946 642.904C169.794 643.768 169.122 645.208 168.93 647.224H158.706ZM182.322 654.784C181.89 655.168 181.338 655.48 180.666 655.72C180.042 655.912 179.346 656.08 178.578 656.224C177.858 656.368 177.09 656.488 176.274 656.584C175.458 656.68 174.642 656.8 173.826 656.944C173.058 657.088 172.29 657.28 171.522 657.52C170.802 657.76 170.154 658.096 169.578 658.528C169.05 658.912 168.618 659.416 168.282 660.04C167.946 660.664 167.778 661.456 167.778 662.416C167.778 663.328 167.946 664.096 168.282 664.72C168.618 665.344 169.074 665.848 169.65 666.232C170.226 666.568 170.898 666.808 171.666 666.952C172.434 667.096 173.226 667.168 174.042 667.168C176.058 667.168 177.618 666.832 178.722 666.16C179.826 665.488 180.642 664.696 181.17 663.784C181.698 662.824 182.01 661.864 182.106 660.904C182.25 659.944 182.322 659.176 182.322 658.6V654.784ZM211.642 630.016V621.592H201.418V630.016H211.642ZM195.298 677.32V685.744C196.258 685.936 197.338 686.032 198.538 686.032C201.13 686.032 203.266 685.792 204.946 685.312C206.626 684.88 207.946 684.184 208.906 683.224C209.914 682.312 210.61 681.16 210.994 679.768C211.426 678.376 211.642 676.72 211.642 674.8V635.776H201.418V674.296C201.418 675.688 201.01 676.576 200.194 676.96C199.426 677.392 198.514 677.608 197.458 677.608C196.546 677.608 195.826 677.512 195.298 677.32ZM229.593 654.424C229.593 652.936 229.737 651.472 230.025 650.032C230.313 648.592 230.793 647.32 231.465 646.216C232.185 645.112 233.121 644.224 234.273 643.552C235.425 642.832 236.865 642.472 238.593 642.472C240.321 642.472 241.761 642.832 242.913 643.552C244.113 644.224 245.049 645.112 245.721 646.216C246.441 647.32 246.945 648.592 247.233 650.032C247.521 651.472 247.665 652.936 247.665 654.424C247.665 655.912 247.521 657.376 247.233 658.816C246.945 660.208 246.441 661.48 245.721 662.632C245.049 663.736 244.113 664.624 242.913 665.296C241.761 665.968 240.321 666.304 238.593 666.304C236.865 666.304 235.425 665.968 234.273 665.296C233.121 664.624 232.185 663.736 231.465 662.632C230.793 661.48 230.313 660.208 230.025 658.816C229.737 657.376 229.593 655.912 229.593 654.424ZM219.369 654.424C219.369 657.4 219.825 660.088 220.737 662.488C221.649 664.888 222.945 666.952 224.625 668.68C226.305 670.36 228.321 671.656 230.673 672.568C233.025 673.48 235.665 673.936 238.593 673.936C241.521 673.936 244.161 673.48 246.513 672.568C248.913 671.656 250.953 670.36 252.633 668.68C254.313 666.952 255.609 664.888 256.521 662.488C257.433 660.088 257.889 657.4 257.889 654.424C257.889 651.448 257.433 648.76 256.521 646.36C255.609 643.912 254.313 641.848 252.633 640.168C250.953 638.44 248.913 637.12 246.513 636.208C244.161 635.248 241.521 634.768 238.593 634.768C235.665 634.768 233.025 635.248 230.673 636.208C228.321 637.12 226.305 638.44 224.625 640.168C222.945 641.848 221.649 643.912 220.737 646.36C219.825 648.76 219.369 651.448 219.369 654.424ZM264.536 635.776V673H274.76V656.224C274.76 654.544 274.928 652.984 275.264 651.544C275.6 650.104 276.152 648.856 276.92 647.8C277.736 646.696 278.792 645.832 280.088 645.208C281.384 644.584 282.968 644.272 284.84 644.272C285.464 644.272 286.112 644.32 286.784 644.416C287.456 644.464 288.032 644.536 288.512 644.632V635.128C287.696 634.888 286.952 634.768 286.28 634.768C284.984 634.768 283.736 634.96 282.536 635.344C281.336 635.728 280.208 636.28 279.152 637C278.096 637.672 277.16 638.512 276.344 639.52C275.528 640.48 274.88 641.536 274.4 642.688H274.256V635.776H264.536ZM303.033 630.016V621.592H292.809V630.016H303.033ZM292.809 635.776V673H303.033V635.776H292.809ZM324.043 635.776V624.616H313.819V635.776H307.627V642.616H313.819V664.576C313.819 666.448 314.131 667.96 314.755 669.112C315.379 670.264 316.219 671.152 317.275 671.776C318.379 672.4 319.627 672.808 321.019 673C322.459 673.24 323.971 673.36 325.555 673.36C326.563 673.36 327.595 673.336 328.651 673.288C329.707 673.24 330.667 673.144 331.531 673V665.08C331.051 665.176 330.547 665.248 330.019 665.296C329.491 665.344 328.939 665.368 328.363 665.368C326.635 665.368 325.483 665.08 324.907 664.504C324.331 663.928 324.043 662.776 324.043 661.048V642.616H331.531V635.776H324.043ZM354.756 677.608L370.308 635.776H359.724L351.588 661.264H351.444L343.02 635.776H332.148L345.18 670.696C345.468 671.416 345.612 672.184 345.612 673C345.612 674.104 345.276 675.112 344.604 676.024C343.98 676.936 342.996 677.464 341.652 677.608C340.644 677.656 339.636 677.632 338.628 677.536C337.62 677.44 336.636 677.344 335.676 677.248V685.672C336.732 685.768 337.764 685.84 338.772 685.888C339.828 685.984 340.884 686.032 341.94 686.032C345.444 686.032 348.18 685.384 350.148 684.088C352.116 682.792 353.652 680.632 354.756 677.608ZM404.283 630.016V621.592H394.059V630.016H404.283ZM394.059 635.776V673H404.283V635.776H394.059ZM420.253 660.904H410.533C410.629 663.4 411.181 665.488 412.189 667.168C413.245 668.8 414.565 670.12 416.149 671.128C417.781 672.136 419.629 672.856 421.693 673.288C423.757 673.72 425.869 673.936 428.029 673.936C430.141 673.936 432.205 673.72 434.221 673.288C436.285 672.904 438.109 672.208 439.693 671.2C441.277 670.192 442.549 668.872 443.509 667.24C444.517 665.56 445.021 663.496 445.021 661.048C445.021 659.32 444.685 657.88 444.013 656.728C443.341 655.528 442.453 654.544 441.349 653.776C440.245 652.96 438.973 652.312 437.533 651.832C436.141 651.352 434.701 650.944 433.213 650.608C431.773 650.272 430.357 649.96 428.965 649.672C427.573 649.384 426.325 649.072 425.221 648.736C424.165 648.352 423.301 647.872 422.629 647.296C421.957 646.72 421.621 645.976 421.621 645.064C421.621 644.296 421.813 643.696 422.197 643.264C422.581 642.784 423.037 642.424 423.565 642.184C424.141 641.944 424.765 641.8 425.437 641.752C426.109 641.656 426.733 641.608 427.309 641.608C429.133 641.608 430.717 641.968 432.061 642.688C433.405 643.36 434.149 644.68 434.293 646.648H444.013C443.821 644.344 443.221 642.448 442.213 640.96C441.253 639.424 440.029 638.2 438.541 637.288C437.053 636.376 435.349 635.728 433.429 635.344C431.557 634.96 429.613 634.768 427.597 634.768C425.581 634.768 423.613 634.96 421.693 635.344C419.773 635.68 418.045 636.304 416.509 637.216C414.973 638.08 413.725 639.28 412.765 640.816C411.853 642.352 411.397 644.32 411.397 646.72C411.397 648.352 411.733 649.744 412.405 650.896C413.077 652 413.965 652.936 415.069 653.704C416.173 654.424 417.421 655.024 418.813 655.504C420.253 655.936 421.717 656.32 423.205 656.656C426.853 657.424 429.685 658.192 431.701 658.96C433.765 659.728 434.797 660.88 434.797 662.416C434.797 663.328 434.581 664.096 434.149 664.72C433.717 665.296 433.165 665.776 432.493 666.16C431.869 666.496 431.149 666.76 430.333 666.952C429.565 667.096 428.821 667.168 428.101 667.168C427.093 667.168 426.109 667.048 425.149 666.808C424.237 666.568 423.421 666.208 422.701 665.728C421.981 665.2 421.381 664.552 420.901 663.784C420.469 662.968 420.253 662.008 420.253 660.904ZM471.332 635.776V673H481.556V651.4C481.556 649.576 481.82 648.112 482.348 647.008C482.876 645.856 483.5 644.992 484.22 644.416C484.988 643.792 485.756 643.384 486.524 643.192C487.34 642.952 487.988 642.832 488.468 642.832C490.1 642.832 491.324 643.12 492.14 643.696C493.004 644.224 493.604 644.944 493.94 645.856C494.324 646.768 494.54 647.776 494.588 648.88C494.636 649.936 494.66 651.016 494.66 652.12V673H504.884V652.264C504.884 651.112 504.956 649.984 505.1 648.88C505.292 647.728 505.628 646.72 506.108 645.856C506.636 644.944 507.332 644.224 508.196 643.696C509.108 643.12 510.284 642.832 511.724 642.832C513.164 642.832 514.292 643.072 515.108 643.552C515.972 644.032 516.62 644.68 517.052 645.496C517.484 646.312 517.748 647.272 517.844 648.376C517.94 649.48 517.988 650.656 517.988 651.904V673H528.212V648.088C528.212 645.688 527.876 643.648 527.204 641.968C526.532 640.24 525.596 638.848 524.396 637.792C523.196 636.736 521.756 635.968 520.076 635.488C518.396 635.008 516.572 634.768 514.604 634.768C512.012 634.768 509.756 635.392 507.836 636.64C505.964 637.888 504.476 639.328 503.372 640.96C502.364 638.656 500.876 637.048 498.908 636.136C496.988 635.224 494.852 634.768 492.5 634.768C490.052 634.768 487.868 635.296 485.948 636.352C484.076 637.408 482.468 638.896 481.124 640.816H480.98V635.776H471.332ZM535.862 647.224C536.006 644.824 536.606 642.832 537.662 641.248C538.718 639.664 540.062 638.392 541.694 637.432C543.326 636.472 545.15 635.8 547.166 635.416C549.23 634.984 551.294 634.768 553.358 634.768C555.23 634.768 557.126 634.912 559.046 635.2C560.966 635.44 562.718 635.944 564.302 636.712C565.886 637.48 567.182 638.56 568.19 639.952C569.198 641.296 569.702 643.096 569.702 645.352V664.72C569.702 666.4 569.798 668.008 569.99 669.544C570.182 671.08 570.518 672.232 570.998 673H560.63C560.438 672.424 560.27 671.848 560.126 671.272C560.03 670.648 559.958 670.024 559.91 669.4C558.278 671.08 556.358 672.256 554.15 672.928C551.942 673.6 549.686 673.936 547.382 673.936C545.606 673.936 543.95 673.72 542.414 673.288C540.878 672.856 539.534 672.184 538.382 671.272C537.23 670.36 536.318 669.208 535.646 667.816C535.022 666.424 534.71 664.768 534.71 662.848C534.71 660.736 535.07 659.008 535.79 657.664C536.558 656.272 537.518 655.168 538.67 654.352C539.87 653.536 541.214 652.936 542.702 652.552C544.238 652.12 545.774 651.784 547.31 651.544C548.846 651.304 550.358 651.112 551.846 650.968C553.334 650.824 554.654 650.608 555.806 650.32C556.958 650.032 557.87 649.624 558.542 649.096C559.214 648.52 559.526 647.704 559.478 646.648C559.478 645.544 559.286 644.68 558.902 644.056C558.566 643.384 558.086 642.88 557.462 642.544C556.886 642.16 556.19 641.92 555.374 641.824C554.606 641.68 553.766 641.608 552.854 641.608C550.838 641.608 549.254 642.04 548.102 642.904C546.95 643.768 546.278 645.208 546.086 647.224H535.862ZM559.478 654.784C559.046 655.168 558.494 655.48 557.822 655.72C557.198 655.912 556.502 656.08 555.734 656.224C555.014 656.368 554.246 656.488 553.43 656.584C552.614 656.68 551.798 656.8 550.982 656.944C550.214 657.088 549.446 657.28 548.678 657.52C547.958 657.76 547.31 658.096 546.734 658.528C546.206 658.912 545.774 659.416 545.438 660.04C545.102 660.664 544.934 661.456 544.934 662.416C544.934 663.328 545.102 664.096 545.438 664.72C545.774 665.344 546.23 665.848 546.806 666.232C547.382 666.568 548.054 666.808 548.822 666.952C549.59 667.096 550.382 667.168 551.198 667.168C553.214 667.168 554.774 666.832 555.878 666.16C556.982 665.488 557.798 664.696 558.326 663.784C558.854 662.824 559.166 661.864 559.262 660.904C559.406 659.944 559.478 659.176 559.478 658.6V654.784ZM577.926 621.592V673H588.15V621.592H577.926ZM621.257 650.392H604.625C604.673 649.672 604.817 648.856 605.057 647.944C605.345 647.032 605.801 646.168 606.425 645.352C607.097 644.536 607.961 643.864 609.017 643.336C610.121 642.76 611.489 642.472 613.121 642.472C615.617 642.472 617.465 643.144 618.665 644.488C619.913 645.832 620.777 647.8 621.257 650.392ZM604.625 656.872H631.481C631.673 653.992 631.433 651.232 630.761 648.592C630.089 645.952 628.985 643.6 627.449 641.536C625.961 639.472 624.041 637.84 621.689 636.64C619.337 635.392 616.577 634.768 613.409 634.768C610.577 634.768 607.985 635.272 605.633 636.28C603.329 637.288 601.337 638.68 599.657 640.456C597.977 642.184 596.681 644.248 595.769 646.648C594.857 649.048 594.401 651.64 594.401 654.424C594.401 657.304 594.833 659.944 595.697 662.344C596.609 664.744 597.881 666.808 599.513 668.536C601.145 670.264 603.137 671.608 605.489 672.568C607.841 673.48 610.481 673.936 613.409 673.936C617.633 673.936 621.233 672.976 624.209 671.056C627.185 669.136 629.393 665.944 630.833 661.48H621.833C621.497 662.632 620.585 663.736 619.097 664.792C617.609 665.8 615.833 666.304 613.769 666.304C610.889 666.304 608.681 665.56 607.145 664.072C605.609 662.584 604.769 660.184 604.625 656.872ZM637.976 661.912V673H649.28V661.912H637.976Z" fill="white"/>
</svg>
