<svg width="1920" height="1080" viewBox="0 0 1920 1080" fill="none" xmlns="http://www.w3.org/2000/svg">
<g clip-path="url(#clip0)">
<rect width="1920" height="1080" fill="white"/>
<path fill-rule="evenodd" clip-rule="evenodd" d="M1941.13 448.54L-53.9999 942L-56.4009 932.293L1938.73 438.833L1941.13 448.54Z" fill="black"/>
<path fill-rule="evenodd" clip-rule="evenodd" d="M1974.97 164L496 1184.6L490.32 1176.37L1969.29 155.769L1974.97 164Z" fill="black"/>
<path fill-rule="evenodd" clip-rule="evenodd" d="M1346 1080L1342 -1.15596e-05L1352 -0.0370483L1356 1079.96L1346 1080Z" fill="black"/>
<path d="M122.544 331.8V307.752H143.712C145.728 307.752 147.648 307.944 149.472 308.328C151.392 308.616 153.072 309.192 154.512 310.056C155.952 310.92 157.104 312.12 157.968 313.656C158.832 315.192 159.264 317.16 159.264 319.56C159.264 323.88 157.968 327 155.376 328.92C152.784 330.84 149.472 331.8 145.44 331.8H122.544ZM99.936 290.184V393H149.76C154.368 393 158.832 392.424 163.152 391.272C167.568 390.12 171.456 388.344 174.816 385.944C178.272 383.544 181.008 380.472 183.024 376.728C185.04 372.888 186.048 368.376 186.048 363.192C186.048 356.76 184.464 351.288 181.296 346.776C178.224 342.168 173.52 338.952 167.184 337.128C171.792 334.92 175.248 332.088 177.552 328.632C179.952 325.176 181.152 320.856 181.152 315.672C181.152 310.872 180.336 306.84 178.704 303.576C177.168 300.312 174.96 297.72 172.08 295.8C169.2 293.784 165.744 292.344 161.712 291.48C157.68 290.616 153.216 290.184 148.32 290.184H99.936ZM122.544 375.432V347.208H147.168C152.064 347.208 156 348.36 158.976 350.664C161.952 352.872 163.44 356.616 163.44 361.896C163.44 364.584 162.96 366.792 162 368.52C161.136 370.248 159.936 371.64 158.4 372.696C156.864 373.656 155.088 374.376 153.072 374.856C151.056 375.24 148.944 375.432 146.736 375.432H122.544ZM198.303 341.448C198.591 336.648 199.791 332.664 201.903 329.496C204.015 326.328 206.703 323.784 209.967 321.864C213.231 319.944 216.879 318.6 220.911 317.832C225.039 316.968 229.167 316.536 233.295 316.536C237.039 316.536 240.831 316.824 244.671 317.4C248.511 317.88 252.015 318.888 255.183 320.424C258.351 321.96 260.943 324.12 262.959 326.904C264.975 329.592 265.983 333.192 265.983 337.704V376.44C265.983 379.8 266.175 383.016 266.559 386.088C266.943 389.16 267.615 391.464 268.575 393H247.839C247.455 391.848 247.119 390.696 246.831 389.544C246.639 388.296 246.495 387.048 246.399 385.8C243.135 389.16 239.295 391.512 234.879 392.856C230.463 394.2 225.951 394.872 221.343 394.872C217.791 394.872 214.479 394.44 211.407 393.576C208.335 392.712 205.647 391.368 203.343 389.544C201.039 387.72 199.215 385.416 197.871 382.632C196.623 379.848 195.999 376.536 195.999 372.696C195.999 368.472 196.719 365.016 198.159 362.328C199.695 359.544 201.615 357.336 203.919 355.704C206.319 354.072 209.007 352.872 211.983 352.104C215.055 351.24 218.127 350.568 221.199 350.088C224.271 349.608 227.295 349.224 230.271 348.936C233.247 348.648 235.887 348.216 238.191 347.64C240.495 347.064 242.319 346.248 243.663 345.192C245.007 344.04 245.631 342.408 245.535 340.296C245.535 338.088 245.151 336.36 244.383 335.112C243.711 333.768 242.751 332.76 241.503 332.088C240.351 331.32 238.959 330.84 237.327 330.648C235.791 330.36 234.111 330.216 232.287 330.216C228.255 330.216 225.087 331.08 222.783 332.808C220.479 334.536 219.135 337.416 218.751 341.448H198.303ZM245.535 356.568C244.671 357.336 243.567 357.96 242.223 358.44C240.975 358.824 239.583 359.16 238.047 359.448C236.607 359.736 235.071 359.976 233.439 360.168C231.807 360.36 230.175 360.6 228.543 360.888C227.007 361.176 225.471 361.56 223.935 362.04C222.495 362.52 221.199 363.192 220.047 364.056C218.991 364.824 218.127 365.832 217.455 367.08C216.783 368.328 216.447 369.912 216.447 371.832C216.447 373.656 216.783 375.192 217.455 376.44C218.127 377.688 219.039 378.696 220.191 379.464C221.343 380.136 222.687 380.616 224.223 380.904C225.759 381.192 227.343 381.336 228.975 381.336C233.007 381.336 236.127 380.664 238.335 379.32C240.543 377.976 242.175 376.392 243.231 374.568C244.287 372.648 244.911 370.728 245.103 368.808C245.391 366.888 245.535 365.352 245.535 364.2V356.568ZM281.854 318.552V393H302.302V359.448C302.302 356.088 302.638 352.968 303.31 350.088C303.982 347.208 305.086 344.712 306.622 342.6C308.254 340.392 310.366 338.664 312.958 337.416C315.55 336.168 318.718 335.544 322.462 335.544C323.71 335.544 325.006 335.64 326.35 335.832C327.694 335.928 328.846 336.072 329.806 336.264V317.256C328.174 316.776 326.686 316.536 325.342 316.536C322.75 316.536 320.254 316.92 317.854 317.688C315.454 318.456 313.198 319.56 311.086 321C308.974 322.344 307.102 324.024 305.47 326.04C303.838 327.96 302.542 330.072 301.582 332.376H301.294V318.552H281.854ZM385.98 344.76H405.996C405.708 339.96 404.556 335.832 402.54 332.376C400.524 328.824 397.884 325.896 394.62 323.592C391.452 321.192 387.804 319.416 383.676 318.264C379.644 317.112 375.42 316.536 371.004 316.536C364.956 316.536 359.58 317.544 354.876 319.56C350.172 321.576 346.188 324.408 342.924 328.056C339.66 331.608 337.164 335.88 335.436 340.872C333.804 345.768 332.988 351.096 332.988 356.856C332.988 362.424 333.9 367.56 335.724 372.264C337.548 376.872 340.092 380.856 343.356 384.216C346.62 387.576 350.556 390.216 355.164 392.136C359.868 393.96 365.004 394.872 370.572 394.872C380.46 394.872 388.572 392.28 394.908 387.096C401.244 381.912 405.084 374.376 406.428 364.488H386.7C386.028 369.096 384.348 372.792 381.66 375.576C379.068 378.264 375.324 379.608 370.428 379.608C367.26 379.608 364.572 378.888 362.364 377.448C360.156 376.008 358.38 374.184 357.036 371.976C355.788 369.672 354.876 367.128 354.3 364.344C353.724 361.56 353.436 358.824 353.436 356.136C353.436 353.352 353.724 350.568 354.3 347.784C354.876 344.904 355.836 342.312 357.18 340.008C358.62 337.608 360.444 335.688 362.652 334.248C364.86 332.712 367.596 331.944 370.86 331.944C379.596 331.944 384.636 336.216 385.98 344.76ZM468.091 347.784H434.827C434.923 346.344 435.211 344.712 435.691 342.888C436.267 341.064 437.179 339.336 438.427 337.704C439.771 336.072 441.499 334.728 443.611 333.672C445.819 332.52 448.555 331.944 451.819 331.944C456.811 331.944 460.507 333.288 462.907 335.976C465.403 338.664 467.131 342.6 468.091 347.784ZM434.827 360.744H488.539C488.923 354.984 488.443 349.464 487.099 344.184C485.755 338.904 483.547 334.2 480.475 330.072C477.499 325.944 473.659 322.68 468.955 320.28C464.251 317.784 458.731 316.536 452.395 316.536C446.731 316.536 441.547 317.544 436.843 319.56C432.235 321.576 428.251 324.36 424.891 327.912C421.531 331.368 418.939 335.496 417.115 340.296C415.291 345.096 414.379 350.28 414.379 355.848C414.379 361.608 415.243 366.888 416.971 371.688C418.795 376.488 421.339 380.616 424.603 384.072C427.867 387.528 431.851 390.216 436.555 392.136C441.259 393.96 446.539 394.872 452.395 394.872C460.843 394.872 468.043 392.952 473.995 389.112C479.947 385.272 484.363 378.888 487.243 369.96H469.243C468.571 372.264 466.747 374.472 463.771 376.584C460.795 378.6 457.243 379.608 453.115 379.608C447.355 379.608 442.939 378.12 439.867 375.144C436.795 372.168 435.115 367.368 434.827 360.744ZM501.243 290.184V393H521.691V290.184H501.243ZM555.936 355.848C555.936 352.872 556.224 349.944 556.8 347.064C557.376 344.184 558.336 341.64 559.68 339.432C561.12 337.224 562.992 335.448 565.296 334.104C567.6 332.664 570.48 331.944 573.936 331.944C577.392 331.944 580.272 332.664 582.576 334.104C584.976 335.448 586.848 337.224 588.192 339.432C589.632 341.64 590.64 344.184 591.216 347.064C591.792 349.944 592.08 352.872 592.08 355.848C592.08 358.824 591.792 361.752 591.216 364.632C590.64 367.416 589.632 369.96 588.192 372.264C586.848 374.472 584.976 376.248 582.576 377.592C580.272 378.936 577.392 379.608 573.936 379.608C570.48 379.608 567.6 378.936 565.296 377.592C562.992 376.248 561.12 374.472 559.68 372.264C558.336 369.96 557.376 367.416 556.8 364.632C556.224 361.752 555.936 358.824 555.936 355.848ZM535.488 355.848C535.488 361.8 536.4 367.176 538.224 371.976C540.048 376.776 542.64 380.904 546 384.36C549.36 387.72 553.392 390.312 558.096 392.136C562.8 393.96 568.08 394.872 573.936 394.872C579.792 394.872 585.072 393.96 589.776 392.136C594.576 390.312 598.656 387.72 602.016 384.36C605.376 380.904 607.968 376.776 609.792 371.976C611.616 367.176 612.528 361.8 612.528 355.848C612.528 349.896 611.616 344.52 609.792 339.72C607.968 334.824 605.376 330.696 602.016 327.336C598.656 323.88 594.576 321.24 589.776 319.416C585.072 317.496 579.792 316.536 573.936 316.536C568.08 316.536 562.8 317.496 558.096 319.416C553.392 321.24 549.36 323.88 546 327.336C542.64 330.696 540.048 334.824 538.224 339.72C536.4 344.52 535.488 349.896 535.488 355.848ZM625.823 318.552V393H646.271V353.976C646.271 346.392 647.519 340.968 650.015 337.704C652.511 334.344 656.543 332.664 662.111 332.664C667.007 332.664 670.415 334.2 672.335 337.272C674.255 340.248 675.215 344.808 675.215 350.952V393H695.663V347.208C695.663 342.6 695.231 338.424 694.367 334.68C693.599 330.84 692.207 327.624 690.191 325.032C688.175 322.344 685.391 320.28 681.839 318.84C678.383 317.304 673.919 316.536 668.447 316.536C664.127 316.536 659.903 317.544 655.775 319.56C651.647 321.48 648.287 324.6 645.695 328.92H645.263V318.552H625.823ZM710.318 341.448C710.606 336.648 711.806 332.664 713.918 329.496C716.03 326.328 718.718 323.784 721.982 321.864C725.246 319.944 728.894 318.6 732.926 317.832C737.054 316.968 741.182 316.536 745.31 316.536C749.054 316.536 752.846 316.824 756.686 317.4C760.526 317.88 764.03 318.888 767.198 320.424C770.366 321.96 772.958 324.12 774.974 326.904C776.99 329.592 777.998 333.192 777.998 337.704V376.44C777.998 379.8 778.19 383.016 778.574 386.088C778.958 389.16 779.63 391.464 780.59 393H759.854C759.47 391.848 759.134 390.696 758.846 389.544C758.654 388.296 758.51 387.048 758.414 385.8C755.15 389.16 751.31 391.512 746.894 392.856C742.478 394.2 737.966 394.872 733.358 394.872C729.806 394.872 726.494 394.44 723.422 393.576C720.35 392.712 717.662 391.368 715.358 389.544C713.054 387.72 711.23 385.416 709.886 382.632C708.638 379.848 708.014 376.536 708.014 372.696C708.014 368.472 708.734 365.016 710.174 362.328C711.71 359.544 713.63 357.336 715.934 355.704C718.334 354.072 721.022 352.872 723.998 352.104C727.07 351.24 730.142 350.568 733.214 350.088C736.286 349.608 739.31 349.224 742.286 348.936C745.262 348.648 747.902 348.216 750.206 347.64C752.51 347.064 754.334 346.248 755.678 345.192C757.022 344.04 757.646 342.408 757.55 340.296C757.55 338.088 757.166 336.36 756.398 335.112C755.726 333.768 754.766 332.76 753.518 332.088C752.366 331.32 750.974 330.84 749.342 330.648C747.806 330.36 746.126 330.216 744.302 330.216C740.27 330.216 737.102 331.08 734.798 332.808C732.494 334.536 731.15 337.416 730.766 341.448H710.318ZM757.55 356.568C756.686 357.336 755.582 357.96 754.238 358.44C752.99 358.824 751.598 359.16 750.062 359.448C748.622 359.736 747.086 359.976 745.454 360.168C743.822 360.36 742.19 360.6 740.558 360.888C739.022 361.176 737.486 361.56 735.95 362.04C734.51 362.52 733.214 363.192 732.062 364.056C731.006 364.824 730.142 365.832 729.47 367.08C728.798 368.328 728.462 369.912 728.462 371.832C728.462 373.656 728.798 375.192 729.47 376.44C730.142 377.688 731.054 378.696 732.206 379.464C733.358 380.136 734.702 380.616 736.238 380.904C737.774 381.192 739.358 381.336 740.99 381.336C745.022 381.336 748.142 380.664 750.35 379.32C752.558 377.976 754.19 376.392 755.246 374.568C756.302 372.648 756.926 370.728 757.118 368.808C757.406 366.888 757.55 365.352 757.55 364.2V356.568ZM833.948 290.184V393H854.396V353.976C854.396 346.392 855.644 340.968 858.14 337.704C860.636 334.344 864.668 332.664 870.236 332.664C875.132 332.664 878.54 334.2 880.46 337.272C882.38 340.248 883.34 344.808 883.34 350.952V393H903.788V347.208C903.788 342.6 903.356 338.424 902.492 334.68C901.724 330.84 900.332 327.624 898.316 325.032C896.3 322.344 893.516 320.28 889.964 318.84C886.508 317.304 882.044 316.536 876.572 316.536C872.732 316.536 868.796 317.544 864.764 319.56C860.732 321.48 857.42 324.6 854.828 328.92H854.396V290.184H833.948ZM918.443 341.448C918.731 336.648 919.931 332.664 922.043 329.496C924.155 326.328 926.843 323.784 930.107 321.864C933.371 319.944 937.019 318.6 941.051 317.832C945.179 316.968 949.307 316.536 953.435 316.536C957.179 316.536 960.971 316.824 964.811 317.4C968.651 317.88 972.155 318.888 975.323 320.424C978.491 321.96 981.083 324.12 983.099 326.904C985.115 329.592 986.123 333.192 986.123 337.704V376.44C986.123 379.8 986.315 383.016 986.699 386.088C987.083 389.16 987.755 391.464 988.715 393H967.979C967.595 391.848 967.259 390.696 966.971 389.544C966.779 388.296 966.635 387.048 966.539 385.8C963.275 389.16 959.435 391.512 955.019 392.856C950.603 394.2 946.091 394.872 941.483 394.872C937.931 394.872 934.619 394.44 931.547 393.576C928.475 392.712 925.787 391.368 923.483 389.544C921.179 387.72 919.355 385.416 918.011 382.632C916.763 379.848 916.139 376.536 916.139 372.696C916.139 368.472 916.859 365.016 918.299 362.328C919.835 359.544 921.755 357.336 924.059 355.704C926.459 354.072 929.147 352.872 932.123 352.104C935.195 351.24 938.267 350.568 941.339 350.088C944.411 349.608 947.435 349.224 950.411 348.936C953.387 348.648 956.027 348.216 958.331 347.64C960.635 347.064 962.459 346.248 963.803 345.192C965.147 344.04 965.771 342.408 965.675 340.296C965.675 338.088 965.291 336.36 964.523 335.112C963.851 333.768 962.891 332.76 961.643 332.088C960.491 331.32 959.099 330.84 957.467 330.648C955.931 330.36 954.251 330.216 952.427 330.216C948.395 330.216 945.227 331.08 942.923 332.808C940.619 334.536 939.275 337.416 938.891 341.448H918.443ZM965.675 356.568C964.811 357.336 963.707 357.96 962.363 358.44C961.115 358.824 959.723 359.16 958.187 359.448C956.747 359.736 955.211 359.976 953.579 360.168C951.947 360.36 950.315 360.6 948.683 360.888C947.147 361.176 945.611 361.56 944.075 362.04C942.635 362.52 941.339 363.192 940.187 364.056C939.131 364.824 938.267 365.832 937.595 367.08C936.923 368.328 936.587 369.912 936.587 371.832C936.587 373.656 936.923 375.192 937.595 376.44C938.267 377.688 939.179 378.696 940.331 379.464C941.483 380.136 942.827 380.616 944.363 380.904C945.899 381.192 947.483 381.336 949.115 381.336C953.147 381.336 956.267 380.664 958.475 379.32C960.683 377.976 962.315 376.392 963.371 374.568C964.427 372.648 965.051 370.728 965.243 368.808C965.531 366.888 965.675 365.352 965.675 364.2V356.568ZM1017.83 368.808H998.395C998.587 373.8 999.691 377.976 1001.71 381.336C1003.82 384.6 1006.46 387.24 1009.63 389.256C1012.89 391.272 1016.59 392.712 1020.71 393.576C1024.84 394.44 1029.07 394.872 1033.39 394.872C1037.61 394.872 1041.74 394.44 1045.77 393.576C1049.9 392.808 1053.55 391.416 1056.71 389.4C1059.88 387.384 1062.43 384.744 1064.35 381.48C1066.36 378.12 1067.37 373.992 1067.37 369.096C1067.37 365.64 1066.7 362.76 1065.35 360.456C1064.01 358.056 1062.23 356.088 1060.03 354.552C1057.82 352.92 1055.27 351.624 1052.39 350.664C1049.61 349.704 1046.73 348.888 1043.75 348.216C1040.87 347.544 1038.04 346.92 1035.26 346.344C1032.47 345.768 1029.98 345.144 1027.77 344.472C1025.66 343.704 1023.93 342.744 1022.59 341.592C1021.24 340.44 1020.57 338.952 1020.57 337.128C1020.57 335.592 1020.95 334.392 1021.72 333.528C1022.49 332.568 1023.4 331.848 1024.46 331.368C1025.61 330.888 1026.86 330.6 1028.2 330.504C1029.55 330.312 1030.79 330.216 1031.95 330.216C1035.59 330.216 1038.76 330.936 1041.45 332.376C1044.14 333.72 1045.63 336.36 1045.91 340.296H1065.35C1064.97 335.688 1063.77 331.896 1061.75 328.92C1059.83 325.848 1057.39 323.4 1054.41 321.576C1051.43 319.752 1048.03 318.456 1044.19 317.688C1040.44 316.92 1036.55 316.536 1032.52 316.536C1028.49 316.536 1024.55 316.92 1020.71 317.688C1016.87 318.36 1013.42 319.608 1010.35 321.432C1007.27 323.16 1004.78 325.56 1002.86 328.632C1001.03 331.704 1000.12 335.64 1000.12 340.44C1000.12 343.704 1000.79 346.488 1002.14 348.792C1003.48 351 1005.26 352.872 1007.47 354.408C1009.67 355.848 1012.17 357.048 1014.95 358.008C1017.83 358.872 1020.76 359.64 1023.74 360.312C1031.03 361.848 1036.7 363.384 1040.73 364.92C1044.86 366.456 1046.92 368.76 1046.92 371.832C1046.92 373.656 1046.49 375.192 1045.63 376.44C1044.76 377.592 1043.66 378.552 1042.31 379.32C1041.07 379.992 1039.63 380.52 1037.99 380.904C1036.46 381.192 1034.97 381.336 1033.53 381.336C1031.51 381.336 1029.55 381.096 1027.63 380.616C1025.8 380.136 1024.17 379.416 1022.73 378.456C1021.29 377.4 1020.09 376.104 1019.13 374.568C1018.27 372.936 1017.83 371.016 1017.83 368.808ZM134.928 493.832V528.824H108.432L134.496 493.832H134.928ZM134.928 545.672V569H154.368V545.672H167.76V528.824H154.368V468.2H136.08L92.304 526.952V545.672H134.928ZM211.2 516.728C213.792 516.728 216.048 517.304 217.968 518.456C219.984 519.512 221.616 520.952 222.864 522.776C224.112 524.504 225.024 526.52 225.6 528.824C226.272 531.032 226.608 533.336 226.608 535.736C226.608 538.04 226.272 540.296 225.6 542.504C224.928 544.712 223.92 546.68 222.576 548.408C221.232 550.136 219.6 551.528 217.68 552.584C215.856 553.64 213.696 554.168 211.2 554.168C208.608 554.168 206.304 553.64 204.288 552.584C202.272 551.528 200.544 550.136 199.104 548.408C197.76 546.584 196.704 544.568 195.936 542.36C195.264 540.056 194.928 537.752 194.928 535.448C194.928 532.952 195.264 530.6 195.936 528.392C196.608 526.088 197.616 524.072 198.96 522.344C200.304 520.616 201.984 519.272 204 518.312C206.112 517.256 208.512 516.728 211.2 516.728ZM225.888 494.12H245.328C244.752 489.608 243.552 485.624 241.728 482.168C239.904 478.712 237.552 475.832 234.672 473.528C231.792 471.128 228.48 469.304 224.736 468.056C220.992 466.808 216.96 466.184 212.64 466.184C205.44 466.184 199.344 467.768 194.352 470.936C189.36 474.104 185.28 478.232 182.112 483.32C178.944 488.312 176.64 493.928 175.2 500.168C173.76 506.408 173.04 512.648 173.04 518.888C173.04 525.32 173.616 531.656 174.768 537.896C175.92 544.04 177.984 549.56 180.96 554.456C183.936 559.352 187.92 563.336 192.912 566.408C197.904 569.384 204.192 570.872 211.776 570.872C217.056 570.872 221.856 569.96 226.176 568.136C230.496 566.216 234.192 563.624 237.264 560.36C240.432 557 242.832 553.112 244.464 548.696C246.192 544.184 247.056 539.336 247.056 534.152C247.056 530.12 246.432 526.136 245.184 522.2C243.936 518.264 241.968 514.76 239.28 511.688C236.4 508.52 232.896 506.024 228.768 504.2C224.64 502.28 220.416 501.32 216.096 501.32C211.2 501.32 206.88 502.184 203.136 503.912C199.392 505.64 196.128 508.52 193.344 512.552L193.056 512.264C193.152 509.48 193.536 506.312 194.208 502.76C194.88 499.208 195.936 495.896 197.376 492.824C198.816 489.656 200.736 487.016 203.136 484.904C205.632 482.696 208.704 481.592 212.352 481.592C215.904 481.592 218.88 482.84 221.28 485.336C223.68 487.832 225.216 490.76 225.888 494.12ZM322.031 485.048V468.2H265.727L255.791 523.928H274.223C276.239 521.144 278.399 519.128 280.703 517.88C283.007 516.536 285.983 515.864 289.631 515.864C292.415 515.864 294.863 516.344 296.975 517.304C299.087 518.264 300.911 519.608 302.447 521.336C303.983 523.064 305.135 525.08 305.903 527.384C306.671 529.688 307.055 532.136 307.055 534.728C307.055 537.224 306.623 539.672 305.759 542.072C304.991 544.376 303.839 546.44 302.303 548.264C300.863 549.992 299.039 551.432 296.831 552.584C294.719 553.64 292.319 554.168 289.631 554.168C285.023 554.168 281.231 552.824 278.255 550.136C275.279 547.352 273.551 543.656 273.071 539.048H252.623C252.719 544.328 253.775 548.984 255.791 553.016C257.903 556.952 260.687 560.264 264.143 562.952C267.599 565.64 271.535 567.656 275.951 569C280.463 570.248 285.167 570.872 290.063 570.872C295.151 570.968 299.951 570.152 304.463 568.424C308.975 566.6 312.911 564.056 316.271 560.792C319.727 557.528 322.463 553.688 324.479 549.272C326.495 544.76 327.503 539.912 327.503 534.728C327.503 530.024 326.783 525.608 325.343 521.48C323.999 517.256 321.983 513.608 319.295 510.536C316.703 507.464 313.487 505.016 309.647 503.192C305.807 501.368 301.391 500.456 296.399 500.456C292.367 500.456 288.767 501.08 285.599 502.328C282.431 503.48 279.455 505.448 276.671 508.232L276.383 507.944L280.415 485.048H322.031ZM402.047 485.048V468.2H345.743L335.807 523.928H354.239C356.255 521.144 358.415 519.128 360.719 517.88C363.023 516.536 365.999 515.864 369.647 515.864C372.431 515.864 374.879 516.344 376.991 517.304C379.103 518.264 380.927 519.608 382.463 521.336C383.999 523.064 385.151 525.08 385.919 527.384C386.687 529.688 387.071 532.136 387.071 534.728C387.071 537.224 386.639 539.672 385.775 542.072C385.007 544.376 383.855 546.44 382.319 548.264C380.879 549.992 379.055 551.432 376.847 552.584C374.735 553.64 372.335 554.168 369.647 554.168C365.039 554.168 361.247 552.824 358.271 550.136C355.295 547.352 353.567 543.656 353.087 539.048H332.639C332.735 544.328 333.791 548.984 335.807 553.016C337.919 556.952 340.703 560.264 344.159 562.952C347.615 565.64 351.551 567.656 355.967 569C360.479 570.248 365.183 570.872 370.079 570.872C375.167 570.968 379.967 570.152 384.479 568.424C388.991 566.6 392.927 564.056 396.287 560.792C399.743 557.528 402.479 553.688 404.495 549.272C406.511 544.76 407.519 539.912 407.519 534.728C407.519 530.024 406.799 525.608 405.359 521.48C404.015 517.256 401.999 513.608 399.311 510.536C396.719 507.464 393.503 505.016 389.663 503.192C385.823 501.368 381.407 500.456 376.415 500.456C372.383 500.456 368.783 501.08 365.615 502.328C362.447 503.48 359.471 505.448 356.687 508.232L356.399 507.944L360.431 485.048H402.047ZM473.757 544.808H454.317C454.509 549.8 455.613 553.976 457.629 557.336C459.741 560.6 462.381 563.24 465.549 565.256C468.813 567.272 472.509 568.712 476.637 569.576C480.765 570.44 484.989 570.872 489.309 570.872C493.533 570.872 497.661 570.44 501.693 569.576C505.821 568.808 509.469 567.416 512.637 565.4C515.805 563.384 518.349 560.744 520.269 557.48C522.285 554.12 523.293 549.992 523.293 545.096C523.293 541.64 522.621 538.76 521.277 536.456C519.933 534.056 518.157 532.088 515.949 530.552C513.741 528.92 511.197 527.624 508.317 526.664C505.533 525.704 502.653 524.888 499.677 524.216C496.797 523.544 493.965 522.92 491.181 522.344C488.397 521.768 485.901 521.144 483.693 520.472C481.581 519.704 479.853 518.744 478.509 517.592C477.165 516.44 476.493 514.952 476.493 513.128C476.493 511.592 476.877 510.392 477.645 509.528C478.413 508.568 479.325 507.848 480.381 507.368C481.533 506.888 482.781 506.6 484.125 506.504C485.469 506.312 486.717 506.216 487.869 506.216C491.517 506.216 494.685 506.936 497.373 508.376C500.061 509.72 501.549 512.36 501.837 516.296H521.277C520.893 511.688 519.693 507.896 517.677 504.92C515.757 501.848 513.309 499.4 510.333 497.576C507.357 495.752 503.949 494.456 500.109 493.688C496.365 492.92 492.477 492.536 488.445 492.536C484.413 492.536 480.477 492.92 476.637 493.688C472.797 494.36 469.341 495.608 466.269 497.432C463.197 499.16 460.701 501.56 458.781 504.632C456.957 507.704 456.045 511.64 456.045 516.44C456.045 519.704 456.717 522.488 458.061 524.792C459.405 527 461.181 528.872 463.389 530.408C465.597 531.848 468.093 533.048 470.877 534.008C473.757 534.872 476.685 535.64 479.661 536.312C486.957 537.848 492.621 539.384 496.653 540.92C500.781 542.456 502.845 544.76 502.845 547.832C502.845 549.656 502.413 551.192 501.549 552.44C500.685 553.592 499.581 554.552 498.237 555.32C496.989 555.992 495.549 556.52 493.917 556.904C492.381 557.192 490.893 557.336 489.453 557.336C487.437 557.336 485.469 557.096 483.549 556.616C481.725 556.136 480.093 555.416 478.653 554.456C477.213 553.4 476.013 552.104 475.053 550.568C474.189 548.936 473.757 547.016 473.757 544.808ZM561.18 494.552V472.232H540.732V494.552H528.348V508.232H540.732V552.152C540.732 555.896 541.356 558.92 542.604 561.224C543.852 563.528 545.532 565.304 547.644 566.552C549.852 567.8 552.348 568.616 555.132 569C558.012 569.48 561.036 569.72 564.204 569.72C566.22 569.72 568.284 569.672 570.396 569.576C572.508 569.48 574.428 569.288 576.156 569V553.16C575.196 553.352 574.188 553.496 573.132 553.592C572.076 553.688 570.972 553.736 569.82 553.736C566.364 553.736 564.06 553.16 562.908 552.008C561.756 550.856 561.18 548.552 561.18 545.096V508.232H576.156V494.552H561.18ZM585.885 494.552V569H606.333V535.448C606.333 532.088 606.669 528.968 607.341 526.088C608.013 523.208 609.117 520.712 610.653 518.6C612.285 516.392 614.397 514.664 616.989 513.416C619.581 512.168 622.749 511.544 626.493 511.544C627.741 511.544 629.037 511.64 630.381 511.832C631.725 511.928 632.877 512.072 633.837 512.264V493.256C632.205 492.776 630.717 492.536 629.373 492.536C626.781 492.536 624.285 492.92 621.885 493.688C619.485 494.456 617.229 495.56 615.117 497C613.005 498.344 611.133 500.024 609.501 502.04C607.869 503.96 606.573 506.072 605.613 508.376H605.325V494.552H585.885ZM689.435 523.784H656.171C656.267 522.344 656.555 520.712 657.035 518.888C657.611 517.064 658.523 515.336 659.771 513.704C661.115 512.072 662.843 510.728 664.955 509.672C667.163 508.52 669.899 507.944 673.163 507.944C678.155 507.944 681.851 509.288 684.251 511.976C686.747 514.664 688.475 518.6 689.435 523.784ZM656.171 536.744H709.883C710.267 530.984 709.787 525.464 708.443 520.184C707.099 514.904 704.891 510.2 701.819 506.072C698.843 501.944 695.003 498.68 690.299 496.28C685.595 493.784 680.075 492.536 673.739 492.536C668.075 492.536 662.891 493.544 658.187 495.56C653.579 497.576 649.595 500.36 646.235 503.912C642.875 507.368 640.283 511.496 638.459 516.296C636.635 521.096 635.723 526.28 635.723 531.848C635.723 537.608 636.587 542.888 638.315 547.688C640.139 552.488 642.683 556.616 645.947 560.072C649.211 563.528 653.195 566.216 657.899 568.136C662.603 569.96 667.883 570.872 673.739 570.872C682.187 570.872 689.387 568.952 695.339 565.112C701.291 561.272 705.707 554.888 708.587 545.96H690.587C689.915 548.264 688.091 550.472 685.115 552.584C682.139 554.6 678.587 555.608 674.459 555.608C668.699 555.608 664.283 554.12 661.211 551.144C658.139 548.168 656.459 543.368 656.171 536.744ZM772.122 523.784H738.858C738.954 522.344 739.242 520.712 739.722 518.888C740.298 517.064 741.21 515.336 742.458 513.704C743.802 512.072 745.53 510.728 747.642 509.672C749.85 508.52 752.586 507.944 755.85 507.944C760.842 507.944 764.538 509.288 766.938 511.976C769.434 514.664 771.162 518.6 772.122 523.784ZM738.858 536.744H792.57C792.954 530.984 792.474 525.464 791.13 520.184C789.786 514.904 787.578 510.2 784.506 506.072C781.53 501.944 777.69 498.68 772.986 496.28C768.282 493.784 762.762 492.536 756.426 492.536C750.762 492.536 745.578 493.544 740.874 495.56C736.266 497.576 732.282 500.36 728.922 503.912C725.562 507.368 722.97 511.496 721.146 516.296C719.322 521.096 718.41 526.28 718.41 531.848C718.41 537.608 719.274 542.888 721.002 547.688C722.826 552.488 725.37 556.616 728.634 560.072C731.898 563.528 735.882 566.216 740.586 568.136C745.29 569.96 750.57 570.872 756.426 570.872C764.874 570.872 772.074 568.952 778.026 565.112C783.978 561.272 788.394 554.888 791.274 545.96H773.274C772.602 548.264 770.778 550.472 767.802 552.584C764.826 554.6 761.274 555.608 757.146 555.608C751.386 555.608 746.97 554.12 743.898 551.144C740.826 548.168 739.146 543.368 738.858 536.744ZM830.618 494.552V472.232H810.17V494.552H797.786V508.232H810.17V552.152C810.17 555.896 810.794 558.92 812.042 561.224C813.29 563.528 814.97 565.304 817.082 566.552C819.29 567.8 821.786 568.616 824.57 569C827.45 569.48 830.474 569.72 833.642 569.72C835.658 569.72 837.722 569.672 839.834 569.576C841.946 569.48 843.866 569.288 845.594 569V553.16C844.634 553.352 843.626 553.496 842.57 553.592C841.514 553.688 840.41 553.736 839.258 553.736C835.802 553.736 833.498 553.16 832.346 552.008C831.194 550.856 830.618 548.552 830.618 545.096V508.232H845.594V494.552H830.618ZM871.163 544.808H851.723C851.915 549.8 853.019 553.976 855.035 557.336C857.147 560.6 859.787 563.24 862.955 565.256C866.219 567.272 869.915 568.712 874.043 569.576C878.171 570.44 882.395 570.872 886.715 570.872C890.939 570.872 895.067 570.44 899.099 569.576C903.227 568.808 906.875 567.416 910.043 565.4C913.211 563.384 915.755 560.744 917.675 557.48C919.691 554.12 920.699 549.992 920.699 545.096C920.699 541.64 920.027 538.76 918.683 536.456C917.339 534.056 915.563 532.088 913.355 530.552C911.147 528.92 908.603 527.624 905.723 526.664C902.939 525.704 900.059 524.888 897.083 524.216C894.203 523.544 891.371 522.92 888.587 522.344C885.803 521.768 883.307 521.144 881.099 520.472C878.987 519.704 877.259 518.744 875.915 517.592C874.571 516.44 873.899 514.952 873.899 513.128C873.899 511.592 874.283 510.392 875.051 509.528C875.819 508.568 876.731 507.848 877.787 507.368C878.939 506.888 880.187 506.6 881.531 506.504C882.875 506.312 884.123 506.216 885.275 506.216C888.923 506.216 892.091 506.936 894.779 508.376C897.467 509.72 898.955 512.36 899.243 516.296H918.683C918.299 511.688 917.099 507.896 915.083 504.92C913.163 501.848 910.715 499.4 907.739 497.576C904.763 495.752 901.355 494.456 897.515 493.688C893.771 492.92 889.883 492.536 885.851 492.536C881.819 492.536 877.883 492.92 874.043 493.688C870.203 494.36 866.747 495.608 863.675 497.432C860.603 499.16 858.107 501.56 856.187 504.632C854.363 507.704 853.451 511.64 853.451 516.44C853.451 519.704 854.123 522.488 855.467 524.792C856.811 527 858.587 528.872 860.795 530.408C863.003 531.848 865.499 533.048 868.283 534.008C871.163 534.872 874.091 535.64 877.067 536.312C884.363 537.848 890.027 539.384 894.059 540.92C898.187 542.456 900.251 544.76 900.251 547.832C900.251 549.656 899.819 551.192 898.955 552.44C898.091 553.592 896.987 554.552 895.643 555.32C894.395 555.992 892.955 556.52 891.323 556.904C889.787 557.192 888.299 557.336 886.859 557.336C884.843 557.336 882.875 557.096 880.955 556.616C879.131 556.136 877.499 555.416 876.059 554.456C874.619 553.4 873.419 552.104 872.459 550.568C871.595 548.936 871.163 547.016 871.163 544.808Z" fill="black"/>
</g>
<defs>
<clipPath id="clip0">
<rect width="1920" height="1080" fill="white"/>
</clipPath>
</defs>
</svg>
