<svg width="1920" height="1080" viewBox="0 0 1920 1080" fill="none" xmlns="http://www.w3.org/2000/svg">
<g clip-path="url(#clip0)">
<rect width="1920" height="1080" fill="white"/>
<rect width="1920" height="1080" fill="#FF1100"/>
<path d="M530.968 488.592V540H542.272V517.824H563.08V540H574.384V488.592H563.08V508.32H542.272V488.592H530.968ZM608.311 517.392H591.679C591.727 516.672 591.871 515.856 592.111 514.944C592.399 514.032 592.855 513.168 593.479 512.352C594.151 511.536 595.015 510.864 596.071 510.336C597.175 509.76 598.543 509.472 600.175 509.472C602.671 509.472 604.519 510.144 605.719 511.488C606.967 512.832 607.831 514.8 608.311 517.392ZM591.679 523.872H618.535C618.727 520.992 618.487 518.232 617.815 515.592C617.143 512.952 616.039 510.6 614.503 508.536C613.015 506.472 611.095 504.84 608.743 503.64C606.391 502.392 603.631 501.768 600.463 501.768C597.631 501.768 595.039 502.272 592.687 503.28C590.383 504.288 588.391 505.68 586.711 507.456C585.031 509.184 583.735 511.248 582.823 513.648C581.911 516.048 581.455 518.64 581.455 521.424C581.455 524.304 581.887 526.944 582.751 529.344C583.663 531.744 584.935 533.808 586.567 535.536C588.199 537.264 590.191 538.608 592.543 539.568C594.895 540.48 597.535 540.936 600.463 540.936C604.687 540.936 608.287 539.976 611.263 538.056C614.239 536.136 616.447 532.944 617.887 528.48H608.887C608.551 529.632 607.639 530.736 606.151 531.792C604.663 532.8 602.887 533.304 600.823 533.304C597.943 533.304 595.735 532.56 594.199 531.072C592.663 529.584 591.823 527.184 591.679 523.872ZM624.599 502.776V540H634.823V523.224C634.823 521.544 634.991 519.984 635.327 518.544C635.663 517.104 636.215 515.856 636.983 514.8C637.799 513.696 638.855 512.832 640.151 512.208C641.447 511.584 643.031 511.272 644.903 511.272C645.527 511.272 646.175 511.32 646.847 511.416C647.519 511.464 648.095 511.536 648.575 511.632V502.128C647.759 501.888 647.015 501.768 646.343 501.768C645.047 501.768 643.799 501.96 642.599 502.344C641.399 502.728 640.271 503.28 639.215 504C638.159 504.672 637.223 505.512 636.407 506.52C635.591 507.48 634.943 508.536 634.463 509.688H634.319V502.776H624.599ZM676.374 517.392H659.742C659.79 516.672 659.934 515.856 660.174 514.944C660.462 514.032 660.918 513.168 661.542 512.352C662.214 511.536 663.078 510.864 664.134 510.336C665.238 509.76 666.606 509.472 668.238 509.472C670.734 509.472 672.582 510.144 673.782 511.488C675.03 512.832 675.894 514.8 676.374 517.392ZM659.742 523.872H686.598C686.79 520.992 686.55 518.232 685.878 515.592C685.206 512.952 684.102 510.6 682.566 508.536C681.078 506.472 679.158 504.84 676.806 503.64C674.454 502.392 671.694 501.768 668.526 501.768C665.694 501.768 663.102 502.272 660.75 503.28C658.446 504.288 656.454 505.68 654.774 507.456C653.094 509.184 651.798 511.248 650.886 513.648C649.974 516.048 649.518 518.64 649.518 521.424C649.518 524.304 649.95 526.944 650.814 529.344C651.726 531.744 652.998 533.808 654.63 535.536C656.262 537.264 658.254 538.608 660.606 539.568C662.958 540.48 665.598 540.936 668.526 540.936C672.75 540.936 676.35 539.976 679.326 538.056C682.302 536.136 684.51 532.944 685.95 528.48H676.95C676.614 529.632 675.702 530.736 674.214 531.792C672.726 532.8 670.95 533.304 668.886 533.304C666.006 533.304 663.798 532.56 662.262 531.072C660.726 529.584 659.886 527.184 659.742 523.872ZM723.213 497.016V488.592H712.989V497.016H723.213ZM712.989 502.776V540H723.213V502.776H712.989ZM739.183 527.904H729.463C729.559 530.4 730.111 532.488 731.119 534.168C732.175 535.8 733.495 537.12 735.079 538.128C736.711 539.136 738.559 539.856 740.623 540.288C742.687 540.72 744.799 540.936 746.959 540.936C749.071 540.936 751.135 540.72 753.151 540.288C755.215 539.904 757.039 539.208 758.623 538.2C760.207 537.192 761.479 535.872 762.439 534.24C763.447 532.56 763.951 530.496 763.951 528.048C763.951 526.32 763.615 524.88 762.943 523.728C762.271 522.528 761.383 521.544 760.279 520.776C759.175 519.96 757.903 519.312 756.463 518.832C755.071 518.352 753.631 517.944 752.143 517.608C750.703 517.272 749.287 516.96 747.895 516.672C746.503 516.384 745.255 516.072 744.151 515.736C743.095 515.352 742.231 514.872 741.559 514.296C740.887 513.72 740.551 512.976 740.551 512.064C740.551 511.296 740.743 510.696 741.127 510.264C741.511 509.784 741.967 509.424 742.495 509.184C743.071 508.944 743.695 508.8 744.367 508.752C745.039 508.656 745.663 508.608 746.239 508.608C748.063 508.608 749.647 508.968 750.991 509.688C752.335 510.36 753.079 511.68 753.223 513.648H762.943C762.751 511.344 762.151 509.448 761.143 507.96C760.183 506.424 758.959 505.2 757.471 504.288C755.983 503.376 754.279 502.728 752.359 502.344C750.487 501.96 748.543 501.768 746.527 501.768C744.511 501.768 742.543 501.96 740.623 502.344C738.703 502.68 736.975 503.304 735.439 504.216C733.903 505.08 732.655 506.28 731.695 507.816C730.783 509.352 730.327 511.32 730.327 513.72C730.327 515.352 730.663 516.744 731.335 517.896C732.007 519 732.895 519.936 733.999 520.704C735.103 521.424 736.351 522.024 737.743 522.504C739.183 522.936 740.647 523.32 742.135 523.656C745.783 524.424 748.615 525.192 750.631 525.96C752.695 526.728 753.727 527.88 753.727 529.416C753.727 530.328 753.511 531.096 753.079 531.72C752.647 532.296 752.095 532.776 751.423 533.16C750.799 533.496 750.079 533.76 749.263 533.952C748.495 534.096 747.751 534.168 747.031 534.168C746.023 534.168 745.039 534.048 744.079 533.808C743.167 533.568 742.351 533.208 741.631 532.728C740.911 532.2 740.311 531.552 739.831 530.784C739.399 529.968 739.183 529.008 739.183 527.904ZM789.974 488.592V540H800.198V520.488C800.198 516.696 800.822 513.984 802.07 512.352C803.318 510.672 805.334 509.832 808.118 509.832C810.566 509.832 812.27 510.6 813.23 512.136C814.19 513.624 814.67 515.904 814.67 518.976V540H824.894V517.104C824.894 514.8 824.678 512.712 824.246 510.84C823.862 508.92 823.166 507.312 822.158 506.016C821.15 504.672 819.758 503.64 817.982 502.92C816.254 502.152 814.022 501.768 811.286 501.768C809.366 501.768 807.398 502.272 805.382 503.28C803.366 504.24 801.71 505.8 800.414 507.96H800.198V488.592H789.974ZM841.726 521.424C841.726 519.936 841.87 518.472 842.158 517.032C842.446 515.592 842.926 514.32 843.598 513.216C844.318 512.112 845.254 511.224 846.406 510.552C847.558 509.832 848.998 509.472 850.726 509.472C852.454 509.472 853.894 509.832 855.046 510.552C856.246 511.224 857.182 512.112 857.854 513.216C858.574 514.32 859.078 515.592 859.366 517.032C859.654 518.472 859.798 519.936 859.798 521.424C859.798 522.912 859.654 524.376 859.366 525.816C859.078 527.208 858.574 528.48 857.854 529.632C857.182 530.736 856.246 531.624 855.046 532.296C853.894 532.968 852.454 533.304 850.726 533.304C848.998 533.304 847.558 532.968 846.406 532.296C845.254 531.624 844.318 530.736 843.598 529.632C842.926 528.48 842.446 527.208 842.158 525.816C841.87 524.376 841.726 522.912 841.726 521.424ZM831.502 521.424C831.502 524.4 831.958 527.088 832.87 529.488C833.782 531.888 835.078 533.952 836.758 535.68C838.438 537.36 840.454 538.656 842.806 539.568C845.158 540.48 847.798 540.936 850.726 540.936C853.654 540.936 856.294 540.48 858.646 539.568C861.046 538.656 863.086 537.36 864.766 535.68C866.446 533.952 867.742 531.888 868.654 529.488C869.566 527.088 870.022 524.4 870.022 521.424C870.022 518.448 869.566 515.76 868.654 513.36C867.742 510.912 866.446 508.848 864.766 507.168C863.086 505.44 861.046 504.12 858.646 503.208C856.294 502.248 853.654 501.768 850.726 501.768C847.798 501.768 845.158 502.248 842.806 503.208C840.454 504.12 838.438 505.44 836.758 507.168C835.078 508.848 833.782 510.912 832.87 513.36C831.958 515.76 831.502 518.448 831.502 521.424ZM919.221 540L930.957 502.776H920.445L913.605 527.976H913.461L907.125 502.776H897.189L890.997 528.048H890.853L884.013 502.776H873.213L885.021 540H895.605L901.941 515.016H902.085L908.709 540H919.221ZM973.709 544.608L989.261 502.776H978.677L970.541 528.264H970.397L961.973 502.776H951.101L964.133 537.696C964.421 538.416 964.565 539.184 964.565 540C964.565 541.104 964.229 542.112 963.557 543.024C962.933 543.936 961.949 544.464 960.605 544.608C959.597 544.656 958.589 544.632 957.581 544.536C956.573 544.44 955.589 544.344 954.629 544.248V552.672C955.685 552.768 956.717 552.84 957.725 552.888C958.781 552.984 959.837 553.032 960.893 553.032C964.397 553.032 967.133 552.384 969.101 551.088C971.069 549.792 972.605 547.632 973.709 544.608ZM1001.76 521.424C1001.76 519.936 1001.9 518.472 1002.19 517.032C1002.48 515.592 1002.96 514.32 1003.63 513.216C1004.35 512.112 1005.28 511.224 1006.44 510.552C1007.59 509.832 1009.03 509.472 1010.76 509.472C1012.48 509.472 1013.92 509.832 1015.08 510.552C1016.28 511.224 1017.21 512.112 1017.88 513.216C1018.6 514.32 1019.11 515.592 1019.4 517.032C1019.68 518.472 1019.83 519.936 1019.83 521.424C1019.83 522.912 1019.68 524.376 1019.4 525.816C1019.11 527.208 1018.6 528.48 1017.88 529.632C1017.21 530.736 1016.28 531.624 1015.08 532.296C1013.92 532.968 1012.48 533.304 1010.76 533.304C1009.03 533.304 1007.59 532.968 1006.44 532.296C1005.28 531.624 1004.35 530.736 1003.63 529.632C1002.96 528.48 1002.48 527.208 1002.19 525.816C1001.9 524.376 1001.76 522.912 1001.76 521.424ZM991.533 521.424C991.533 524.4 991.989 527.088 992.901 529.488C993.813 531.888 995.109 533.952 996.789 535.68C998.469 537.36 1000.48 538.656 1002.84 539.568C1005.19 540.48 1007.83 540.936 1010.76 540.936C1013.68 540.936 1016.32 540.48 1018.68 539.568C1021.08 538.656 1023.12 537.36 1024.8 535.68C1026.48 533.952 1027.77 531.888 1028.68 529.488C1029.6 527.088 1030.05 524.4 1030.05 521.424C1030.05 518.448 1029.6 515.76 1028.68 513.36C1027.77 510.912 1026.48 508.848 1024.8 507.168C1023.12 505.44 1021.08 504.12 1018.68 503.208C1016.32 502.248 1013.68 501.768 1010.76 501.768C1007.83 501.768 1005.19 502.248 1002.84 503.208C1000.48 504.12 998.469 505.44 996.789 507.168C995.109 508.848 993.813 510.912 992.901 513.36C991.989 515.76 991.533 518.448 991.533 521.424ZM1071.62 540V502.776H1061.4V522.288C1061.4 526.08 1060.77 528.816 1059.52 530.496C1058.28 532.128 1056.26 532.944 1053.48 532.944C1051.03 532.944 1049.32 532.2 1048.36 530.712C1047.4 529.176 1046.92 526.872 1046.92 523.8V502.776H1036.7V525.672C1036.7 527.976 1036.89 530.088 1037.28 532.008C1037.71 533.88 1038.43 535.488 1039.44 536.832C1040.44 538.128 1041.81 539.136 1043.54 539.856C1045.32 540.576 1047.57 540.936 1050.31 540.936C1052.47 540.936 1054.58 540.456 1056.64 539.496C1058.71 538.536 1060.39 536.976 1061.68 534.816H1061.9V540H1071.62ZM1124.76 515.88H1134.77C1134.63 513.48 1134.05 511.416 1133.04 509.688C1132.04 507.912 1130.72 506.448 1129.08 505.296C1127.5 504.096 1125.68 503.208 1123.61 502.632C1121.6 502.056 1119.48 501.768 1117.28 501.768C1114.25 501.768 1111.56 502.272 1109.21 503.28C1106.86 504.288 1104.87 505.704 1103.24 507.528C1101.6 509.304 1100.36 511.44 1099.49 513.936C1098.68 516.384 1098.27 519.048 1098.27 521.928C1098.27 524.712 1098.72 527.28 1099.64 529.632C1100.55 531.936 1101.82 533.928 1103.45 535.608C1105.08 537.288 1107.05 538.608 1109.36 539.568C1111.71 540.48 1114.28 540.936 1117.06 540.936C1122 540.936 1126.06 539.64 1129.23 537.048C1132.4 534.456 1134.32 530.688 1134.99 525.744H1125.12C1124.79 528.048 1123.95 529.896 1122.6 531.288C1121.31 532.632 1119.44 533.304 1116.99 533.304C1115.4 533.304 1114.06 532.944 1112.96 532.224C1111.85 531.504 1110.96 530.592 1110.29 529.488C1109.67 528.336 1109.21 527.064 1108.92 525.672C1108.64 524.28 1108.49 522.912 1108.49 521.568C1108.49 520.176 1108.64 518.784 1108.92 517.392C1109.21 515.952 1109.69 514.656 1110.36 513.504C1111.08 512.304 1112 511.344 1113.1 510.624C1114.2 509.856 1115.57 509.472 1117.2 509.472C1121.57 509.472 1124.09 511.608 1124.76 515.88ZM1140.33 514.224C1140.48 511.824 1141.08 509.832 1142.13 508.248C1143.19 506.664 1144.53 505.392 1146.16 504.432C1147.8 503.472 1149.62 502.8 1151.64 502.416C1153.7 501.984 1155.76 501.768 1157.83 501.768C1159.7 501.768 1161.6 501.912 1163.52 502.2C1165.44 502.44 1167.19 502.944 1168.77 503.712C1170.36 504.48 1171.65 505.56 1172.66 506.952C1173.67 508.296 1174.17 510.096 1174.17 512.352V531.72C1174.17 533.4 1174.27 535.008 1174.46 536.544C1174.65 538.08 1174.99 539.232 1175.47 540H1165.1C1164.91 539.424 1164.74 538.848 1164.6 538.272C1164.5 537.648 1164.43 537.024 1164.38 536.4C1162.75 538.08 1160.83 539.256 1158.62 539.928C1156.41 540.6 1154.16 540.936 1151.85 540.936C1150.08 540.936 1148.42 540.72 1146.88 540.288C1145.35 539.856 1144 539.184 1142.85 538.272C1141.7 537.36 1140.79 536.208 1140.12 534.816C1139.49 533.424 1139.18 531.768 1139.18 529.848C1139.18 527.736 1139.54 526.008 1140.26 524.664C1141.03 523.272 1141.99 522.168 1143.14 521.352C1144.34 520.536 1145.68 519.936 1147.17 519.552C1148.71 519.12 1150.24 518.784 1151.78 518.544C1153.32 518.304 1154.83 518.112 1156.32 517.968C1157.8 517.824 1159.12 517.608 1160.28 517.32C1161.43 517.032 1162.34 516.624 1163.01 516.096C1163.68 515.52 1164 514.704 1163.95 513.648C1163.95 512.544 1163.76 511.68 1163.37 511.056C1163.04 510.384 1162.56 509.88 1161.93 509.544C1161.36 509.16 1160.66 508.92 1159.84 508.824C1159.08 508.68 1158.24 508.608 1157.32 508.608C1155.31 508.608 1153.72 509.04 1152.57 509.904C1151.42 510.768 1150.75 512.208 1150.56 514.224H1140.33ZM1163.95 521.784C1163.52 522.168 1162.96 522.48 1162.29 522.72C1161.67 522.912 1160.97 523.08 1160.2 523.224C1159.48 523.368 1158.72 523.488 1157.9 523.584C1157.08 523.68 1156.27 523.8 1155.45 523.944C1154.68 524.088 1153.92 524.28 1153.15 524.52C1152.43 524.76 1151.78 525.096 1151.2 525.528C1150.68 525.912 1150.24 526.416 1149.91 527.04C1149.57 527.664 1149.4 528.456 1149.4 529.416C1149.4 530.328 1149.57 531.096 1149.91 531.72C1150.24 532.344 1150.7 532.848 1151.28 533.232C1151.85 533.568 1152.52 533.808 1153.29 533.952C1154.06 534.096 1154.85 534.168 1155.67 534.168C1157.68 534.168 1159.24 533.832 1160.35 533.16C1161.45 532.488 1162.27 531.696 1162.8 530.784C1163.32 529.824 1163.64 528.864 1163.73 527.904C1163.88 526.944 1163.95 526.176 1163.95 525.6V521.784ZM1182.11 502.776V540H1192.33V520.488C1192.33 516.696 1192.95 513.984 1194.2 512.352C1195.45 510.672 1197.47 509.832 1200.25 509.832C1202.7 509.832 1204.4 510.6 1205.36 512.136C1206.32 513.624 1206.8 515.904 1206.8 518.976V540H1217.03V517.104C1217.03 514.8 1216.81 512.712 1216.38 510.84C1215.99 508.92 1215.3 507.312 1214.29 506.016C1213.28 504.672 1211.89 503.64 1210.11 502.92C1208.39 502.152 1206.15 501.768 1203.42 501.768C1201.26 501.768 1199.15 502.272 1197.08 503.28C1195.02 504.24 1193.34 505.8 1192.04 507.96H1191.83V502.776H1182.11ZM1244.83 488.592V540H1255.05V520.488C1255.05 516.696 1255.67 513.984 1256.92 512.352C1258.17 510.672 1260.19 509.832 1262.97 509.832C1265.42 509.832 1267.12 510.6 1268.08 512.136C1269.04 513.624 1269.52 515.904 1269.52 518.976V540H1279.75V517.104C1279.75 514.8 1279.53 512.712 1279.1 510.84C1278.71 508.92 1278.02 507.312 1277.01 506.016C1276 504.672 1274.61 503.64 1272.83 502.92C1271.11 502.152 1268.87 501.768 1266.14 501.768C1264.22 501.768 1262.25 502.272 1260.23 503.28C1258.22 504.24 1256.56 505.8 1255.27 507.96H1255.05V488.592H1244.83ZM1312.56 517.392H1295.93C1295.98 516.672 1296.12 515.856 1296.36 514.944C1296.65 514.032 1297.11 513.168 1297.73 512.352C1298.4 511.536 1299.27 510.864 1300.32 510.336C1301.43 509.76 1302.79 509.472 1304.43 509.472C1306.92 509.472 1308.77 510.144 1309.97 511.488C1311.22 512.832 1312.08 514.8 1312.56 517.392ZM1295.93 523.872H1322.79C1322.98 520.992 1322.74 518.232 1322.07 515.592C1321.39 512.952 1320.29 510.6 1318.75 508.536C1317.27 506.472 1315.35 504.84 1312.99 503.64C1310.64 502.392 1307.88 501.768 1304.71 501.768C1301.88 501.768 1299.29 502.272 1296.94 503.28C1294.63 504.288 1292.64 505.68 1290.96 507.456C1289.28 509.184 1287.99 511.248 1287.07 513.648C1286.16 516.048 1285.71 518.64 1285.71 521.424C1285.71 524.304 1286.14 526.944 1287 529.344C1287.91 531.744 1289.19 533.808 1290.82 535.536C1292.45 537.264 1294.44 538.608 1296.79 539.568C1299.15 540.48 1301.79 540.936 1304.71 540.936C1308.94 540.936 1312.54 539.976 1315.51 538.056C1318.49 536.136 1320.7 532.944 1322.14 528.48H1313.14C1312.8 529.632 1311.89 530.736 1310.4 531.792C1308.91 532.8 1307.14 533.304 1305.07 533.304C1302.19 533.304 1299.99 532.56 1298.45 531.072C1296.91 529.584 1296.07 527.184 1295.93 523.872ZM1329.14 488.592V540H1339.36V488.592H1329.14ZM1366.2 533.304C1364.57 533.304 1363.18 532.968 1362.03 532.296C1360.88 531.624 1359.94 530.76 1359.22 529.704C1358.55 528.6 1358.04 527.328 1357.71 525.888C1357.42 524.448 1357.28 522.984 1357.28 521.496C1357.28 519.96 1357.42 518.472 1357.71 517.032C1358 515.592 1358.48 514.32 1359.15 513.216C1359.87 512.112 1360.78 511.224 1361.88 510.552C1363.04 509.832 1364.45 509.472 1366.13 509.472C1367.76 509.472 1369.13 509.832 1370.24 510.552C1371.39 511.224 1372.32 512.136 1373.04 513.288C1373.76 514.392 1374.27 515.664 1374.56 517.104C1374.89 518.544 1375.06 520.008 1375.06 521.496C1375.06 522.984 1374.92 524.448 1374.63 525.888C1374.34 527.328 1373.84 528.6 1373.12 529.704C1372.44 530.76 1371.53 531.624 1370.38 532.296C1369.28 532.968 1367.88 533.304 1366.2 533.304ZM1347.41 502.776V553.032H1357.64V535.392H1357.78C1359.03 537.216 1360.61 538.608 1362.53 539.568C1364.5 540.48 1366.64 540.936 1368.94 540.936C1371.68 540.936 1374.05 540.408 1376.07 539.352C1378.13 538.296 1379.84 536.88 1381.18 535.104C1382.57 533.328 1383.6 531.288 1384.28 528.984C1384.95 526.68 1385.28 524.28 1385.28 521.784C1385.28 519.144 1384.95 516.624 1384.28 514.224C1383.6 511.776 1382.57 509.64 1381.18 507.816C1379.79 505.992 1378.04 504.528 1375.92 503.424C1373.81 502.32 1371.29 501.768 1368.36 501.768C1366.06 501.768 1363.95 502.224 1362.03 503.136C1360.11 504.048 1358.52 505.512 1357.28 507.528H1357.13V502.776H1347.41Z" fill="white"/>
</g>
<defs>
<clipPath id="clip0">
<rect width="1920" height="1080" fill="white"/>
</clipPath>
</defs>
</svg>
