<svg width="1920" height="1080" viewBox="0 0 1920 1080" fill="none" xmlns="http://www.w3.org/2000/svg">
<g clip-path="url(#clip0)">
<rect width="1920" height="1080" fill="white"/>
<line x1="-1.20049" y1="941.146" x2="1993.93" y2="447.686" stroke="black" stroke-width="10"/>
<line x1="547.16" y1="1184.48" x2="2026.13" y2="163.885" stroke="black" stroke-width="10"/>
<line x1="999" y1="2.18557e-07" x2="999" y2="1080" stroke="black" stroke-width="10"/>
<g style="mix-blend-mode:difference">
<rect x="994" width="926" height="1080" fill="white"/>
</g>
<path d="M113.904 318.504L122.832 293.352H123.024L131.664 318.504H113.904ZM115.344 276.456L89.424 345H104.592L109.968 329.736H135.6L140.784 345H156.432L130.8 276.456H115.344ZM160.903 295.368V345H174.535V318.984C174.535 313.928 175.367 310.312 177.031 308.136C178.695 305.896 181.383 304.776 185.095 304.776C188.359 304.776 190.631 305.8 191.911 307.848C193.191 309.832 193.831 312.872 193.831 316.968V345H207.463V314.472C207.463 311.4 207.175 308.616 206.599 306.12C206.087 303.56 205.159 301.416 203.815 299.688C202.471 297.896 200.615 296.52 198.247 295.56C195.943 294.536 192.967 294.024 189.319 294.024C186.439 294.024 183.623 294.696 180.871 296.04C178.119 297.32 175.879 299.4 174.151 302.28H173.863V295.368H160.903ZM253.041 320.04C253.041 322.088 252.849 324.072 252.465 325.992C252.081 327.912 251.441 329.64 250.545 331.176C249.649 332.648 248.433 333.832 246.897 334.728C245.425 335.624 243.569 336.072 241.329 336.072C239.217 336.072 237.393 335.624 235.857 334.728C234.385 333.768 233.137 332.552 232.113 331.08C231.153 329.544 230.449 327.816 230.001 325.896C229.553 323.976 229.329 322.056 229.329 320.136C229.329 318.088 229.521 316.136 229.905 314.28C230.353 312.36 231.025 310.664 231.921 309.192C232.881 307.72 234.129 306.536 235.665 305.64C237.201 304.744 239.089 304.296 241.329 304.296C243.569 304.296 245.425 304.744 246.897 305.64C248.369 306.536 249.553 307.72 250.449 309.192C251.409 310.6 252.081 312.264 252.465 314.184C252.849 316.04 253.041 317.992 253.041 320.04ZM253.233 338.664V345H266.193V276.456H252.561V301.416H252.369C250.833 298.984 248.721 297.16 246.033 295.944C243.409 294.664 240.625 294.024 237.681 294.024C234.033 294.024 230.833 294.76 228.081 296.232C225.329 297.64 223.025 299.528 221.169 301.896C219.377 304.264 218.001 307.016 217.041 310.152C216.145 313.224 215.697 316.424 215.697 319.752C215.697 323.208 216.145 326.536 217.041 329.736C218.001 332.936 219.377 335.784 221.169 338.28C223.025 340.712 225.361 342.664 228.177 344.136C230.993 345.544 234.257 346.248 237.969 346.248C241.233 346.248 244.145 345.672 246.705 344.52C249.329 343.304 251.441 341.352 253.041 338.664H253.233ZM303.215 295.368V345H316.847V318.984C316.847 313.928 317.679 310.312 319.343 308.136C321.007 305.896 323.695 304.776 327.407 304.776C330.671 304.776 332.943 305.8 334.223 307.848C335.503 309.832 336.143 312.872 336.143 316.968V345H349.775V314.472C349.775 311.4 349.487 308.616 348.911 306.12C348.399 303.56 347.471 301.416 346.127 299.688C344.783 297.896 342.927 296.52 340.559 295.56C338.255 294.536 335.279 294.024 331.631 294.024C328.751 294.024 325.935 294.696 323.183 296.04C320.431 297.32 318.191 299.4 316.463 302.28H316.175V295.368H303.215ZM393.53 314.856H371.354C371.418 313.896 371.61 312.808 371.93 311.592C372.314 310.376 372.922 309.224 373.754 308.136C374.65 307.048 375.802 306.152 377.21 305.448C378.682 304.68 380.506 304.296 382.682 304.296C386.01 304.296 388.474 305.192 390.074 306.984C391.738 308.776 392.89 311.4 393.53 314.856ZM371.354 323.496H407.162C407.418 319.656 407.098 315.976 406.202 312.456C405.306 308.936 403.834 305.8 401.786 303.048C399.802 300.296 397.242 298.12 394.106 296.52C390.97 294.856 387.29 294.024 383.066 294.024C379.29 294.024 375.834 294.696 372.698 296.04C369.626 297.384 366.97 299.24 364.73 301.608C362.49 303.912 360.762 306.664 359.546 309.864C358.33 313.064 357.722 316.52 357.722 320.232C357.722 324.072 358.298 327.592 359.45 330.792C360.666 333.992 362.362 336.744 364.538 339.048C366.714 341.352 369.37 343.144 372.506 344.424C375.642 345.64 379.162 346.248 383.066 346.248C388.698 346.248 393.498 344.968 397.466 342.408C401.434 339.848 404.378 335.592 406.298 329.64H394.298C393.85 331.176 392.634 332.648 390.65 334.056C388.666 335.4 386.298 336.072 383.546 336.072C379.706 336.072 376.762 335.08 374.714 333.096C372.666 331.112 371.546 327.912 371.354 323.496ZM414.671 310.632C414.863 307.432 415.663 304.776 417.071 302.664C418.479 300.552 420.271 298.856 422.447 297.576C424.623 296.296 427.055 295.4 429.743 294.888C432.495 294.312 435.247 294.024 437.999 294.024C440.495 294.024 443.023 294.216 445.583 294.6C448.143 294.92 450.479 295.592 452.591 296.616C454.703 297.64 456.431 299.08 457.775 300.936C459.119 302.728 459.791 305.128 459.791 308.136V333.96C459.791 336.2 459.919 338.344 460.175 340.392C460.431 342.44 460.879 343.976 461.519 345H447.695C447.439 344.232 447.215 343.464 447.023 342.696C446.895 341.864 446.799 341.032 446.735 340.2C444.559 342.44 441.999 344.008 439.055 344.904C436.111 345.8 433.103 346.248 430.031 346.248C427.663 346.248 425.455 345.96 423.407 345.384C421.359 344.808 419.567 343.912 418.031 342.696C416.495 341.48 415.279 339.944 414.383 338.088C413.551 336.232 413.135 334.024 413.135 331.464C413.135 328.648 413.615 326.344 414.575 324.552C415.599 322.696 416.879 321.224 418.415 320.136C420.015 319.048 421.807 318.248 423.791 317.736C425.839 317.16 427.887 316.712 429.935 316.392C431.983 316.072 433.999 315.816 435.983 315.624C437.967 315.432 439.727 315.144 441.263 314.76C442.799 314.376 444.015 313.832 444.911 313.128C445.807 312.36 446.223 311.272 446.159 309.864C446.159 308.392 445.903 307.24 445.391 306.408C444.943 305.512 444.303 304.84 443.471 304.392C442.703 303.88 441.775 303.56 440.687 303.432C439.663 303.24 438.543 303.144 437.327 303.144C434.639 303.144 432.527 303.72 430.991 304.872C429.455 306.024 428.559 307.944 428.303 310.632H414.671ZM446.159 320.712C445.583 321.224 444.847 321.64 443.951 321.96C443.119 322.216 442.191 322.44 441.167 322.632C440.207 322.824 439.183 322.984 438.095 323.112C437.007 323.24 435.919 323.4 434.831 323.592C433.807 323.784 432.783 324.04 431.759 324.36C430.799 324.68 429.935 325.128 429.167 325.704C428.463 326.216 427.887 326.888 427.439 327.72C426.991 328.552 426.767 329.608 426.767 330.888C426.767 332.104 426.991 333.128 427.439 333.96C427.887 334.792 428.495 335.464 429.263 335.976C430.031 336.424 430.927 336.744 431.951 336.936C432.975 337.128 434.031 337.224 435.119 337.224C437.807 337.224 439.887 336.776 441.359 335.88C442.831 334.984 443.919 333.928 444.623 332.712C445.327 331.432 445.743 330.152 445.871 328.872C446.063 327.592 446.159 326.568 446.159 325.8V320.712ZM470.372 295.368V345H484.004V322.632C484.004 320.392 484.228 318.312 484.676 316.392C485.124 314.472 485.86 312.808 486.884 311.4C487.972 309.928 489.38 308.776 491.108 307.944C492.836 307.112 494.948 306.696 497.444 306.696C498.276 306.696 499.14 306.76 500.036 306.888C500.932 306.952 501.7 307.048 502.34 307.176V294.504C501.252 294.184 500.26 294.024 499.364 294.024C497.636 294.024 495.972 294.28 494.372 294.792C492.772 295.304 491.268 296.04 489.859 297C488.452 297.896 487.204 299.016 486.116 300.36C485.028 301.64 484.164 303.048 483.524 304.584H483.332V295.368H470.372ZM508.068 276.456V345H521.7V276.456H508.068ZM556.914 351.144L577.65 295.368H563.538L552.69 329.352H552.498L541.266 295.368H526.77L544.146 341.928C544.53 342.888 544.722 343.912 544.722 345C544.722 346.472 544.274 347.816 543.378 349.032C542.546 350.248 541.234 350.952 539.442 351.144C538.098 351.208 536.754 351.176 535.41 351.048C534.066 350.92 532.754 350.792 531.474 350.664V361.896C532.882 362.024 534.258 362.12 535.602 362.184C537.01 362.312 538.418 362.376 539.826 362.376C544.498 362.376 548.146 361.512 550.77 359.784C553.394 358.056 555.442 355.176 556.914 351.144ZM608.934 276.456V345H622.566V318.984C622.566 313.928 623.398 310.312 625.062 308.136C626.726 305.896 629.414 304.776 633.126 304.776C636.39 304.776 638.662 305.8 639.942 307.848C641.222 309.832 641.862 312.872 641.862 316.968V345H655.494V314.472C655.494 311.4 655.206 308.616 654.63 306.12C654.118 303.56 653.19 301.416 651.846 299.688C650.502 297.896 648.646 296.52 646.278 295.56C643.974 294.536 640.998 294.024 637.35 294.024C634.79 294.024 632.166 294.696 629.478 296.04C626.79 297.32 624.582 299.4 622.854 302.28H622.566V276.456H608.934ZM665.264 310.632C665.456 307.432 666.256 304.776 667.664 302.664C669.072 300.552 670.864 298.856 673.04 297.576C675.216 296.296 677.648 295.4 680.336 294.888C683.088 294.312 685.84 294.024 688.592 294.024C691.088 294.024 693.616 294.216 696.176 294.6C698.736 294.92 701.072 295.592 703.184 296.616C705.296 297.64 707.024 299.08 708.368 300.936C709.712 302.728 710.384 305.128 710.384 308.136V333.96C710.384 336.2 710.512 338.344 710.768 340.392C711.024 342.44 711.472 343.976 712.112 345H698.288C698.032 344.232 697.808 343.464 697.616 342.696C697.488 341.864 697.392 341.032 697.328 340.2C695.152 342.44 692.592 344.008 689.648 344.904C686.704 345.8 683.696 346.248 680.624 346.248C678.256 346.248 676.048 345.96 674 345.384C671.952 344.808 670.16 343.912 668.624 342.696C667.088 341.48 665.872 339.944 664.976 338.088C664.144 336.232 663.728 334.024 663.728 331.464C663.728 328.648 664.208 326.344 665.168 324.552C666.192 322.696 667.472 321.224 669.008 320.136C670.608 319.048 672.4 318.248 674.384 317.736C676.432 317.16 678.48 316.712 680.528 316.392C682.576 316.072 684.592 315.816 686.576 315.624C688.56 315.432 690.32 315.144 691.856 314.76C693.392 314.376 694.608 313.832 695.504 313.128C696.4 312.36 696.816 311.272 696.752 309.864C696.752 308.392 696.496 307.24 695.984 306.408C695.536 305.512 694.896 304.84 694.064 304.392C693.296 303.88 692.368 303.56 691.28 303.432C690.256 303.24 689.136 303.144 687.92 303.144C685.232 303.144 683.12 303.72 681.584 304.872C680.048 306.024 679.152 307.944 678.896 310.632H665.264ZM696.752 320.712C696.176 321.224 695.44 321.64 694.544 321.96C693.712 322.216 692.784 322.44 691.76 322.632C690.8 322.824 689.776 322.984 688.688 323.112C687.6 323.24 686.512 323.4 685.424 323.592C684.4 323.784 683.376 324.04 682.352 324.36C681.392 324.68 680.528 325.128 679.76 325.704C679.056 326.216 678.48 326.888 678.032 327.72C677.584 328.552 677.36 329.608 677.36 330.888C677.36 332.104 677.584 333.128 678.032 333.96C678.48 334.792 679.088 335.464 679.856 335.976C680.624 336.424 681.52 336.744 682.544 336.936C683.568 337.128 684.624 337.224 685.712 337.224C688.4 337.224 690.48 336.776 691.952 335.88C693.424 334.984 694.512 333.928 695.216 332.712C695.92 331.432 696.336 330.152 696.464 328.872C696.656 327.592 696.752 326.568 696.752 325.8V320.712ZM721.349 276.456V345H734.981V276.456H721.349ZM748.691 304.488V345H762.323V304.488H771.731V295.368H762.323V292.392C762.323 290.344 762.707 288.904 763.475 288.072C764.307 287.176 765.651 286.728 767.507 286.728C769.235 286.728 770.899 286.824 772.499 287.016V276.84C771.347 276.776 770.163 276.712 768.947 276.648C767.731 276.52 766.515 276.456 765.299 276.456C759.731 276.456 755.571 277.864 752.819 280.68C750.067 283.496 748.691 287.112 748.691 291.528V295.368H740.531V304.488H748.691ZM107.28 437.232C107.28 435.248 107.472 433.296 107.856 431.376C108.24 429.456 108.88 427.76 109.776 426.288C110.736 424.816 111.984 423.632 113.52 422.736C115.056 421.776 116.976 421.296 119.28 421.296C121.584 421.296 123.504 421.776 125.04 422.736C126.64 423.632 127.888 424.816 128.784 426.288C129.744 427.76 130.416 429.456 130.8 431.376C131.184 433.296 131.376 435.248 131.376 437.232C131.376 439.216 131.184 441.168 130.8 443.088C130.416 444.944 129.744 446.64 128.784 448.176C127.888 449.648 126.64 450.832 125.04 451.728C123.504 452.624 121.584 453.072 119.28 453.072C116.976 453.072 115.056 452.624 113.52 451.728C111.984 450.832 110.736 449.648 109.776 448.176C108.88 446.64 108.24 444.944 107.856 443.088C107.472 441.168 107.28 439.216 107.28 437.232ZM93.648 437.232C93.648 441.2 94.256 444.784 95.472 447.984C96.688 451.184 98.416 453.936 100.656 456.24C102.896 458.48 105.584 460.208 108.72 461.424C111.856 462.64 115.376 463.248 119.28 463.248C123.184 463.248 126.704 462.64 129.84 461.424C133.04 460.208 135.76 458.48 138 456.24C140.24 453.936 141.968 451.184 143.184 447.984C144.4 444.784 145.008 441.2 145.008 437.232C145.008 433.264 144.4 429.68 143.184 426.48C141.968 423.216 140.24 420.464 138 418.224C135.76 415.92 133.04 414.16 129.84 412.944C126.704 411.664 123.184 411.024 119.28 411.024C115.376 411.024 111.856 411.664 108.72 412.944C105.584 414.16 102.896 415.92 100.656 418.224C98.416 420.464 96.688 423.216 95.472 426.48C94.256 429.68 93.648 433.264 93.648 437.232ZM156.848 421.488V462H170.48V421.488H179.888V412.368H170.48V409.392C170.48 407.344 170.864 405.904 171.632 405.072C172.464 404.176 173.808 403.728 175.664 403.728C177.392 403.728 179.056 403.824 180.656 404.016V393.84C179.504 393.776 178.32 393.712 177.104 393.648C175.888 393.52 174.672 393.456 173.456 393.456C167.888 393.456 163.728 394.864 160.976 397.68C158.224 400.496 156.848 404.112 156.848 408.528V412.368H148.688V421.488H156.848ZM229.839 412.368V397.488H216.207V412.368H207.951V421.488H216.207V450.768C216.207 453.264 216.623 455.28 217.455 456.816C218.287 458.352 219.407 459.536 220.815 460.368C222.287 461.2 223.951 461.744 225.807 462C227.727 462.32 229.743 462.48 231.855 462.48C233.199 462.48 234.575 462.448 235.983 462.384C237.391 462.32 238.671 462.192 239.823 462V451.44C239.183 451.568 238.511 451.664 237.807 451.728C237.103 451.792 236.367 451.824 235.599 451.824C233.295 451.824 231.759 451.44 230.991 450.672C230.223 449.904 229.839 448.368 229.839 446.064V421.488H239.823V412.368H229.839ZM246.309 393.456V462H259.941V435.984C259.941 430.928 260.773 427.312 262.437 425.136C264.101 422.896 266.789 421.776 270.501 421.776C273.765 421.776 276.037 422.8 277.317 424.848C278.597 426.832 279.237 429.872 279.237 433.968V462H292.869V431.472C292.869 428.4 292.581 425.616 292.005 423.12C291.493 420.56 290.565 418.416 289.221 416.688C287.877 414.896 286.021 413.52 283.653 412.56C281.349 411.536 278.373 411.024 274.725 411.024C272.165 411.024 269.541 411.696 266.853 413.04C264.165 414.32 261.957 416.4 260.229 419.28H259.941V393.456H246.309ZM336.623 431.856H314.447C314.511 430.896 314.703 429.808 315.023 428.592C315.407 427.376 316.015 426.224 316.847 425.136C317.743 424.048 318.895 423.152 320.303 422.448C321.775 421.68 323.599 421.296 325.775 421.296C329.103 421.296 331.567 422.192 333.167 423.984C334.831 425.776 335.983 428.4 336.623 431.856ZM314.447 440.496H350.255C350.511 436.656 350.191 432.976 349.295 429.456C348.399 425.936 346.927 422.8 344.879 420.048C342.895 417.296 340.335 415.12 337.199 413.52C334.063 411.856 330.383 411.024 326.159 411.024C322.383 411.024 318.927 411.696 315.791 413.04C312.719 414.384 310.063 416.24 307.823 418.608C305.583 420.912 303.855 423.664 302.639 426.864C301.423 430.064 300.815 433.52 300.815 437.232C300.815 441.072 301.391 444.592 302.543 447.792C303.759 450.992 305.455 453.744 307.631 456.048C309.807 458.352 312.463 460.144 315.599 461.424C318.735 462.64 322.255 463.248 326.159 463.248C331.791 463.248 336.591 461.968 340.559 459.408C344.527 456.848 347.471 452.592 349.391 446.64H337.391C336.943 448.176 335.727 449.648 333.743 451.056C331.759 452.4 329.391 453.072 326.639 453.072C322.799 453.072 319.855 452.08 317.807 450.096C315.759 448.112 314.639 444.912 314.447 440.496ZM358.724 412.368V462H372.356V433.2C372.356 430.768 372.708 428.816 373.412 427.344C374.116 425.808 374.948 424.656 375.908 423.888C376.932 423.056 377.956 422.512 378.98 422.256C380.068 421.936 380.932 421.776 381.572 421.776C383.748 421.776 385.38 422.16 386.468 422.928C387.62 423.632 388.42 424.592 388.868 425.808C389.38 427.024 389.668 428.368 389.732 429.84C389.796 431.248 389.828 432.688 389.828 434.16V462H403.46V434.352C403.46 432.816 403.556 431.312 403.748 429.84C404.004 428.304 404.452 426.96 405.092 425.808C405.796 424.592 406.724 423.632 407.876 422.928C409.092 422.16 410.66 421.776 412.58 421.776C414.5 421.776 416.004 422.096 417.092 422.736C418.244 423.376 419.108 424.24 419.684 425.328C420.26 426.416 420.612 427.696 420.74 429.168C420.868 430.64 420.932 432.208 420.932 433.872V462H434.564V428.784C434.564 425.584 434.116 422.864 433.22 420.624C432.324 418.32 431.076 416.464 429.476 415.056C427.876 413.648 425.956 412.624 423.716 411.984C421.476 411.344 419.044 411.024 416.42 411.024C412.964 411.024 409.956 411.856 407.396 413.52C404.9 415.184 402.916 417.104 401.444 419.28C400.1 416.208 398.116 414.064 395.492 412.848C392.932 411.632 390.084 411.024 386.948 411.024C383.684 411.024 380.772 411.728 378.212 413.136C375.716 414.544 373.572 416.528 371.78 419.088H371.588V412.368H358.724ZM471.483 427.632C471.675 424.432 472.475 421.776 473.883 419.664C475.291 417.552 477.083 415.856 479.259 414.576C481.435 413.296 483.867 412.4 486.555 411.888C489.307 411.312 492.059 411.024 494.811 411.024C497.307 411.024 499.835 411.216 502.395 411.6C504.955 411.92 507.291 412.592 509.403 413.616C511.515 414.64 513.243 416.08 514.587 417.936C515.931 419.728 516.603 422.128 516.603 425.136V450.96C516.603 453.2 516.731 455.344 516.987 457.392C517.243 459.44 517.691 460.976 518.331 462H504.507C504.251 461.232 504.027 460.464 503.835 459.696C503.707 458.864 503.611 458.032 503.547 457.2C501.371 459.44 498.811 461.008 495.867 461.904C492.923 462.8 489.915 463.248 486.843 463.248C484.475 463.248 482.267 462.96 480.219 462.384C478.171 461.808 476.379 460.912 474.843 459.696C473.307 458.48 472.091 456.944 471.195 455.088C470.363 453.232 469.947 451.024 469.947 448.464C469.947 445.648 470.427 443.344 471.387 441.552C472.411 439.696 473.691 438.224 475.227 437.136C476.827 436.048 478.619 435.248 480.603 434.736C482.651 434.16 484.699 433.712 486.747 433.392C488.795 433.072 490.811 432.816 492.795 432.624C494.779 432.432 496.539 432.144 498.075 431.76C499.611 431.376 500.827 430.832 501.723 430.128C502.619 429.36 503.035 428.272 502.971 426.864C502.971 425.392 502.715 424.24 502.203 423.408C501.755 422.512 501.115 421.84 500.283 421.392C499.515 420.88 498.587 420.56 497.499 420.432C496.475 420.24 495.355 420.144 494.139 420.144C491.451 420.144 489.339 420.72 487.803 421.872C486.267 423.024 485.371 424.944 485.115 427.632H471.483ZM502.971 437.712C502.395 438.224 501.659 438.64 500.763 438.96C499.931 439.216 499.003 439.44 497.979 439.632C497.019 439.824 495.995 439.984 494.907 440.112C493.819 440.24 492.731 440.4 491.643 440.592C490.619 440.784 489.595 441.04 488.571 441.36C487.611 441.68 486.747 442.128 485.979 442.704C485.275 443.216 484.699 443.888 484.251 444.72C483.803 445.552 483.579 446.608 483.579 447.888C483.579 449.104 483.803 450.128 484.251 450.96C484.699 451.792 485.307 452.464 486.075 452.976C486.843 453.424 487.739 453.744 488.763 453.936C489.787 454.128 490.843 454.224 491.931 454.224C494.619 454.224 496.699 453.776 498.171 452.88C499.643 451.984 500.731 450.928 501.435 449.712C502.139 448.432 502.555 447.152 502.683 445.872C502.875 444.592 502.971 443.568 502.971 442.8V437.712ZM527.184 412.368V462H540.816V439.632C540.816 437.392 541.04 435.312 541.488 433.392C541.936 431.472 542.672 429.808 543.696 428.4C544.784 426.928 546.192 425.776 547.92 424.944C549.648 424.112 551.76 423.696 554.256 423.696C555.088 423.696 555.952 423.76 556.848 423.888C557.744 423.952 558.512 424.048 559.152 424.176V411.504C558.064 411.184 557.072 411.024 556.176 411.024C554.448 411.024 552.784 411.28 551.184 411.792C549.584 412.304 548.08 413.04 546.672 414C545.264 414.896 544.016 416.016 542.928 417.36C541.84 418.64 540.976 420.048 540.336 421.584H540.144V412.368H527.184ZM596.217 431.856H574.041C574.105 430.896 574.297 429.808 574.617 428.592C575.001 427.376 575.609 426.224 576.441 425.136C577.337 424.048 578.489 423.152 579.897 422.448C581.369 421.68 583.193 421.296 585.369 421.296C588.697 421.296 591.161 422.192 592.761 423.984C594.425 425.776 595.577 428.4 596.217 431.856ZM574.041 440.496H609.849C610.105 436.656 609.785 432.976 608.889 429.456C607.993 425.936 606.521 422.8 604.473 420.048C602.489 417.296 599.929 415.12 596.793 413.52C593.657 411.856 589.977 411.024 585.753 411.024C581.977 411.024 578.521 411.696 575.385 413.04C572.313 414.384 569.657 416.24 567.417 418.608C565.177 420.912 563.449 423.664 562.233 426.864C561.017 430.064 560.409 433.52 560.409 437.232C560.409 441.072 560.985 444.592 562.137 447.792C563.353 450.992 565.049 453.744 567.225 456.048C569.401 458.352 572.057 460.144 575.193 461.424C578.329 462.64 581.849 463.248 585.753 463.248C591.385 463.248 596.185 461.968 600.153 459.408C604.121 456.848 607.065 452.592 608.985 446.64H596.985C596.537 448.176 595.321 449.648 593.337 451.056C591.353 452.4 588.985 453.072 586.233 453.072C582.393 453.072 579.449 452.08 577.401 450.096C575.353 448.112 574.233 444.912 574.041 440.496ZM644.653 412.368V462H658.285V435.984C658.285 430.928 659.117 427.312 660.781 425.136C662.445 422.896 665.133 421.776 668.845 421.776C672.109 421.776 674.381 422.8 675.661 424.848C676.941 426.832 677.581 429.872 677.581 433.968V462H691.213V431.472C691.213 428.4 690.925 425.616 690.349 423.12C689.837 420.56 688.909 418.416 687.565 416.688C686.221 414.896 684.365 413.52 681.997 412.56C679.693 411.536 676.717 411.024 673.069 411.024C670.189 411.024 667.373 411.696 664.621 413.04C661.869 414.32 659.629 416.4 657.901 419.28H657.613V412.368H644.653ZM700.983 427.632C701.175 424.432 701.975 421.776 703.383 419.664C704.791 417.552 706.583 415.856 708.759 414.576C710.935 413.296 713.367 412.4 716.055 411.888C718.807 411.312 721.559 411.024 724.311 411.024C726.807 411.024 729.335 411.216 731.895 411.6C734.455 411.92 736.791 412.592 738.903 413.616C741.015 414.64 742.743 416.08 744.087 417.936C745.431 419.728 746.103 422.128 746.103 425.136V450.96C746.103 453.2 746.231 455.344 746.487 457.392C746.743 459.44 747.191 460.976 747.831 462H734.007C733.751 461.232 733.527 460.464 733.335 459.696C733.207 458.864 733.111 458.032 733.047 457.2C730.871 459.44 728.311 461.008 725.367 461.904C722.423 462.8 719.415 463.248 716.343 463.248C713.975 463.248 711.767 462.96 709.719 462.384C707.671 461.808 705.879 460.912 704.343 459.696C702.807 458.48 701.591 456.944 700.695 455.088C699.863 453.232 699.447 451.024 699.447 448.464C699.447 445.648 699.927 443.344 700.887 441.552C701.911 439.696 703.191 438.224 704.727 437.136C706.327 436.048 708.119 435.248 710.103 434.736C712.151 434.16 714.199 433.712 716.247 433.392C718.295 433.072 720.311 432.816 722.295 432.624C724.279 432.432 726.039 432.144 727.575 431.76C729.111 431.376 730.327 430.832 731.223 430.128C732.119 429.36 732.535 428.272 732.471 426.864C732.471 425.392 732.215 424.24 731.703 423.408C731.255 422.512 730.615 421.84 729.783 421.392C729.015 420.88 728.087 420.56 726.999 420.432C725.975 420.24 724.855 420.144 723.639 420.144C720.951 420.144 718.839 420.72 717.303 421.872C715.767 423.024 714.871 424.944 714.615 427.632H700.983ZM732.471 437.712C731.895 438.224 731.159 438.64 730.263 438.96C729.431 439.216 728.503 439.44 727.479 439.632C726.519 439.824 725.495 439.984 724.407 440.112C723.319 440.24 722.231 440.4 721.143 440.592C720.119 440.784 719.095 441.04 718.071 441.36C717.111 441.68 716.247 442.128 715.479 442.704C714.775 443.216 714.199 443.888 713.751 444.72C713.303 445.552 713.079 446.608 713.079 447.888C713.079 449.104 713.303 450.128 713.751 450.96C714.199 451.792 714.807 452.464 715.575 452.976C716.343 453.424 717.239 453.744 718.263 453.936C719.287 454.128 720.343 454.224 721.431 454.224C724.119 454.224 726.199 453.776 727.671 452.88C729.143 451.984 730.231 450.928 730.935 449.712C731.639 448.432 732.055 447.152 732.183 445.872C732.375 444.592 732.471 443.568 732.471 442.8V437.712ZM757.068 412.368V462H770.7V433.2C770.7 430.768 771.052 428.816 771.756 427.344C772.46 425.808 773.292 424.656 774.252 423.888C775.276 423.056 776.3 422.512 777.324 422.256C778.412 421.936 779.276 421.776 779.916 421.776C782.092 421.776 783.724 422.16 784.812 422.928C785.964 423.632 786.764 424.592 787.212 425.808C787.724 427.024 788.012 428.368 788.076 429.84C788.14 431.248 788.172 432.688 788.172 434.16V462H801.804V434.352C801.804 432.816 801.9 431.312 802.092 429.84C802.348 428.304 802.796 426.96 803.436 425.808C804.14 424.592 805.068 423.632 806.22 422.928C807.436 422.16 809.004 421.776 810.924 421.776C812.844 421.776 814.348 422.096 815.436 422.736C816.588 423.376 817.452 424.24 818.028 425.328C818.604 426.416 818.956 427.696 819.084 429.168C819.212 430.64 819.276 432.208 819.276 433.872V462H832.908V428.784C832.908 425.584 832.46 422.864 831.564 420.624C830.668 418.32 829.42 416.464 827.82 415.056C826.22 413.648 824.3 412.624 822.06 411.984C819.82 411.344 817.388 411.024 814.764 411.024C811.308 411.024 808.3 411.856 805.74 413.52C803.244 415.184 801.26 417.104 799.788 419.28C798.444 416.208 796.46 414.064 793.836 412.848C791.276 411.632 788.428 411.024 785.292 411.024C782.028 411.024 779.116 411.728 776.556 413.136C774.06 414.544 771.916 416.528 770.124 419.088H769.932V412.368H757.068ZM877.092 431.856H854.916C854.98 430.896 855.172 429.808 855.492 428.592C855.876 427.376 856.484 426.224 857.316 425.136C858.212 424.048 859.364 423.152 860.772 422.448C862.244 421.68 864.068 421.296 866.244 421.296C869.572 421.296 872.036 422.192 873.636 423.984C875.3 425.776 876.452 428.4 877.092 431.856ZM854.916 440.496H890.724C890.98 436.656 890.66 432.976 889.764 429.456C888.868 425.936 887.396 422.8 885.348 420.048C883.364 417.296 880.804 415.12 877.668 413.52C874.532 411.856 870.852 411.024 866.628 411.024C862.852 411.024 859.396 411.696 856.26 413.04C853.188 414.384 850.532 416.24 848.292 418.608C846.052 420.912 844.324 423.664 843.108 426.864C841.892 430.064 841.284 433.52 841.284 437.232C841.284 441.072 841.86 444.592 843.012 447.792C844.228 450.992 845.924 453.744 848.1 456.048C850.276 458.352 852.932 460.144 856.068 461.424C859.204 462.64 862.724 463.248 866.628 463.248C872.26 463.248 877.06 461.968 881.028 459.408C884.996 456.848 887.94 452.592 889.86 446.64H877.86C877.412 448.176 876.196 449.648 874.212 451.056C872.228 452.4 869.86 453.072 867.108 453.072C863.268 453.072 860.324 452.08 858.276 450.096C856.228 448.112 855.108 444.912 854.916 440.496ZM934.041 437.04C934.041 439.088 933.849 441.072 933.465 442.992C933.081 444.912 932.441 446.64 931.545 448.176C930.649 449.648 929.433 450.832 927.897 451.728C926.425 452.624 924.569 453.072 922.329 453.072C920.217 453.072 918.393 452.624 916.857 451.728C915.385 450.768 914.137 449.552 913.113 448.08C912.153 446.544 911.449 444.816 911.001 442.896C910.553 440.976 910.329 439.056 910.329 437.136C910.329 435.088 910.521 433.136 910.905 431.28C911.353 429.36 912.025 427.664 912.921 426.192C913.881 424.72 915.129 423.536 916.665 422.64C918.201 421.744 920.089 421.296 922.329 421.296C924.569 421.296 926.425 421.744 927.897 422.64C929.369 423.536 930.553 424.72 931.449 426.192C932.409 427.6 933.081 429.264 933.465 431.184C933.849 433.04 934.041 434.992 934.041 437.04ZM934.233 455.664V462H947.193V393.456H933.561V418.416H933.369C931.833 415.984 929.721 414.16 927.033 412.944C924.409 411.664 921.625 411.024 918.681 411.024C915.033 411.024 911.833 411.76 909.081 413.232C906.329 414.64 904.025 416.528 902.169 418.896C900.377 421.264 899.001 424.016 898.041 427.152C897.145 430.224 896.697 433.424 896.697 436.752C896.697 440.208 897.145 443.536 898.041 446.736C899.001 449.936 900.377 452.784 902.169 455.28C904.025 457.712 906.361 459.664 909.177 461.136C911.993 462.544 915.257 463.248 918.969 463.248C922.233 463.248 925.145 462.672 927.705 461.52C930.329 460.304 932.441 458.352 934.041 455.664H934.233ZM94.608 544.632C94.8 541.432 95.6 538.776 97.008 536.664C98.416 534.552 100.208 532.856 102.384 531.576C104.56 530.296 106.992 529.4 109.68 528.888C112.432 528.312 115.184 528.024 117.936 528.024C120.432 528.024 122.96 528.216 125.52 528.6C128.08 528.92 130.416 529.592 132.528 530.616C134.64 531.64 136.368 533.08 137.712 534.936C139.056 536.728 139.728 539.128 139.728 542.136V567.96C139.728 570.2 139.856 572.344 140.112 574.392C140.368 576.44 140.816 577.976 141.456 579H127.632C127.376 578.232 127.152 577.464 126.96 576.696C126.832 575.864 126.736 575.032 126.672 574.2C124.496 576.44 121.936 578.008 118.992 578.904C116.048 579.8 113.04 580.248 109.968 580.248C107.6 580.248 105.392 579.96 103.344 579.384C101.296 578.808 99.504 577.912 97.968 576.696C96.432 575.48 95.216 573.944 94.32 572.088C93.488 570.232 93.072 568.024 93.072 565.464C93.072 562.648 93.552 560.344 94.512 558.552C95.536 556.696 96.816 555.224 98.352 554.136C99.952 553.048 101.744 552.248 103.728 551.736C105.776 551.16 107.824 550.712 109.872 550.392C111.92 550.072 113.936 549.816 115.92 549.624C117.904 549.432 119.664 549.144 121.2 548.76C122.736 548.376 123.952 547.832 124.848 547.128C125.744 546.36 126.16 545.272 126.096 543.864C126.096 542.392 125.84 541.24 125.328 540.408C124.88 539.512 124.24 538.84 123.408 538.392C122.64 537.88 121.712 537.56 120.624 537.432C119.6 537.24 118.48 537.144 117.264 537.144C114.576 537.144 112.464 537.72 110.928 538.872C109.392 540.024 108.496 541.944 108.24 544.632H94.608ZM126.096 554.712C125.52 555.224 124.784 555.64 123.888 555.96C123.056 556.216 122.128 556.44 121.104 556.632C120.144 556.824 119.12 556.984 118.032 557.112C116.944 557.24 115.856 557.4 114.768 557.592C113.744 557.784 112.72 558.04 111.696 558.36C110.736 558.68 109.872 559.128 109.104 559.704C108.4 560.216 107.824 560.888 107.376 561.72C106.928 562.552 106.704 563.608 106.704 564.888C106.704 566.104 106.928 567.128 107.376 567.96C107.824 568.792 108.432 569.464 109.2 569.976C109.968 570.424 110.864 570.744 111.888 570.936C112.912 571.128 113.968 571.224 115.056 571.224C117.744 571.224 119.824 570.776 121.296 569.88C122.768 568.984 123.856 567.928 124.56 566.712C125.264 565.432 125.68 564.152 125.808 562.872C126 561.592 126.096 560.568 126.096 559.8V554.712ZM153.285 538.488V579H166.917V538.488H176.325V529.368H166.917V526.392C166.917 524.344 167.301 522.904 168.069 522.072C168.901 521.176 170.245 520.728 172.101 520.728C173.829 520.728 175.493 520.824 177.093 521.016V510.84C175.941 510.776 174.757 510.712 173.541 510.648C172.325 510.52 171.109 510.456 169.893 510.456C164.325 510.456 160.165 511.864 157.413 514.68C154.661 517.496 153.285 521.112 153.285 525.528V529.368H145.125V538.488H153.285ZM199.558 529.368V514.488H185.926V529.368H177.67V538.488H185.926V567.768C185.926 570.264 186.342 572.28 187.174 573.816C188.006 575.352 189.126 576.536 190.534 577.368C192.006 578.2 193.67 578.744 195.526 579C197.446 579.32 199.462 579.48 201.574 579.48C202.918 579.48 204.294 579.448 205.702 579.384C207.11 579.32 208.39 579.192 209.542 579V568.44C208.902 568.568 208.23 568.664 207.526 568.728C206.822 568.792 206.086 568.824 205.318 568.824C203.014 568.824 201.478 568.44 200.71 567.672C199.942 566.904 199.558 565.368 199.558 563.064V538.488H209.542V529.368H199.558ZM249.436 548.856H227.26C227.324 547.896 227.516 546.808 227.836 545.592C228.22 544.376 228.828 543.224 229.66 542.136C230.556 541.048 231.708 540.152 233.116 539.448C234.588 538.68 236.412 538.296 238.588 538.296C241.916 538.296 244.38 539.192 245.98 540.984C247.644 542.776 248.796 545.4 249.436 548.856ZM227.26 557.496H263.068C263.324 553.656 263.004 549.976 262.108 546.456C261.212 542.936 259.74 539.8 257.692 537.048C255.708 534.296 253.148 532.12 250.012 530.52C246.876 528.856 243.196 528.024 238.972 528.024C235.196 528.024 231.74 528.696 228.604 530.04C225.532 531.384 222.876 533.24 220.636 535.608C218.396 537.912 216.668 540.664 215.452 543.864C214.236 547.064 213.628 550.52 213.628 554.232C213.628 558.072 214.204 561.592 215.356 564.792C216.572 567.992 218.268 570.744 220.444 573.048C222.62 575.352 225.276 577.144 228.412 578.424C231.548 579.64 235.068 580.248 238.972 580.248C244.604 580.248 249.404 578.968 253.372 576.408C257.34 573.848 260.284 569.592 262.204 563.64H250.204C249.756 565.176 248.54 566.648 246.556 568.056C244.572 569.4 242.204 570.072 239.452 570.072C235.612 570.072 232.668 569.08 230.62 567.096C228.572 565.112 227.452 561.912 227.26 557.496ZM271.153 529.368V579H284.785V556.632C284.785 554.392 285.009 552.312 285.457 550.392C285.905 548.472 286.641 546.808 287.665 545.4C288.753 543.928 290.161 542.776 291.889 541.944C293.617 541.112 295.729 540.696 298.225 540.696C299.057 540.696 299.921 540.76 300.817 540.888C301.713 540.952 302.481 541.048 303.121 541.176V528.504C302.033 528.184 301.041 528.024 300.145 528.024C298.417 528.024 296.753 528.28 295.153 528.792C293.553 529.304 292.049 530.04 290.641 531C289.233 531.896 287.985 533.016 286.897 534.36C285.809 535.64 284.945 537.048 284.305 538.584H284.113V529.368H271.153ZM345.744 562.872H332.784C332.912 566.2 333.648 568.984 334.992 571.224C336.4 573.4 338.16 575.16 340.272 576.504C342.448 577.848 344.912 578.808 347.664 579.384C350.416 579.96 353.232 580.248 356.112 580.248C358.928 580.248 361.68 579.96 364.368 579.384C367.12 578.872 369.552 577.944 371.664 576.6C373.776 575.256 375.472 573.496 376.752 571.32C378.096 569.08 378.768 566.328 378.768 563.064C378.768 560.76 378.32 558.84 377.424 557.304C376.528 555.704 375.344 554.392 373.872 553.368C372.4 552.28 370.704 551.416 368.784 550.776C366.928 550.136 365.008 549.592 363.024 549.144C361.104 548.696 359.216 548.28 357.36 547.896C355.504 547.512 353.84 547.096 352.368 546.648C350.96 546.136 349.808 545.496 348.912 544.728C348.016 543.96 347.568 542.968 347.568 541.752C347.568 540.728 347.824 539.928 348.336 539.352C348.848 538.712 349.456 538.232 350.16 537.912C350.928 537.592 351.76 537.4 352.656 537.336C353.552 537.208 354.384 537.144 355.152 537.144C357.584 537.144 359.696 537.624 361.488 538.584C363.28 539.48 364.272 541.24 364.464 543.864H377.424C377.168 540.792 376.368 538.264 375.024 536.28C373.744 534.232 372.112 532.6 370.128 531.384C368.144 530.168 365.872 529.304 363.312 528.792C360.816 528.28 358.224 528.024 355.536 528.024C352.848 528.024 350.224 528.28 347.664 528.792C345.104 529.24 342.8 530.072 340.752 531.288C338.704 532.44 337.04 534.04 335.76 536.088C334.544 538.136 333.936 540.76 333.936 543.96C333.936 546.136 334.384 547.992 335.28 549.528C336.176 551 337.36 552.248 338.832 553.272C340.304 554.232 341.968 555.032 343.824 555.672C345.744 556.248 347.696 556.76 349.68 557.208C354.544 558.232 358.32 559.256 361.008 560.28C363.76 561.304 365.136 562.84 365.136 564.888C365.136 566.104 364.848 567.128 364.272 567.96C363.696 568.728 362.96 569.368 362.064 569.88C361.232 570.328 360.272 570.68 359.184 570.936C358.16 571.128 357.168 571.224 356.208 571.224C354.864 571.224 353.552 571.064 352.272 570.744C351.056 570.424 349.968 569.944 349.008 569.304C348.048 568.6 347.248 567.736 346.608 566.712C346.032 565.624 345.744 564.344 345.744 562.872ZM398.843 554.232C398.843 552.248 399.035 550.296 399.419 548.376C399.803 546.456 400.443 544.76 401.339 543.288C402.299 541.816 403.547 540.632 405.083 539.736C406.619 538.776 408.539 538.296 410.843 538.296C413.147 538.296 415.067 538.776 416.603 539.736C418.203 540.632 419.451 541.816 420.347 543.288C421.307 544.76 421.979 546.456 422.363 548.376C422.747 550.296 422.939 552.248 422.939 554.232C422.939 556.216 422.747 558.168 422.363 560.088C421.979 561.944 421.307 563.64 420.347 565.176C419.451 566.648 418.203 567.832 416.603 568.728C415.067 569.624 413.147 570.072 410.843 570.072C408.539 570.072 406.619 569.624 405.083 568.728C403.547 567.832 402.299 566.648 401.339 565.176C400.443 563.64 399.803 561.944 399.419 560.088C399.035 558.168 398.843 556.216 398.843 554.232ZM385.211 554.232C385.211 558.2 385.819 561.784 387.035 564.984C388.251 568.184 389.979 570.936 392.219 573.24C394.459 575.48 397.147 577.208 400.283 578.424C403.419 579.64 406.939 580.248 410.843 580.248C414.747 580.248 418.267 579.64 421.403 578.424C424.603 577.208 427.323 575.48 429.562 573.24C431.803 570.936 433.531 568.184 434.747 564.984C435.963 561.784 436.571 558.2 436.571 554.232C436.571 550.264 435.963 546.68 434.747 543.48C433.531 540.216 431.803 537.464 429.562 535.224C427.323 532.92 424.603 531.16 421.403 529.944C418.267 528.664 414.747 528.024 410.843 528.024C406.939 528.024 403.419 528.664 400.283 529.944C397.147 531.16 394.459 532.92 392.219 535.224C389.979 537.464 388.251 540.216 387.035 543.48C385.819 546.68 385.211 550.264 385.211 554.232ZM445.818 529.368V579H459.45V550.2C459.45 547.768 459.802 545.816 460.506 544.344C461.21 542.808 462.042 541.656 463.002 540.888C464.026 540.056 465.05 539.512 466.074 539.256C467.162 538.936 468.026 538.776 468.666 538.776C470.842 538.776 472.474 539.16 473.562 539.928C474.714 540.632 475.514 541.592 475.962 542.808C476.474 544.024 476.762 545.368 476.826 546.84C476.89 548.248 476.922 549.688 476.922 551.16V579H490.554V551.352C490.554 549.816 490.65 548.312 490.842 546.84C491.098 545.304 491.546 543.96 492.186 542.808C492.89 541.592 493.818 540.632 494.97 539.928C496.186 539.16 497.754 538.776 499.674 538.776C501.594 538.776 503.098 539.096 504.186 539.736C505.338 540.376 506.202 541.24 506.778 542.328C507.354 543.416 507.706 544.696 507.834 546.168C507.962 547.64 508.026 549.208 508.026 550.872V579H521.658V545.784C521.658 542.584 521.21 539.864 520.314 537.624C519.418 535.32 518.17 533.464 516.57 532.056C514.97 530.648 513.05 529.624 510.81 528.984C508.57 528.344 506.138 528.024 503.514 528.024C500.058 528.024 497.05 528.856 494.49 530.52C491.994 532.184 490.01 534.104 488.538 536.28C487.194 533.208 485.21 531.064 482.586 529.848C480.026 528.632 477.178 528.024 474.042 528.024C470.778 528.024 467.866 528.728 465.306 530.136C462.81 531.544 460.666 533.528 458.874 536.088H458.682V529.368H445.818ZM565.842 548.856H543.666C543.73 547.896 543.922 546.808 544.242 545.592C544.626 544.376 545.234 543.224 546.066 542.136C546.962 541.048 548.114 540.152 549.522 539.448C550.994 538.68 552.818 538.296 554.994 538.296C558.322 538.296 560.786 539.192 562.386 540.984C564.05 542.776 565.202 545.4 565.842 548.856ZM543.666 557.496H579.474C579.73 553.656 579.41 549.976 578.514 546.456C577.618 542.936 576.146 539.8 574.098 537.048C572.114 534.296 569.554 532.12 566.418 530.52C563.282 528.856 559.602 528.024 555.378 528.024C551.602 528.024 548.146 528.696 545.01 530.04C541.938 531.384 539.282 533.24 537.042 535.608C534.802 537.912 533.074 540.664 531.858 543.864C530.642 547.064 530.034 550.52 530.034 554.232C530.034 558.072 530.61 561.592 531.762 564.792C532.978 567.992 534.674 570.744 536.85 573.048C539.026 575.352 541.682 577.144 544.818 578.424C547.954 579.64 551.474 580.248 555.378 580.248C561.01 580.248 565.81 578.968 569.778 576.408C573.746 573.848 576.69 569.592 578.61 563.64H566.61C566.162 565.176 564.946 566.648 562.962 568.056C560.978 569.4 558.61 570.072 555.858 570.072C552.018 570.072 549.074 569.08 547.026 567.096C544.978 565.112 543.858 561.912 543.666 557.496ZM599.655 554.232C599.655 552.248 599.847 550.296 600.231 548.376C600.615 546.456 601.255 544.76 602.151 543.288C603.111 541.816 604.359 540.632 605.895 539.736C607.431 538.776 609.351 538.296 611.655 538.296C613.959 538.296 615.879 538.776 617.415 539.736C619.015 540.632 620.263 541.816 621.159 543.288C622.119 544.76 622.791 546.456 623.175 548.376C623.559 550.296 623.751 552.248 623.751 554.232C623.751 556.216 623.559 558.168 623.175 560.088C622.791 561.944 622.119 563.64 621.159 565.176C620.263 566.648 619.015 567.832 617.415 568.728C615.879 569.624 613.959 570.072 611.655 570.072C609.351 570.072 607.431 569.624 605.895 568.728C604.359 567.832 603.111 566.648 602.151 565.176C601.255 563.64 600.615 561.944 600.231 560.088C599.847 558.168 599.655 556.216 599.655 554.232ZM586.023 554.232C586.023 558.2 586.631 561.784 587.847 564.984C589.063 568.184 590.791 570.936 593.031 573.24C595.271 575.48 597.959 577.208 601.095 578.424C604.231 579.64 607.751 580.248 611.655 580.248C615.559 580.248 619.079 579.64 622.215 578.424C625.415 577.208 628.135 575.48 630.375 573.24C632.615 570.936 634.343 568.184 635.559 564.984C636.775 561.784 637.383 558.2 637.383 554.232C637.383 550.264 636.775 546.68 635.559 543.48C634.343 540.216 632.615 537.464 630.375 535.224C628.135 532.92 625.415 531.16 622.215 529.944C619.079 528.664 615.559 528.024 611.655 528.024C607.751 528.024 604.231 528.664 601.095 529.944C597.959 531.16 595.271 532.92 593.031 535.224C590.791 537.464 589.063 540.216 587.847 543.48C586.631 546.68 586.023 550.264 586.023 554.232ZM646.247 529.368V579H659.879V552.984C659.879 547.928 660.711 544.312 662.375 542.136C664.039 539.896 666.727 538.776 670.439 538.776C673.703 538.776 675.975 539.8 677.255 541.848C678.535 543.832 679.175 546.872 679.175 550.968V579H692.807V548.472C692.807 545.4 692.519 542.616 691.943 540.12C691.431 537.56 690.503 535.416 689.159 533.688C687.815 531.896 685.959 530.52 683.591 529.56C681.287 528.536 678.311 528.024 674.663 528.024C671.783 528.024 668.967 528.696 666.215 530.04C663.463 531.32 661.223 533.4 659.495 536.28H659.207V529.368H646.247ZM736.561 548.856H714.385C714.449 547.896 714.641 546.808 714.961 545.592C715.345 544.376 715.953 543.224 716.785 542.136C717.681 541.048 718.833 540.152 720.241 539.448C721.713 538.68 723.537 538.296 725.713 538.296C729.041 538.296 731.505 539.192 733.105 540.984C734.769 542.776 735.921 545.4 736.561 548.856ZM714.385 557.496H750.193C750.449 553.656 750.129 549.976 749.233 546.456C748.337 542.936 746.865 539.8 744.817 537.048C742.833 534.296 740.273 532.12 737.137 530.52C734.001 528.856 730.321 528.024 726.097 528.024C722.321 528.024 718.865 528.696 715.729 530.04C712.657 531.384 710.001 533.24 707.761 535.608C705.521 537.912 703.793 540.664 702.577 543.864C701.361 547.064 700.753 550.52 700.753 554.232C700.753 558.072 701.329 561.592 702.481 564.792C703.697 567.992 705.393 570.744 707.569 573.048C709.745 575.352 712.401 577.144 715.537 578.424C718.673 579.64 722.193 580.248 726.097 580.248C731.729 580.248 736.529 578.968 740.497 576.408C744.465 573.848 747.409 569.592 749.329 563.64H737.329C736.881 565.176 735.665 566.648 733.681 568.056C731.697 569.4 729.329 570.072 726.577 570.072C722.737 570.072 719.793 569.08 717.745 567.096C715.697 565.112 714.577 561.912 714.385 557.496ZM758.854 564.216V579H773.926V564.216H758.854Z" fill="black"/>
</g>
<defs>
<clipPath id="clip0">
<rect width="1920" height="1080" fill="white"/>
</clipPath>
</defs>
</svg>
