<svg width="1920" height="1080" viewBox="0 0 1920 1080" fill="none" xmlns="http://www.w3.org/2000/svg">
<g clip-path="url(#clip0)">
<rect width="1920" height="1080" fill="white"/>
<path d="M143.928 321L157.752 269.592H146.664L138.24 305.016H138.096L129.312 269.592H118.728L109.8 304.584H109.656L101.52 269.592H90.216L103.824 321H115.272L123.84 286.008H123.984L132.696 321H143.928ZM182.858 298.392H166.226C166.274 297.672 166.418 296.856 166.658 295.944C166.946 295.032 167.402 294.168 168.026 293.352C168.698 292.536 169.562 291.864 170.618 291.336C171.722 290.76 173.09 290.472 174.722 290.472C177.218 290.472 179.066 291.144 180.266 292.488C181.514 293.832 182.378 295.8 182.858 298.392ZM166.226 304.872H193.082C193.274 301.992 193.034 299.232 192.362 296.592C191.69 293.952 190.586 291.6 189.05 289.536C187.562 287.472 185.642 285.84 183.29 284.64C180.938 283.392 178.178 282.768 175.01 282.768C172.178 282.768 169.586 283.272 167.234 284.28C164.93 285.288 162.938 286.68 161.258 288.456C159.578 290.184 158.282 292.248 157.37 294.648C156.458 297.048 156.002 299.64 156.002 302.424C156.002 305.304 156.434 307.944 157.298 310.344C158.21 312.744 159.482 314.808 161.114 316.536C162.746 318.264 164.738 319.608 167.09 320.568C169.442 321.48 172.082 321.936 175.01 321.936C179.234 321.936 182.834 320.976 185.81 319.056C188.786 317.136 190.994 313.944 192.434 309.48H183.434C183.098 310.632 182.186 311.736 180.698 312.792C179.21 313.8 177.434 314.304 175.37 314.304C172.49 314.304 170.282 313.56 168.746 312.072C167.21 310.584 166.37 308.184 166.226 304.872ZM245.609 302.28C245.609 303.816 245.465 305.304 245.177 306.744C244.889 308.184 244.409 309.48 243.737 310.632C243.065 311.736 242.153 312.624 241.001 313.296C239.897 313.968 238.505 314.304 236.825 314.304C235.241 314.304 233.873 313.968 232.721 313.296C231.617 312.576 230.681 311.664 229.913 310.56C229.193 309.408 228.665 308.112 228.329 306.672C227.993 305.232 227.825 303.792 227.825 302.352C227.825 300.816 227.969 299.352 228.257 297.96C228.593 296.52 229.097 295.248 229.769 294.144C230.489 293.04 231.425 292.152 232.577 291.48C233.729 290.808 235.145 290.472 236.825 290.472C238.505 290.472 239.897 290.808 241.001 291.48C242.105 292.152 242.993 293.04 243.665 294.144C244.385 295.2 244.889 296.448 245.177 297.888C245.465 299.28 245.609 300.744 245.609 302.28ZM245.753 316.248V321H255.473V269.592H245.249V288.312H245.105C243.953 286.488 242.369 285.12 240.353 284.208C238.385 283.248 236.297 282.768 234.089 282.768C231.353 282.768 228.953 283.32 226.889 284.424C224.825 285.48 223.097 286.896 221.705 288.672C220.361 290.448 219.329 292.512 218.609 294.864C217.937 297.168 217.601 299.568 217.601 302.064C217.601 304.656 217.937 307.152 218.609 309.552C219.329 311.952 220.361 314.088 221.705 315.96C223.097 317.784 224.849 319.248 226.961 320.352C229.073 321.408 231.521 321.936 234.305 321.936C236.753 321.936 238.937 321.504 240.857 320.64C242.825 319.728 244.409 318.264 245.609 316.248H245.753ZM273.713 278.016V269.592H263.489V278.016H273.713ZM263.489 283.776V321H273.713V283.776H263.489ZM308.187 302.28C308.187 303.816 308.043 305.304 307.755 306.744C307.467 308.184 306.987 309.48 306.315 310.632C305.643 311.736 304.731 312.624 303.579 313.296C302.475 313.968 301.083 314.304 299.403 314.304C297.819 314.304 296.451 313.968 295.299 313.296C294.195 312.576 293.259 311.664 292.491 310.56C291.771 309.408 291.243 308.112 290.907 306.672C290.571 305.232 290.403 303.792 290.403 302.352C290.403 300.816 290.547 299.352 290.835 297.96C291.171 296.52 291.675 295.248 292.347 294.144C293.067 293.04 294.003 292.152 295.155 291.48C296.307 290.808 297.723 290.472 299.403 290.472C301.083 290.472 302.475 290.808 303.579 291.48C304.683 292.152 305.571 293.04 306.243 294.144C306.963 295.2 307.467 296.448 307.755 297.888C308.043 299.28 308.187 300.744 308.187 302.28ZM308.331 316.248V321H318.051V269.592H307.827V288.312H307.683C306.531 286.488 304.947 285.12 302.931 284.208C300.963 283.248 298.875 282.768 296.667 282.768C293.931 282.768 291.531 283.32 289.467 284.424C287.403 285.48 285.675 286.896 284.283 288.672C282.939 290.448 281.907 292.512 281.187 294.864C280.515 297.168 280.179 299.568 280.179 302.064C280.179 304.656 280.515 307.152 281.187 309.552C281.907 311.952 282.939 314.088 284.283 315.96C285.675 317.784 287.427 319.248 289.539 320.352C291.651 321.408 294.099 321.936 296.883 321.936C299.331 321.936 301.515 321.504 303.435 320.64C305.403 319.728 306.987 318.264 308.187 316.248H308.331ZM345.818 283.776V321H356.042V301.488C356.042 297.696 356.666 294.984 357.914 293.352C359.162 291.672 361.178 290.832 363.962 290.832C366.41 290.832 368.114 291.6 369.074 293.136C370.034 294.624 370.514 296.904 370.514 299.976V321H380.738V298.104C380.738 295.8 380.522 293.712 380.09 291.84C379.706 289.92 379.01 288.312 378.002 287.016C376.994 285.672 375.602 284.64 373.826 283.92C372.098 283.152 369.866 282.768 367.13 282.768C364.97 282.768 362.858 283.272 360.794 284.28C358.73 285.24 357.05 286.8 355.754 288.96H355.538V283.776H345.818ZM397.569 302.424C397.569 300.936 397.713 299.472 398.001 298.032C398.289 296.592 398.769 295.32 399.441 294.216C400.161 293.112 401.097 292.224 402.249 291.552C403.401 290.832 404.841 290.472 406.569 290.472C408.297 290.472 409.737 290.832 410.889 291.552C412.089 292.224 413.025 293.112 413.697 294.216C414.417 295.32 414.921 296.592 415.209 298.032C415.497 299.472 415.641 300.936 415.641 302.424C415.641 303.912 415.497 305.376 415.209 306.816C414.921 308.208 414.417 309.48 413.697 310.632C413.025 311.736 412.089 312.624 410.889 313.296C409.737 313.968 408.297 314.304 406.569 314.304C404.841 314.304 403.401 313.968 402.249 313.296C401.097 312.624 400.161 311.736 399.441 310.632C398.769 309.48 398.289 308.208 398.001 306.816C397.713 305.376 397.569 303.912 397.569 302.424ZM387.345 302.424C387.345 305.4 387.801 308.088 388.713 310.488C389.625 312.888 390.921 314.952 392.601 316.68C394.281 318.36 396.297 319.656 398.649 320.568C401.001 321.48 403.641 321.936 406.569 321.936C409.497 321.936 412.137 321.48 414.489 320.568C416.889 319.656 418.929 318.36 420.609 316.68C422.289 314.952 423.585 312.888 424.497 310.488C425.409 308.088 425.865 305.4 425.865 302.424C425.865 299.448 425.409 296.76 424.497 294.36C423.585 291.912 422.289 289.848 420.609 288.168C418.929 286.44 416.889 285.12 414.489 284.208C412.137 283.248 409.497 282.768 406.569 282.768C403.641 282.768 401.001 283.248 398.649 284.208C396.297 285.12 394.281 286.44 392.601 288.168C390.921 289.848 389.625 291.912 388.713 294.36C387.801 296.76 387.345 299.448 387.345 302.424ZM445.473 283.776V272.616H435.249V283.776H429.057V290.616H435.249V312.576C435.249 314.448 435.561 315.96 436.185 317.112C436.809 318.264 437.649 319.152 438.705 319.776C439.809 320.4 441.057 320.808 442.449 321C443.889 321.24 445.401 321.36 446.985 321.36C447.993 321.36 449.025 321.336 450.081 321.288C451.137 321.24 452.097 321.144 452.961 321V313.08C452.481 313.176 451.977 313.248 451.449 313.296C450.921 313.344 450.369 313.368 449.793 313.368C448.065 313.368 446.913 313.08 446.337 312.504C445.761 311.928 445.473 310.776 445.473 309.048V290.616H452.961V283.776H445.473ZM480.097 290.616V321H490.321V290.616H497.377V283.776H490.321V281.544C490.321 280.008 490.609 278.928 491.185 278.304C491.809 277.632 492.817 277.296 494.209 277.296C495.505 277.296 496.753 277.368 497.953 277.512V269.88C497.089 269.832 496.201 269.784 495.289 269.736C494.377 269.64 493.465 269.592 492.553 269.592C488.377 269.592 485.257 270.648 483.193 272.76C481.129 274.872 480.097 277.584 480.097 280.896V283.776H473.977V290.616H480.097ZM503.569 283.776V321H513.793V283.776H503.569ZM513.793 278.016V269.592H503.569V278.016H513.793ZM521.88 283.776V321H532.104V301.488C532.104 297.696 532.728 294.984 533.976 293.352C535.224 291.672 537.24 290.832 540.024 290.832C542.472 290.832 544.176 291.6 545.136 293.136C546.096 294.624 546.576 296.904 546.576 299.976V321H556.8V298.104C556.8 295.8 556.584 293.712 556.152 291.84C555.768 289.92 555.072 288.312 554.064 287.016C553.056 285.672 551.664 284.64 549.888 283.92C548.16 283.152 545.928 282.768 543.192 282.768C541.032 282.768 538.92 283.272 536.856 284.28C534.792 285.24 533.112 286.8 531.816 288.96H531.6V283.776H521.88ZM590.984 302.28C590.984 303.816 590.84 305.304 590.552 306.744C590.264 308.184 589.784 309.48 589.112 310.632C588.44 311.736 587.528 312.624 586.376 313.296C585.272 313.968 583.88 314.304 582.2 314.304C580.616 314.304 579.248 313.968 578.096 313.296C576.992 312.576 576.056 311.664 575.288 310.56C574.568 309.408 574.04 308.112 573.704 306.672C573.368 305.232 573.2 303.792 573.2 302.352C573.2 300.816 573.344 299.352 573.632 297.96C573.968 296.52 574.472 295.248 575.144 294.144C575.864 293.04 576.8 292.152 577.952 291.48C579.104 290.808 580.52 290.472 582.2 290.472C583.88 290.472 585.272 290.808 586.376 291.48C587.48 292.152 588.368 293.04 589.04 294.144C589.76 295.2 590.264 296.448 590.552 297.888C590.84 299.28 590.984 300.744 590.984 302.28ZM591.128 316.248V321H600.848V269.592H590.624V288.312H590.48C589.328 286.488 587.744 285.12 585.728 284.208C583.76 283.248 581.672 282.768 579.464 282.768C576.728 282.768 574.328 283.32 572.264 284.424C570.2 285.48 568.472 286.896 567.08 288.672C565.736 290.448 564.704 292.512 563.984 294.864C563.312 297.168 562.976 299.568 562.976 302.064C562.976 304.656 563.312 307.152 563.984 309.552C564.704 311.952 565.736 314.088 567.08 315.96C568.472 317.784 570.224 319.248 572.336 320.352C574.448 321.408 576.896 321.936 579.68 321.936C582.128 321.936 584.312 321.504 586.232 320.64C588.2 319.728 589.784 318.264 590.984 316.248H591.128ZM628.183 295.224C628.327 292.824 628.927 290.832 629.983 289.248C631.039 287.664 632.383 286.392 634.015 285.432C635.647 284.472 637.471 283.8 639.487 283.416C641.551 282.984 643.615 282.768 645.679 282.768C647.551 282.768 649.447 282.912 651.367 283.2C653.287 283.44 655.039 283.944 656.623 284.712C658.207 285.48 659.503 286.56 660.511 287.952C661.519 289.296 662.023 291.096 662.023 293.352V312.72C662.023 314.4 662.119 316.008 662.311 317.544C662.503 319.08 662.839 320.232 663.319 321H652.951C652.759 320.424 652.591 319.848 652.447 319.272C652.351 318.648 652.279 318.024 652.231 317.4C650.599 319.08 648.679 320.256 646.471 320.928C644.263 321.6 642.007 321.936 639.703 321.936C637.927 321.936 636.271 321.72 634.735 321.288C633.199 320.856 631.855 320.184 630.703 319.272C629.551 318.36 628.639 317.208 627.967 315.816C627.343 314.424 627.031 312.768 627.031 310.848C627.031 308.736 627.391 307.008 628.111 305.664C628.879 304.272 629.839 303.168 630.991 302.352C632.191 301.536 633.535 300.936 635.023 300.552C636.559 300.12 638.095 299.784 639.631 299.544C641.167 299.304 642.679 299.112 644.167 298.968C645.655 298.824 646.975 298.608 648.127 298.32C649.279 298.032 650.191 297.624 650.863 297.096C651.535 296.52 651.847 295.704 651.799 294.648C651.799 293.544 651.607 292.68 651.223 292.056C650.887 291.384 650.407 290.88 649.783 290.544C649.207 290.16 648.511 289.92 647.695 289.824C646.927 289.68 646.087 289.608 645.175 289.608C643.159 289.608 641.575 290.04 640.423 290.904C639.271 291.768 638.599 293.208 638.407 295.224H628.183ZM651.799 302.784C651.367 303.168 650.815 303.48 650.143 303.72C649.519 303.912 648.823 304.08 648.055 304.224C647.335 304.368 646.567 304.488 645.751 304.584C644.935 304.68 644.119 304.8 643.303 304.944C642.535 305.088 641.767 305.28 640.999 305.52C640.279 305.76 639.631 306.096 639.055 306.528C638.527 306.912 638.095 307.416 637.759 308.04C637.423 308.664 637.255 309.456 637.255 310.416C637.255 311.328 637.423 312.096 637.759 312.72C638.095 313.344 638.551 313.848 639.127 314.232C639.703 314.568 640.375 314.808 641.143 314.952C641.911 315.096 642.703 315.168 643.519 315.168C645.535 315.168 647.095 314.832 648.199 314.16C649.303 313.488 650.119 312.696 650.647 311.784C651.175 310.824 651.487 309.864 651.583 308.904C651.727 307.944 651.799 307.176 651.799 306.6V302.784ZM669.958 283.776V321H680.182V301.488C680.182 297.696 680.806 294.984 682.054 293.352C683.302 291.672 685.318 290.832 688.102 290.832C690.55 290.832 692.254 291.6 693.214 293.136C694.174 294.624 694.654 296.904 694.654 299.976V321H704.878V298.104C704.878 295.8 704.662 293.712 704.23 291.84C703.846 289.92 703.15 288.312 702.142 287.016C701.134 285.672 699.742 284.64 697.966 283.92C696.238 283.152 694.006 282.768 691.27 282.768C689.11 282.768 686.998 283.272 684.934 284.28C682.87 285.24 681.19 286.8 679.894 288.96H679.678V283.776H669.958ZM730.998 325.608L746.55 283.776H735.966L727.83 309.264H727.686L719.262 283.776H708.39L721.422 318.696C721.71 319.416 721.854 320.184 721.854 321C721.854 322.104 721.518 323.112 720.846 324.024C720.222 324.936 719.238 325.464 717.894 325.608C716.886 325.656 715.878 325.632 714.87 325.536C713.862 325.44 712.878 325.344 711.918 325.248V333.672C712.974 333.768 714.006 333.84 715.014 333.888C716.07 333.984 717.126 334.032 718.182 334.032C721.686 334.032 724.422 333.384 726.39 332.088C728.358 330.792 729.894 328.632 730.998 325.608ZM759.046 302.424C759.046 300.936 759.19 299.472 759.478 298.032C759.766 296.592 760.246 295.32 760.918 294.216C761.638 293.112 762.574 292.224 763.726 291.552C764.878 290.832 766.318 290.472 768.046 290.472C769.774 290.472 771.214 290.832 772.366 291.552C773.566 292.224 774.502 293.112 775.174 294.216C775.894 295.32 776.398 296.592 776.686 298.032C776.974 299.472 777.118 300.936 777.118 302.424C777.118 303.912 776.974 305.376 776.686 306.816C776.398 308.208 775.894 309.48 775.174 310.632C774.502 311.736 773.566 312.624 772.366 313.296C771.214 313.968 769.774 314.304 768.046 314.304C766.318 314.304 764.878 313.968 763.726 313.296C762.574 312.624 761.638 311.736 760.918 310.632C760.246 309.48 759.766 308.208 759.478 306.816C759.19 305.376 759.046 303.912 759.046 302.424ZM748.822 302.424C748.822 305.4 749.278 308.088 750.19 310.488C751.102 312.888 752.398 314.952 754.078 316.68C755.758 318.36 757.774 319.656 760.126 320.568C762.478 321.48 765.118 321.936 768.046 321.936C770.974 321.936 773.614 321.48 775.966 320.568C778.366 319.656 780.406 318.36 782.086 316.68C783.766 314.952 785.062 312.888 785.974 310.488C786.886 308.088 787.342 305.4 787.342 302.424C787.342 299.448 786.886 296.76 785.974 294.36C785.062 291.912 783.766 289.848 782.086 288.168C780.406 286.44 778.366 285.12 775.966 284.208C773.614 283.248 770.974 282.768 768.046 282.768C765.118 282.768 762.478 283.248 760.126 284.208C757.774 285.12 755.758 286.44 754.078 288.168C752.398 289.848 751.102 291.912 750.19 294.36C749.278 296.76 748.822 299.448 748.822 302.424ZM793.99 283.776V321H804.214V301.488C804.214 297.696 804.838 294.984 806.086 293.352C807.334 291.672 809.35 290.832 812.134 290.832C814.582 290.832 816.286 291.6 817.246 293.136C818.206 294.624 818.686 296.904 818.686 299.976V321H828.91V298.104C828.91 295.8 828.694 293.712 828.262 291.84C827.878 289.92 827.182 288.312 826.174 287.016C825.166 285.672 823.774 284.64 821.998 283.92C820.27 283.152 818.038 282.768 815.302 282.768C813.142 282.768 811.03 283.272 808.966 284.28C806.902 285.24 805.222 286.8 803.926 288.96H803.71V283.776H793.99ZM861.725 298.392H845.093C845.141 297.672 845.285 296.856 845.525 295.944C845.813 295.032 846.269 294.168 846.893 293.352C847.565 292.536 848.429 291.864 849.485 291.336C850.589 290.76 851.957 290.472 853.589 290.472C856.085 290.472 857.933 291.144 859.133 292.488C860.381 293.832 861.245 295.8 861.725 298.392ZM845.093 304.872H871.949C872.141 301.992 871.901 299.232 871.229 296.592C870.557 293.952 869.453 291.6 867.917 289.536C866.429 287.472 864.509 285.84 862.157 284.64C859.805 283.392 857.045 282.768 853.877 282.768C851.045 282.768 848.453 283.272 846.101 284.28C843.797 285.288 841.805 286.68 840.125 288.456C838.445 290.184 837.149 292.248 836.237 294.648C835.325 297.048 834.869 299.64 834.869 302.424C834.869 305.304 835.301 307.944 836.165 310.344C837.077 312.744 838.349 314.808 839.981 316.536C841.613 318.264 843.605 319.608 845.957 320.568C848.309 321.48 850.949 321.936 853.877 321.936C858.101 321.936 861.701 320.976 864.677 319.056C867.653 317.136 869.861 313.944 871.301 309.48H862.301C861.965 310.632 861.053 311.736 859.565 312.792C858.077 313.8 856.301 314.304 854.237 314.304C851.357 314.304 849.149 313.56 847.613 312.072C846.077 310.584 845.237 308.184 845.093 304.872ZM104.4 366.016V357.592H94.176V366.016H104.4ZM94.176 371.776V409H104.4V371.776H94.176ZM112.451 371.776V409H122.675V389.488C122.675 385.696 123.299 382.984 124.547 381.352C125.795 379.672 127.811 378.832 130.595 378.832C133.043 378.832 134.747 379.6 135.707 381.136C136.667 382.624 137.147 384.904 137.147 387.976V409H147.371V386.104C147.371 383.8 147.155 381.712 146.723 379.84C146.339 377.92 145.643 376.312 144.635 375.016C143.627 373.672 142.235 372.64 140.459 371.92C138.731 371.152 136.499 370.768 133.763 370.768C131.603 370.768 129.491 371.272 127.427 372.28C125.363 373.24 123.683 374.8 122.387 376.96H122.171V371.776H112.451ZM174.737 383.224C174.881 380.824 175.481 378.832 176.537 377.248C177.593 375.664 178.937 374.392 180.569 373.432C182.201 372.472 184.025 371.8 186.041 371.416C188.105 370.984 190.169 370.768 192.233 370.768C194.105 370.768 196.001 370.912 197.921 371.2C199.841 371.44 201.593 371.944 203.177 372.712C204.761 373.48 206.057 374.56 207.065 375.952C208.073 377.296 208.577 379.096 208.577 381.352V400.72C208.577 402.4 208.673 404.008 208.865 405.544C209.057 407.08 209.393 408.232 209.873 409H199.505C199.313 408.424 199.145 407.848 199.001 407.272C198.905 406.648 198.833 406.024 198.785 405.4C197.153 407.08 195.233 408.256 193.025 408.928C190.817 409.6 188.561 409.936 186.257 409.936C184.481 409.936 182.825 409.72 181.289 409.288C179.753 408.856 178.409 408.184 177.257 407.272C176.105 406.36 175.193 405.208 174.521 403.816C173.897 402.424 173.585 400.768 173.585 398.848C173.585 396.736 173.945 395.008 174.665 393.664C175.433 392.272 176.393 391.168 177.545 390.352C178.745 389.536 180.089 388.936 181.577 388.552C183.113 388.12 184.649 387.784 186.185 387.544C187.721 387.304 189.233 387.112 190.721 386.968C192.209 386.824 193.529 386.608 194.681 386.32C195.833 386.032 196.745 385.624 197.417 385.096C198.089 384.52 198.401 383.704 198.353 382.648C198.353 381.544 198.161 380.68 197.777 380.056C197.441 379.384 196.961 378.88 196.337 378.544C195.761 378.16 195.065 377.92 194.249 377.824C193.481 377.68 192.641 377.608 191.729 377.608C189.713 377.608 188.129 378.04 186.977 378.904C185.825 379.768 185.153 381.208 184.961 383.224H174.737ZM198.353 390.784C197.921 391.168 197.369 391.48 196.697 391.72C196.073 391.912 195.377 392.08 194.609 392.224C193.889 392.368 193.121 392.488 192.305 392.584C191.489 392.68 190.673 392.8 189.857 392.944C189.089 393.088 188.321 393.28 187.553 393.52C186.833 393.76 186.185 394.096 185.609 394.528C185.081 394.912 184.649 395.416 184.313 396.04C183.977 396.664 183.809 397.456 183.809 398.416C183.809 399.328 183.977 400.096 184.313 400.72C184.649 401.344 185.105 401.848 185.681 402.232C186.257 402.568 186.929 402.808 187.697 402.952C188.465 403.096 189.257 403.168 190.073 403.168C192.089 403.168 193.649 402.832 194.753 402.16C195.857 401.488 196.673 400.696 197.201 399.784C197.729 398.824 198.041 397.864 198.137 396.904C198.281 395.944 198.353 395.176 198.353 394.6V390.784ZM216.513 371.776V409H226.737V389.488C226.737 385.696 227.361 382.984 228.609 381.352C229.857 379.672 231.873 378.832 234.657 378.832C237.105 378.832 238.809 379.6 239.769 381.136C240.729 382.624 241.209 384.904 241.209 387.976V409H251.433V386.104C251.433 383.8 251.217 381.712 250.785 379.84C250.401 377.92 249.705 376.312 248.697 375.016C247.689 373.672 246.297 372.64 244.521 371.92C242.793 371.152 240.561 370.768 237.825 370.768C235.665 370.768 233.553 371.272 231.489 372.28C229.425 373.24 227.745 374.8 226.449 376.96H226.233V371.776H216.513ZM277.553 413.608L293.105 371.776H282.521L274.385 397.264H274.241L265.817 371.776H254.945L267.977 406.696C268.265 407.416 268.409 408.184 268.409 409C268.409 410.104 268.073 411.112 267.401 412.024C266.777 412.936 265.793 413.464 264.449 413.608C263.441 413.656 262.433 413.632 261.425 413.536C260.417 413.44 259.433 413.344 258.473 413.248V421.672C259.529 421.768 260.561 421.84 261.569 421.888C262.625 421.984 263.681 422.032 264.737 422.032C268.241 422.032 270.977 421.384 272.945 420.088C274.913 418.792 276.449 416.632 277.553 413.608ZM325.64 390.424C325.64 388.936 325.784 387.472 326.072 386.032C326.36 384.592 326.84 383.32 327.512 382.216C328.232 381.112 329.168 380.224 330.32 379.552C331.472 378.832 332.912 378.472 334.64 378.472C336.368 378.472 337.808 378.832 338.96 379.552C340.16 380.224 341.096 381.112 341.768 382.216C342.488 383.32 342.992 384.592 343.28 386.032C343.568 387.472 343.712 388.936 343.712 390.424C343.712 391.912 343.568 393.376 343.28 394.816C342.992 396.208 342.488 397.48 341.768 398.632C341.096 399.736 340.16 400.624 338.96 401.296C337.808 401.968 336.368 402.304 334.64 402.304C332.912 402.304 331.472 401.968 330.32 401.296C329.168 400.624 328.232 399.736 327.512 398.632C326.84 397.48 326.36 396.208 326.072 394.816C325.784 393.376 325.64 391.912 325.64 390.424ZM315.416 390.424C315.416 393.4 315.872 396.088 316.784 398.488C317.696 400.888 318.992 402.952 320.672 404.68C322.352 406.36 324.368 407.656 326.72 408.568C329.072 409.48 331.712 409.936 334.64 409.936C337.568 409.936 340.208 409.48 342.56 408.568C344.96 407.656 347 406.36 348.68 404.68C350.36 402.952 351.656 400.888 352.568 398.488C353.48 396.088 353.936 393.4 353.936 390.424C353.936 387.448 353.48 384.76 352.568 382.36C351.656 379.912 350.36 377.848 348.68 376.168C347 374.44 344.96 373.12 342.56 372.208C340.208 371.248 337.568 370.768 334.64 370.768C331.712 370.768 329.072 371.248 326.72 372.208C324.368 373.12 322.352 374.44 320.672 376.168C318.992 377.848 317.696 379.912 316.784 382.36C315.872 384.76 315.416 387.448 315.416 390.424ZM373.543 371.776V360.616H363.319V371.776H357.127V378.616H363.319V400.576C363.319 402.448 363.631 403.96 364.255 405.112C364.879 406.264 365.719 407.152 366.775 407.776C367.879 408.4 369.127 408.808 370.519 409C371.959 409.24 373.471 409.36 375.055 409.36C376.063 409.36 377.095 409.336 378.151 409.288C379.207 409.24 380.167 409.144 381.031 409V401.08C380.551 401.176 380.047 401.248 379.519 401.296C378.991 401.344 378.439 401.368 377.863 401.368C376.135 401.368 374.983 401.08 374.407 400.504C373.831 399.928 373.543 398.776 373.543 397.048V378.616H381.031V371.776H373.543ZM385.896 357.592V409H396.12V389.488C396.12 385.696 396.744 382.984 397.992 381.352C399.24 379.672 401.256 378.832 404.04 378.832C406.488 378.832 408.192 379.6 409.152 381.136C410.112 382.624 410.592 384.904 410.592 387.976V409H420.816V386.104C420.816 383.8 420.6 381.712 420.168 379.84C419.784 377.92 419.088 376.312 418.08 375.016C417.072 373.672 415.68 372.64 413.904 371.92C412.176 371.152 409.944 370.768 407.208 370.768C405.288 370.768 403.32 371.272 401.304 372.28C399.288 373.24 397.632 374.8 396.336 376.96H396.12V357.592H385.896ZM453.632 386.392H437C437.048 385.672 437.192 384.856 437.432 383.944C437.72 383.032 438.176 382.168 438.8 381.352C439.472 380.536 440.336 379.864 441.392 379.336C442.496 378.76 443.864 378.472 445.496 378.472C447.992 378.472 449.84 379.144 451.04 380.488C452.288 381.832 453.152 383.8 453.632 386.392ZM437 392.872H463.856C464.048 389.992 463.808 387.232 463.136 384.592C462.464 381.952 461.36 379.6 459.824 377.536C458.336 375.472 456.416 373.84 454.064 372.64C451.712 371.392 448.952 370.768 445.784 370.768C442.952 370.768 440.36 371.272 438.008 372.28C435.704 373.288 433.712 374.68 432.032 376.456C430.352 378.184 429.056 380.248 428.144 382.648C427.232 385.048 426.776 387.64 426.776 390.424C426.776 393.304 427.208 395.944 428.072 398.344C428.984 400.744 430.256 402.808 431.888 404.536C433.52 406.264 435.512 407.608 437.864 408.568C440.216 409.48 442.856 409.936 445.784 409.936C450.008 409.936 453.608 408.976 456.584 407.056C459.56 405.136 461.768 401.944 463.208 397.48H454.208C453.872 398.632 452.96 399.736 451.472 400.792C449.984 401.8 448.208 402.304 446.144 402.304C443.264 402.304 441.056 401.56 439.52 400.072C437.984 398.584 437.144 396.184 437 392.872ZM469.919 371.776V409H480.143V392.224C480.143 390.544 480.311 388.984 480.647 387.544C480.983 386.104 481.535 384.856 482.303 383.8C483.119 382.696 484.175 381.832 485.471 381.208C486.767 380.584 488.351 380.272 490.223 380.272C490.847 380.272 491.495 380.32 492.167 380.416C492.839 380.464 493.415 380.536 493.895 380.632V371.128C493.079 370.888 492.335 370.768 491.663 370.768C490.367 370.768 489.119 370.96 487.919 371.344C486.719 371.728 485.591 372.28 484.535 373C483.479 373.672 482.543 374.512 481.727 375.52C480.911 376.48 480.263 377.536 479.783 378.688H479.639V371.776H469.919ZM535.295 400.216C533.711 400.216 532.391 399.88 531.335 399.208C530.279 398.536 529.415 397.672 528.743 396.616C528.119 395.56 527.663 394.384 527.375 393.088C527.135 391.744 527.015 390.4 527.015 389.056C527.015 387.664 527.159 386.344 527.447 385.096C527.783 383.8 528.287 382.672 528.959 381.712C529.679 380.704 530.543 379.912 531.551 379.336C532.607 378.76 533.855 378.472 535.295 378.472C536.975 378.472 538.367 378.784 539.471 379.408C540.575 380.032 541.463 380.872 542.135 381.928C542.807 382.984 543.287 384.208 543.575 385.6C543.863 386.944 544.007 388.384 544.007 389.92C544.007 391.264 543.815 392.56 543.431 393.808C543.095 395.008 542.567 396.088 541.847 397.048C541.127 398.008 540.215 398.776 539.111 399.352C538.007 399.928 536.735 400.216 535.295 400.216ZM553.727 406.624V371.776H544.007V376.744H543.863C542.615 374.584 541.055 373.048 539.183 372.136C537.359 371.224 535.223 370.768 532.775 370.768C530.183 370.768 527.879 371.272 525.863 372.28C523.895 373.288 522.239 374.656 520.895 376.384C519.551 378.064 518.519 380.032 517.799 382.288C517.127 384.496 516.791 386.8 516.791 389.2C516.791 391.744 517.079 394.168 517.655 396.472C518.279 398.728 519.239 400.72 520.535 402.448C521.831 404.128 523.487 405.472 525.503 406.48C527.519 407.44 529.919 407.92 532.703 407.92C534.959 407.92 537.095 407.464 539.111 406.552C541.175 405.592 542.759 404.128 543.863 402.16H544.007V407.056C544.055 409.696 543.407 411.88 542.063 413.608C540.767 415.336 538.679 416.2 535.799 416.2C533.975 416.2 532.367 415.816 530.975 415.048C529.583 414.328 528.647 413.008 528.167 411.088H518.015C518.159 413.2 518.735 415 519.743 416.488C520.799 418.024 522.095 419.272 523.631 420.232C525.215 421.192 526.943 421.888 528.815 422.32C530.735 422.8 532.607 423.04 534.431 423.04C538.703 423.04 542.111 422.464 544.655 421.312C547.199 420.16 549.143 418.744 550.487 417.064C551.831 415.432 552.695 413.656 553.079 411.736C553.511 409.816 553.727 408.112 553.727 406.624ZM587.014 386.392H570.382C570.43 385.672 570.574 384.856 570.814 383.944C571.102 383.032 571.558 382.168 572.182 381.352C572.854 380.536 573.718 379.864 574.774 379.336C575.878 378.76 577.246 378.472 578.878 378.472C581.374 378.472 583.222 379.144 584.422 380.488C585.67 381.832 586.534 383.8 587.014 386.392ZM570.382 392.872H597.238C597.43 389.992 597.19 387.232 596.518 384.592C595.846 381.952 594.742 379.6 593.206 377.536C591.718 375.472 589.798 373.84 587.446 372.64C585.094 371.392 582.334 370.768 579.166 370.768C576.334 370.768 573.742 371.272 571.39 372.28C569.086 373.288 567.094 374.68 565.414 376.456C563.734 378.184 562.438 380.248 561.526 382.648C560.614 385.048 560.158 387.64 560.158 390.424C560.158 393.304 560.59 395.944 561.454 398.344C562.366 400.744 563.638 402.808 565.27 404.536C566.902 406.264 568.894 407.608 571.246 408.568C573.598 409.48 576.238 409.936 579.166 409.936C583.39 409.936 586.99 408.976 589.966 407.056C592.942 405.136 595.15 401.944 596.59 397.48H587.59C587.254 398.632 586.342 399.736 584.854 400.792C583.366 401.8 581.59 402.304 579.526 402.304C576.646 402.304 574.438 401.56 572.902 400.072C571.366 398.584 570.526 396.184 570.382 392.872ZM603.302 371.776V409H613.526V389.488C613.526 385.696 614.15 382.984 615.398 381.352C616.646 379.672 618.662 378.832 621.446 378.832C623.894 378.832 625.598 379.6 626.558 381.136C627.518 382.624 627.998 384.904 627.998 387.976V409H638.222V386.104C638.222 383.8 638.006 381.712 637.574 379.84C637.19 377.92 636.494 376.312 635.486 375.016C634.478 373.672 633.086 372.64 631.31 371.92C629.582 371.152 627.35 370.768 624.614 370.768C622.454 370.768 620.342 371.272 618.278 372.28C616.214 373.24 614.534 374.8 613.238 376.96H613.022V371.776H603.302ZM672.406 390.28C672.406 391.816 672.262 393.304 671.974 394.744C671.686 396.184 671.206 397.48 670.534 398.632C669.862 399.736 668.95 400.624 667.798 401.296C666.694 401.968 665.302 402.304 663.622 402.304C662.038 402.304 660.67 401.968 659.518 401.296C658.414 400.576 657.478 399.664 656.71 398.56C655.99 397.408 655.462 396.112 655.126 394.672C654.79 393.232 654.622 391.792 654.622 390.352C654.622 388.816 654.766 387.352 655.054 385.96C655.39 384.52 655.894 383.248 656.566 382.144C657.286 381.04 658.222 380.152 659.374 379.48C660.526 378.808 661.942 378.472 663.622 378.472C665.302 378.472 666.694 378.808 667.798 379.48C668.902 380.152 669.79 381.04 670.462 382.144C671.182 383.2 671.686 384.448 671.974 385.888C672.262 387.28 672.406 388.744 672.406 390.28ZM672.55 404.248V409H682.27V357.592H672.046V376.312H671.902C670.75 374.488 669.166 373.12 667.15 372.208C665.182 371.248 663.094 370.768 660.886 370.768C658.15 370.768 655.75 371.32 653.686 372.424C651.622 373.48 649.894 374.896 648.502 376.672C647.158 378.448 646.126 380.512 645.406 382.864C644.734 385.168 644.398 387.568 644.398 390.064C644.398 392.656 644.734 395.152 645.406 397.552C646.126 399.952 647.158 402.088 648.502 403.96C649.894 405.784 651.646 407.248 653.758 408.352C655.87 409.408 658.318 409.936 661.102 409.936C663.55 409.936 665.734 409.504 667.654 408.64C669.622 407.728 671.206 406.264 672.406 404.248H672.55ZM715.053 386.392H698.421C698.469 385.672 698.613 384.856 698.853 383.944C699.141 383.032 699.597 382.168 700.221 381.352C700.893 380.536 701.757 379.864 702.813 379.336C703.917 378.76 705.285 378.472 706.917 378.472C709.413 378.472 711.261 379.144 712.461 380.488C713.709 381.832 714.573 383.8 715.053 386.392ZM698.421 392.872H725.277C725.469 389.992 725.229 387.232 724.557 384.592C723.885 381.952 722.781 379.6 721.245 377.536C719.757 375.472 717.837 373.84 715.485 372.64C713.133 371.392 710.373 370.768 707.205 370.768C704.373 370.768 701.781 371.272 699.429 372.28C697.125 373.288 695.133 374.68 693.453 376.456C691.773 378.184 690.477 380.248 689.565 382.648C688.653 385.048 688.197 387.64 688.197 390.424C688.197 393.304 688.629 395.944 689.493 398.344C690.405 400.744 691.677 402.808 693.309 404.536C694.941 406.264 696.933 407.608 699.285 408.568C701.637 409.48 704.277 409.936 707.205 409.936C711.429 409.936 715.029 408.976 718.005 407.056C720.981 405.136 723.189 401.944 724.629 397.48H715.629C715.293 398.632 714.381 399.736 712.893 400.792C711.405 401.8 709.629 402.304 707.565 402.304C704.685 402.304 702.477 401.56 700.941 400.072C699.405 398.584 698.565 396.184 698.421 392.872ZM731.341 371.776V409H741.565V392.224C741.565 390.544 741.733 388.984 742.069 387.544C742.405 386.104 742.957 384.856 743.725 383.8C744.541 382.696 745.597 381.832 746.893 381.208C748.189 380.584 749.773 380.272 751.645 380.272C752.269 380.272 752.917 380.32 753.589 380.416C754.261 380.464 754.837 380.536 755.317 380.632V371.128C754.501 370.888 753.757 370.768 753.085 370.768C751.789 370.768 750.541 370.96 749.341 371.344C748.141 371.728 747.013 372.28 745.957 373C744.901 373.672 743.965 374.512 743.149 375.52C742.333 376.48 741.685 377.536 741.205 378.688H741.061V371.776H731.341ZM119.232 472.88H129.24C129.096 470.48 128.52 468.416 127.512 466.688C126.504 464.912 125.184 463.448 123.552 462.296C121.968 461.096 120.144 460.208 118.08 459.632C116.064 459.056 113.952 458.768 111.744 458.768C108.72 458.768 106.032 459.272 103.68 460.28C101.328 461.288 99.336 462.704 97.704 464.528C96.072 466.304 94.824 468.44 93.96 470.936C93.144 473.384 92.736 476.048 92.736 478.928C92.736 481.712 93.192 484.28 94.104 486.632C95.016 488.936 96.288 490.928 97.92 492.608C99.552 494.288 101.52 495.608 103.824 496.568C106.176 497.48 108.744 497.936 111.528 497.936C116.472 497.936 120.528 496.64 123.696 494.048C126.864 491.456 128.784 487.688 129.456 482.744H119.592C119.256 485.048 118.416 486.896 117.072 488.288C115.776 489.632 113.904 490.304 111.456 490.304C109.872 490.304 108.528 489.944 107.424 489.224C106.32 488.504 105.432 487.592 104.76 486.488C104.136 485.336 103.68 484.064 103.392 482.672C103.104 481.28 102.96 479.912 102.96 478.568C102.96 477.176 103.104 475.784 103.392 474.392C103.68 472.952 104.16 471.656 104.832 470.504C105.552 469.304 106.464 468.344 107.568 467.624C108.672 466.856 110.04 466.472 111.672 466.472C116.04 466.472 118.56 468.608 119.232 472.88ZM134.8 471.224C134.944 468.824 135.544 466.832 136.6 465.248C137.656 463.664 139 462.392 140.632 461.432C142.264 460.472 144.088 459.8 146.104 459.416C148.168 458.984 150.232 458.768 152.296 458.768C154.168 458.768 156.064 458.912 157.984 459.2C159.904 459.44 161.656 459.944 163.24 460.712C164.824 461.48 166.12 462.56 167.128 463.952C168.136 465.296 168.64 467.096 168.64 469.352V488.72C168.64 490.4 168.736 492.008 168.928 493.544C169.12 495.08 169.456 496.232 169.936 497H159.568C159.376 496.424 159.208 495.848 159.064 495.272C158.968 494.648 158.896 494.024 158.848 493.4C157.216 495.08 155.296 496.256 153.088 496.928C150.88 497.6 148.624 497.936 146.32 497.936C144.544 497.936 142.888 497.72 141.352 497.288C139.816 496.856 138.472 496.184 137.32 495.272C136.168 494.36 135.256 493.208 134.584 491.816C133.96 490.424 133.648 488.768 133.648 486.848C133.648 484.736 134.008 483.008 134.728 481.664C135.496 480.272 136.456 479.168 137.608 478.352C138.808 477.536 140.152 476.936 141.64 476.552C143.176 476.12 144.712 475.784 146.248 475.544C147.784 475.304 149.296 475.112 150.784 474.968C152.272 474.824 153.592 474.608 154.744 474.32C155.896 474.032 156.808 473.624 157.48 473.096C158.152 472.52 158.464 471.704 158.416 470.648C158.416 469.544 158.224 468.68 157.84 468.056C157.504 467.384 157.024 466.88 156.4 466.544C155.824 466.16 155.128 465.92 154.312 465.824C153.544 465.68 152.704 465.608 151.792 465.608C149.776 465.608 148.192 466.04 147.04 466.904C145.888 467.768 145.216 469.208 145.024 471.224H134.8ZM158.416 478.784C157.984 479.168 157.432 479.48 156.76 479.72C156.136 479.912 155.44 480.08 154.672 480.224C153.952 480.368 153.184 480.488 152.368 480.584C151.552 480.68 150.736 480.8 149.92 480.944C149.152 481.088 148.384 481.28 147.616 481.52C146.896 481.76 146.248 482.096 145.672 482.528C145.144 482.912 144.712 483.416 144.376 484.04C144.04 484.664 143.872 485.456 143.872 486.416C143.872 487.328 144.04 488.096 144.376 488.72C144.712 489.344 145.168 489.848 145.744 490.232C146.32 490.568 146.992 490.808 147.76 490.952C148.528 491.096 149.32 491.168 150.136 491.168C152.152 491.168 153.712 490.832 154.816 490.16C155.92 489.488 156.736 488.696 157.264 487.784C157.792 486.824 158.104 485.864 158.2 484.904C158.344 483.944 158.416 483.176 158.416 482.6V478.784ZM189.536 459.776V448.616H179.312V459.776H173.12V466.616H179.312V488.576C179.312 490.448 179.624 491.96 180.248 493.112C180.872 494.264 181.712 495.152 182.768 495.776C183.872 496.4 185.12 496.808 186.512 497C187.952 497.24 189.464 497.36 191.048 497.36C192.056 497.36 193.088 497.336 194.144 497.288C195.2 497.24 196.16 497.144 197.024 497V489.08C196.544 489.176 196.04 489.248 195.512 489.296C194.984 489.344 194.432 489.368 193.855 489.368C192.128 489.368 190.976 489.08 190.4 488.504C189.824 487.928 189.536 486.776 189.536 485.048V466.616H197.024V459.776H189.536ZM226.944 474.392H210.312C210.36 473.672 210.504 472.856 210.744 471.944C211.032 471.032 211.488 470.168 212.112 469.352C212.784 468.536 213.648 467.864 214.704 467.336C215.808 466.76 217.176 466.472 218.808 466.472C221.304 466.472 223.152 467.144 224.352 468.488C225.6 469.832 226.464 471.8 226.944 474.392ZM210.312 480.872H237.168C237.36 477.992 237.12 475.232 236.448 472.592C235.776 469.952 234.672 467.6 233.136 465.536C231.648 463.472 229.728 461.84 227.376 460.64C225.024 459.392 222.264 458.768 219.096 458.768C216.264 458.768 213.672 459.272 211.32 460.28C209.016 461.288 207.024 462.68 205.344 464.456C203.664 466.184 202.368 468.248 201.456 470.648C200.544 473.048 200.088 475.64 200.088 478.424C200.088 481.304 200.52 483.944 201.384 486.344C202.296 488.744 203.568 490.808 205.2 492.536C206.832 494.264 208.824 495.608 211.176 496.568C213.528 497.48 216.168 497.936 219.096 497.936C223.32 497.936 226.92 496.976 229.896 495.056C232.872 493.136 235.08 489.944 236.52 485.48H227.52C227.184 486.632 226.272 487.736 224.784 488.792C223.296 489.8 221.52 490.304 219.456 490.304C216.576 490.304 214.368 489.56 212.832 488.072C211.296 486.584 210.456 484.184 210.312 480.872ZM260.584 488.216C259 488.216 257.68 487.88 256.624 487.208C255.568 486.536 254.704 485.672 254.032 484.616C253.408 483.56 252.952 482.384 252.664 481.088C252.424 479.744 252.304 478.4 252.304 477.056C252.304 475.664 252.448 474.344 252.736 473.096C253.072 471.8 253.576 470.672 254.248 469.712C254.968 468.704 255.832 467.912 256.84 467.336C257.896 466.76 259.144 466.472 260.584 466.472C262.264 466.472 263.656 466.784 264.76 467.408C265.864 468.032 266.752 468.872 267.424 469.928C268.096 470.984 268.576 472.208 268.864 473.6C269.152 474.944 269.296 476.384 269.296 477.92C269.296 479.264 269.104 480.56 268.72 481.808C268.384 483.008 267.856 484.088 267.136 485.048C266.416 486.008 265.504 486.776 264.4 487.352C263.296 487.928 262.024 488.216 260.584 488.216ZM279.016 494.624V459.776H269.296V464.744H269.152C267.904 462.584 266.344 461.048 264.472 460.136C262.648 459.224 260.512 458.768 258.064 458.768C255.472 458.768 253.168 459.272 251.152 460.28C249.184 461.288 247.528 462.656 246.184 464.384C244.84 466.064 243.808 468.032 243.088 470.288C242.416 472.496 242.08 474.8 242.08 477.2C242.08 479.744 242.368 482.168 242.944 484.472C243.568 486.728 244.528 488.72 245.824 490.448C247.12 492.128 248.776 493.472 250.792 494.48C252.808 495.44 255.208 495.92 257.992 495.92C260.248 495.92 262.384 495.464 264.4 494.552C266.464 493.592 268.048 492.128 269.152 490.16H269.296V495.056C269.344 497.696 268.696 499.88 267.352 501.608C266.056 503.336 263.968 504.2 261.088 504.2C259.264 504.2 257.656 503.816 256.264 503.048C254.872 502.328 253.936 501.008 253.456 499.088H243.304C243.448 501.2 244.024 503 245.032 504.488C246.088 506.024 247.384 507.272 248.92 508.232C250.504 509.192 252.232 509.888 254.104 510.32C256.024 510.8 257.896 511.04 259.72 511.04C263.992 511.04 267.4 510.464 269.944 509.312C272.488 508.16 274.432 506.744 275.776 505.064C277.12 503.432 277.984 501.656 278.368 499.736C278.8 497.816 279.016 496.112 279.016 494.624ZM296.319 478.424C296.319 476.936 296.463 475.472 296.751 474.032C297.039 472.592 297.519 471.32 298.191 470.216C298.911 469.112 299.847 468.224 300.999 467.552C302.151 466.832 303.591 466.472 305.319 466.472C307.047 466.472 308.487 466.832 309.639 467.552C310.839 468.224 311.775 469.112 312.447 470.216C313.167 471.32 313.671 472.592 313.959 474.032C314.247 475.472 314.391 476.936 314.391 478.424C314.391 479.912 314.247 481.376 313.959 482.816C313.671 484.208 313.167 485.48 312.447 486.632C311.775 487.736 310.839 488.624 309.639 489.296C308.487 489.968 307.047 490.304 305.319 490.304C303.591 490.304 302.151 489.968 300.999 489.296C299.847 488.624 298.911 487.736 298.191 486.632C297.519 485.48 297.039 484.208 296.751 482.816C296.463 481.376 296.319 479.912 296.319 478.424ZM286.095 478.424C286.095 481.4 286.551 484.088 287.463 486.488C288.375 488.888 289.671 490.952 291.351 492.68C293.031 494.36 295.047 495.656 297.399 496.568C299.751 497.48 302.391 497.936 305.319 497.936C308.247 497.936 310.887 497.48 313.239 496.568C315.639 495.656 317.679 494.36 319.359 492.68C321.039 490.952 322.335 488.888 323.247 486.488C324.159 484.088 324.615 481.4 324.615 478.424C324.615 475.448 324.159 472.76 323.247 470.36C322.335 467.912 321.039 465.848 319.359 464.168C317.679 462.44 315.639 461.12 313.239 460.208C310.887 459.248 308.247 458.768 305.319 458.768C302.391 458.768 299.751 459.248 297.399 460.208C295.047 461.12 293.031 462.44 291.351 464.168C289.671 465.848 288.375 467.912 287.463 470.36C286.551 472.76 286.095 475.448 286.095 478.424ZM331.263 459.776V497H341.487V480.224C341.487 478.544 341.655 476.984 341.991 475.544C342.327 474.104 342.879 472.856 343.647 471.8C344.463 470.696 345.519 469.832 346.815 469.208C348.111 468.584 349.695 468.272 351.567 468.272C352.191 468.272 352.839 468.32 353.511 468.416C354.183 468.464 354.759 468.536 355.239 468.632V459.128C354.423 458.888 353.679 458.768 353.007 458.768C351.711 458.768 350.463 458.96 349.263 459.344C348.063 459.728 346.935 460.28 345.879 461C344.823 461.672 343.887 462.512 343.071 463.52C342.255 464.48 341.607 465.536 341.127 466.688H340.983V459.776H331.263ZM377.607 501.608L393.159 459.776H382.575L374.439 485.264H374.295L365.871 459.776H354.999L368.031 494.696C368.319 495.416 368.463 496.184 368.463 497C368.463 498.104 368.127 499.112 367.455 500.024C366.831 500.936 365.847 501.464 364.503 501.608C363.495 501.656 362.487 501.632 361.479 501.536C360.471 501.44 359.487 501.344 358.527 501.248V509.672C359.583 509.768 360.615 509.84 361.623 509.888C362.679 509.984 363.735 510.032 364.791 510.032C368.295 510.032 371.031 509.384 372.999 508.088C374.967 506.792 376.503 504.632 377.607 501.608ZM391.672 485.912V497H402.976V485.912H391.672Z" fill="black"/>
<line x1="965" y1="2.18557e-07" x2="965" y2="1080" stroke="black" stroke-width="10"/>
<circle cx="1439" cy="540" r="83" fill="black"/>
<ellipse cx="1438.32" cy="539.32" rx="49.6639" ry="49.6639" fill="white"/>
</g>
<defs>
<clipPath id="clip0">
<rect width="1920" height="1080" fill="white"/>
</clipPath>
</defs>
</svg>
